<svg width="433" height="558" viewBox="0 0 433 558" fill="none" xmlns="http://www.w3.org/2000/svg">
<path opacity="0.6" fill-rule="evenodd" clip-rule="evenodd" d="M569.096 -93L408.894 -93C400.886 -93 394.394 -86.5081 394.394 -78.5V58.2244L278.906 58.2244C269.794 58.2244 262.406 65.6117 262.406 74.7244V112.195H205.233C196.673 112.195 189.733 119.135 189.733 127.695V156.544C189.733 165.086 182.822 172.014 174.287 172.043L4.80939 172.043L0.534485 172.044H6.10352e-05V173.044H0.534485L1.06891 173.044H13.8936H17.6341L174.3 173.044C182.257 173.044 188.727 179.455 188.799 187.412L189.064 216.464C189.141 224.969 196.058 231.823 204.563 231.823H261.872V231.858H262.872V231.823H348.973V280.309C348.973 287.213 343.376 292.809 336.473 292.809L214.279 292.81L28.2886 292.81V293.81L213.211 293.81L214.279 293.81H263.116C270.004 293.81 275.594 299.381 275.616 306.269L275.723 339.133C275.747 346.572 281.784 352.589 289.223 352.589H349.507V394.663C349.507 402.119 355.551 408.163 363.007 408.163H478.823L478.823 543.75C478.823 551.206 484.867 557.25 492.323 557.25H569.096V556.25H492.323C485.419 556.25 479.823 550.654 479.823 543.75L479.823 408.163H540.065C546.968 408.163 552.565 413.759 552.565 420.663V459.321C552.565 466.777 558.609 472.821 566.065 472.821H568.027V471.821H566.065C559.161 471.821 553.565 466.224 553.565 459.321V420.663C553.565 413.207 547.521 407.163 540.065 407.163H479.823V365.089C479.823 357.634 473.779 351.589 466.323 351.589H350.507V306.31C350.507 300.661 347.039 295.824 342.116 293.81H539.554C546.457 293.81 552.054 299.406 552.054 306.31V345.502C552.054 352.958 558.098 359.002 565.554 359.002H568.027V358.002H565.554C558.65 358.002 553.054 352.405 553.054 345.502V306.31C553.054 298.854 547.01 292.81 539.554 292.81H341.581C346.504 290.796 349.973 285.958 349.973 280.309V231.823H565.355V230.823H262.872V185.544C262.872 179.896 259.404 175.058 254.48 173.044H569.096V172.044H457.266C462.651 169.927 466.464 164.68 466.464 158.544V122.351C466.464 114.343 472.956 107.851 480.964 107.851H568.027V106.851H480.964C472.403 106.851 465.464 113.791 465.464 122.351V158.544C465.464 165.999 459.42 172.044 451.964 172.044H254.208C259.594 169.927 263.406 164.68 263.406 158.543V113.195L376.894 113.195C387.111 113.195 395.394 104.912 395.394 94.695V59.2244H452.498C460.506 59.2244 466.998 52.7325 466.998 44.7244V8.06657C466.998 0.610725 473.042 -5.43343 480.498 -5.43343H568.027V-6.43343H480.498C472.49 -6.43343 465.998 0.0584412 465.998 8.06657V44.7244C465.998 52.1802 459.954 58.2244 452.498 58.2244H395.394V-78.5C395.394 -85.9558 401.438 -92 408.894 -92L569.096 -92V-93ZM337.007 293.81H268.225C273.134 295.818 276.598 300.635 276.616 306.266L276.723 339.13C276.746 346.018 282.335 351.589 289.223 351.589H349.507V306.31C349.507 299.406 343.911 293.81 337.007 293.81ZM350.507 352.589V394.663C350.507 401.567 356.104 407.163 363.007 407.163H478.823V365.089C478.823 358.186 473.226 352.589 466.323 352.589H350.507ZM278.906 59.2244L394.394 59.2244V94.695C394.394 104.36 386.559 112.195 376.894 112.195L263.406 112.195V74.7244C263.406 66.164 270.346 59.2244 278.906 59.2244ZM205.233 113.195H262.406V158.543C262.406 165.999 256.362 172.043 248.906 172.043H179.903C186.223 169.731 190.733 163.664 190.733 156.544V127.695C190.733 119.687 197.225 113.195 205.233 113.195ZM261.872 230.823V185.544C261.872 178.64 256.276 173.044 249.372 173.044H179.789C185.595 175.243 189.74 180.83 189.799 187.403L190.064 216.455C190.136 224.412 196.606 230.823 204.563 230.823H261.872Z" fill="url(#paint0_linear_435_2676)"/>
<defs>
<linearGradient id="paint0_linear_435_2676" x1="609.975" y1="233.41" x2="67.2926" y2="228.536" gradientUnits="userSpaceOnUse">
<stop offset="0.020945" stop-color="#100710"/>
<stop offset="0.27944" stop-color="#1F1D28"/>
<stop offset="0.794154" stop-color="#3D4655"/>
<stop offset="0.992902" stop-color="#3E4857" stop-opacity="0"/>
</linearGradient>
</defs>
</svg>
