<svg width="36" height="36" viewBox="0 0 36 36" fill="none" xmlns="http://www.w3.org/2000/svg">
<rect width="36" height="36" rx="10" fill="#00B7F0"/>
<path d="M15 12C13 13 14.0776 12.9048 13 13.9777C11.9224 15.0505 15.5271 19.6985 14.0031 19.6985C12.4791 19.6985 11.0175 19.0958 9.93987 18.0229C8.86224 16.9501 8.25684 15.4949 8.25684 13.9777C8.25684 12.4604 8.86224 11.0053 9.93987 9.93243C11.0175 8.85957 12.4791 8.25684 14.0031 8.25684C15.5271 8.25684 16.9886 8.85957 18.0663 9.93243C19.1439 11.0053 17 11 15 12Z" fill="white"/>
<path d="M27.7575 22.1931C27.7575 22.9446 27.6088 23.6888 27.32 24.3831C27.0311 25.0774 26.6077 25.7083 26.0739 26.2397C25.5401 26.7711 24.9065 27.1926 24.2091 27.4802C23.5117 27.7678 22.7642 27.9159 22.0093 27.9159C20.4848 27.9159 19.0227 27.3129 17.9447 26.2397C16.8667 25.1665 18.9999 26.5173 18.9999 24.9996C18.9999 23.4818 21.9219 24.5728 22.9999 23.4996C24.0779 22.4263 22.4754 18.5 23.9999 18.5C24.7547 18.5 23.5117 16.6183 24.2091 16.9059C24.9065 17.1935 25.5401 17.615 26.0739 18.1464C26.6077 18.6778 27.0311 19.3087 27.32 20.003C27.6088 20.6974 27.7575 21.4415 27.7575 22.1931Z" fill="white"/>
<path fill-rule="evenodd" clip-rule="evenodd" d="M26.4166 21.5963C26.874 20.497 27.1094 19.3187 27.1094 18.1288C27.1094 16.9389 26.874 15.7607 26.4166 14.6613C25.9592 13.562 25.2888 12.5631 24.4437 11.7218C23.5986 10.8804 22.5953 10.2129 21.4911 9.75759C20.3869 9.30224 19.2034 9.06787 18.0082 9.06787C16.813 9.06787 15.6295 9.30224 14.5253 9.75759C13.4211 10.2129 12.4178 10.8804 11.5727 11.7218C10.7275 12.5631 10.0571 13.562 9.59977 14.6613C9.14239 15.7607 8.90698 16.9389 8.90698 18.1288C8.90698 19.3187 9.14239 20.497 9.59977 21.5963C10.0571 22.6956 10.7275 23.6945 11.5727 24.5359C12.4178 25.3773 13.4211 26.0447 14.5253 26.5C15.6295 26.9554 16.813 27.1898 18.0082 27.1898C19.2034 27.1898 20.3869 26.9554 21.4911 26.5C22.5953 26.0447 23.5986 25.3773 24.4437 24.5359C25.2888 23.6945 25.9592 22.6956 26.4166 21.5963ZM14.5523 16.8697C14.7744 17.2495 15.0813 17.5729 15.4491 17.8147C15.9364 18.1332 16.4544 18.4021 16.9954 18.6175C17.6002 18.87 18.0695 19.084 18.4032 19.2597C18.6854 19.3983 18.9415 19.5845 19.1603 19.8101C19.3258 19.9856 19.4178 20.2177 19.4174 20.4589C19.4246 20.6289 19.391 20.7982 19.3196 20.9527C19.2482 21.1073 19.141 21.2426 19.0068 21.3475C18.6483 21.5884 18.2195 21.7026 17.7885 21.6718C17.5448 21.6744 17.3016 21.6493 17.0636 21.5971C16.8705 21.5548 16.6817 21.4951 16.4994 21.4189C16.3398 21.3499 16.1217 21.2463 15.8453 21.1083C15.623 20.9898 15.3756 20.9263 15.1237 20.9228C14.8976 20.9136 14.6766 20.9915 14.5063 21.1404C14.4251 21.2176 14.3617 21.3115 14.3203 21.4156C14.279 21.5197 14.2608 21.6315 14.2669 21.7433C14.2618 21.9553 14.3258 22.1632 14.4493 22.3357C14.598 22.5239 14.7902 22.6732 15.0095 22.7708C15.8673 23.1421 16.7971 23.3179 17.7314 23.2852C18.4113 23.2989 19.088 23.1887 19.7284 22.9602C20.2597 22.7717 20.7224 22.4287 21.0569 21.9753C21.3853 21.4963 21.5517 20.925 21.5318 20.3448C21.5446 19.871 21.4258 19.4029 21.1887 18.9923C20.9479 18.6016 20.6235 18.2691 20.2388 18.0185C19.7517 17.7046 19.2349 17.4392 18.6958 17.2262C18.6382 17.198 18.5785 17.1742 18.5174 17.1548C17.965 16.9268 17.5495 16.7437 17.2709 16.6057C17.0222 16.4892 16.7969 16.3282 16.6063 16.1306C16.4459 15.9624 16.3574 15.7383 16.3597 15.5061C16.352 15.3291 16.392 15.1534 16.4755 14.9972C16.5591 14.841 16.6831 14.7101 16.8346 14.6181C17.1937 14.4043 17.6069 14.2987 18.0247 14.314C18.3452 14.3107 18.6647 14.3504 18.9746 14.432C19.3113 14.529 19.6408 14.6494 19.9606 14.7924C20.0904 14.8526 20.2315 14.8843 20.3746 14.8855C20.4786 14.8882 20.5819 14.869 20.6779 14.829C20.7739 14.789 20.8604 14.7292 20.9316 14.6535C21.0068 14.5713 21.0651 14.4752 21.1032 14.3705C21.1412 14.2658 21.1583 14.1547 21.1533 14.0434C21.1567 13.8293 21.0818 13.6212 20.9427 13.4582C20.7539 13.2601 20.5198 13.1108 20.2604 13.0231C19.978 12.9195 19.6859 12.8442 19.3886 12.7983C18.9731 12.7302 18.5526 12.698 18.1316 12.702C17.4882 12.6982 16.8489 12.8057 16.2422 13.0198C15.6844 13.2079 15.1864 13.5403 14.7989 13.9831C14.4261 14.4241 14.229 14.9868 14.2452 15.5637C14.232 16.0183 14.3378 16.4685 14.5523 16.8697Z" fill="white"/>
</svg>
