<svg width="40" height="41" viewBox="0 0 40 41" fill="none" xmlns="http://www.w3.org/2000/svg">
<path fill-rule="evenodd" clip-rule="evenodd" d="M11 20C10.4475 20 10 20.4475 10 21C10 27.6224 15.3776 33 22 33C28.6224 33 34 27.6224 34 21C34 14.3776 28.6224 9 22 9C21.4475 9 21 9.44749 21 10V20H11ZM19 6C19 5.44749 18.5525 5 18 5C11.3776 5 6 10.3776 6 17C6 17.5525 6.44749 18 7 18H18C18.5525 18 19 17.5525 19 17V6Z" fill="#F1F1F1" fill-opacity="0.1"/>
<path fill-rule="evenodd" clip-rule="evenodd" d="M11 20C10.4475 20 10 20.4475 10 21C10 27.6224 15.3776 33 22 33C28.6224 33 34 27.6224 34 21C34 14.3776 28.6224 9 22 9C21.4475 9 21 9.44749 21 10V20H11ZM19 6C19 5.44749 18.5525 5 18 5C11.3776 5 6 10.3776 6 17C6 17.5525 6.44749 18 7 18H18C18.5525 18 19 17.5525 19 17V6Z" fill="url(#paint0_linear_2018_293)" fill-opacity="0.2"/>
<path d="M21 20.2167H21.2167V20V10C21.2167 9.56715 21.5671 9.21667 22 9.21667C28.5027 9.21667 33.7833 14.4973 33.7833 21C33.7833 27.5027 28.5027 32.7833 22 32.7833C15.4973 32.7833 10.2167 27.5027 10.2167 21C10.2167 20.5671 10.5671 20.2167 11 20.2167H21ZM18 5.21667C18.4329 5.21667 18.7833 5.56715 18.7833 6V17C18.7833 17.4329 18.4329 17.7833 18 17.7833H7C6.56715 17.7833 6.21667 17.4329 6.21667 17C6.21667 10.4973 11.4973 5.21667 18 5.21667Z" stroke="url(#paint1_linear_2018_293)" stroke-opacity="0.1" stroke-width="0.433333"/>
<defs>
<linearGradient id="paint0_linear_2018_293" x1="6" y1="5" x2="38.9831" y2="13.375" gradientUnits="userSpaceOnUse">
<stop stop-color="#90A9AF"/>
<stop offset="1" stop-color="#4E6070"/>
</linearGradient>
<linearGradient id="paint1_linear_2018_293" x1="6" y1="5" x2="38.9831" y2="13.375" gradientUnits="userSpaceOnUse">
<stop stop-color="#90A9AF"/>
<stop offset="1" stop-color="#4E6070"/>
</linearGradient>
</defs>
</svg>
