<svg width="40" height="41" viewBox="0 0 40 41" fill="none" xmlns="http://www.w3.org/2000/svg">
<path d="M18.2942 20.4729C18.9558 20.6211 19.61 20.8033 20.2545 21.0178C21.0984 21.316 21.7618 21.7438 22.0416 22.0027C22.3236 22.2611 22.7947 22.7891 22.5666 23.6727C22.3384 24.5557 21.7681 24.776 21.3139 24.8932C20.8577 25.0104 20.0116 24.991 19.2269 24.8363C18.441 24.6805 17.2971 24.3354 17.2971 24.3354L18.2942 20.4729Z" fill="#F1F1F1" fill-opacity="0.1"/>
<path d="M18.2942 20.4729C18.9558 20.6211 19.61 20.8033 20.2545 21.0178C21.0984 21.316 21.7618 21.7438 22.0416 22.0027C22.3236 22.2611 22.7947 22.7891 22.5666 23.6727C22.3384 24.5557 21.7681 24.776 21.3139 24.8932C20.8577 25.0104 20.0116 24.991 19.2269 24.8363C18.441 24.6805 17.2971 24.3354 17.2971 24.3354L18.2942 20.4729Z" fill="url(#paint0_linear_2018_1290)" fill-opacity="0.2"/>
<path d="M22.1071 19.1258C21.5494 19.2688 20.8376 19.2324 20.1986 19.0818C19.5606 18.9307 18.7558 18.6805 18.7558 18.6805L19.6536 15.2041C19.6536 15.2041 20.2176 15.3084 20.7584 15.4678C21.2991 15.6266 21.7723 15.7766 22.4272 16.2025C23.082 16.6279 23.3598 17.3012 23.2066 17.9615C23.0535 18.6213 22.6648 18.9834 22.1071 19.1258Z" fill="#F1F1F1" fill-opacity="0.1"/>
<path d="M22.1071 19.1258C21.5494 19.2688 20.8376 19.2324 20.1986 19.0818C19.5606 18.9307 18.7558 18.6805 18.7558 18.6805L19.6536 15.2041C19.6536 15.2041 20.2176 15.3084 20.7584 15.4678C21.2991 15.6266 21.7723 15.7766 22.4272 16.2025C23.082 16.6279 23.3598 17.3012 23.2066 17.9615C23.0535 18.6213 22.6648 18.9834 22.1071 19.1258Z" fill="url(#paint1_linear_2018_1290)" fill-opacity="0.2"/>
<path fill-rule="evenodd" clip-rule="evenodd" d="M20 35C28.2843 35 35 28.284 35 20C35 11.716 28.2843 5 20 5C11.7157 5 5 11.716 5 20C5 28.284 11.7157 35 20 35ZM20.9474 27.4877C21.4596 27.558 22.612 27.735 23.8541 27.2686C25.0941 26.8016 25.6359 25.6807 25.9676 24.4918C26.3013 23.3041 26.0732 22.3666 25.6021 21.7391C25.1289 21.1121 24.3347 20.692 24.3347 20.692C24.3347 20.692 24.6292 20.6094 24.9521 20.4688C25.1691 20.3744 25.3991 20.2531 25.5609 20.1131C25.9633 19.765 26.2802 19.1416 26.3932 18.8035C26.5073 18.4648 26.9371 17.0334 26.0658 15.8984C25.393 15.0201 24.4963 14.4969 23.2246 14.0539L23.9787 11.1324L22.2444 10.6502L21.4988 13.5365L20.1785 13.1691L20.9231 10.2828L19.1888 9.8L18.4442 12.6863L15.0326 11.7377L14.55 13.6063L15.5523 13.8863C15.8259 13.9619 16.3043 14.1283 16.449 14.4266C16.5324 14.5982 16.5691 14.716 16.562 14.8742C16.5568 14.9908 16.528 15.1291 16.4765 15.3271L14.5542 22.7779C14.5315 22.8658 14.498 22.9625 14.4474 23.0498C14.3967 23.1371 14.3288 23.2156 14.2374 23.2672C14.1427 23.3199 14.0557 23.3434 13.9452 23.3404C13.8426 23.3381 13.7198 23.3123 13.5518 23.266L12.5146 22.9766L11.6 25.0402L15.0115 25.99L14.269 28.8676L16.0033 29.3498L16.7458 26.4723L18.0661 26.8396L17.3236 29.7172L19.0579 30.2L19.813 27.275C20.2683 27.3729 20.695 27.4537 20.9474 27.4877Z" fill="#F1F1F1" fill-opacity="0.1"/>
<path fill-rule="evenodd" clip-rule="evenodd" d="M20 35C28.2843 35 35 28.284 35 20C35 11.716 28.2843 5 20 5C11.7157 5 5 11.716 5 20C5 28.284 11.7157 35 20 35ZM20.9474 27.4877C21.4596 27.558 22.612 27.735 23.8541 27.2686C25.0941 26.8016 25.6359 25.6807 25.9676 24.4918C26.3013 23.3041 26.0732 22.3666 25.6021 21.7391C25.1289 21.1121 24.3347 20.692 24.3347 20.692C24.3347 20.692 24.6292 20.6094 24.9521 20.4688C25.1691 20.3744 25.3991 20.2531 25.5609 20.1131C25.9633 19.765 26.2802 19.1416 26.3932 18.8035C26.5073 18.4648 26.9371 17.0334 26.0658 15.8984C25.393 15.0201 24.4963 14.4969 23.2246 14.0539L23.9787 11.1324L22.2444 10.6502L21.4988 13.5365L20.1785 13.1691L20.9231 10.2828L19.1888 9.8L18.4442 12.6863L15.0326 11.7377L14.55 13.6063L15.5523 13.8863C15.8259 13.9619 16.3043 14.1283 16.449 14.4266C16.5324 14.5982 16.5691 14.716 16.562 14.8742C16.5568 14.9908 16.528 15.1291 16.4765 15.3271L14.5542 22.7779C14.5315 22.8658 14.498 22.9625 14.4474 23.0498C14.3967 23.1371 14.3288 23.2156 14.2374 23.2672C14.1427 23.3199 14.0557 23.3434 13.9452 23.3404C13.8426 23.3381 13.7198 23.3123 13.5518 23.266L12.5146 22.9766L11.6 25.0402L15.0115 25.99L14.269 28.8676L16.0033 29.3498L16.7458 26.4723L18.0661 26.8396L17.3236 29.7172L19.0579 30.2L19.813 27.275C20.2683 27.3729 20.695 27.4537 20.9474 27.4877Z" fill="url(#paint2_linear_2018_1290)" fill-opacity="0.2"/>
<path d="M22.0533 18.9159L22.0535 18.9158C22.3006 18.8528 22.4997 18.744 22.6534 18.5864C22.8072 18.4287 22.9263 18.2109 22.9956 17.9125C23.126 17.35 22.8956 16.7652 22.3091 16.3842L22.309 16.3842C21.6802 15.9751 21.2304 15.8322 20.6973 15.6757L20.6971 15.6756C20.4333 15.5979 20.1624 15.5332 19.9565 15.4878C19.9035 15.4761 19.855 15.4657 19.8121 15.4567L19.0175 18.5336C19.0946 18.5567 19.1905 18.5851 19.2983 18.6164C19.5779 18.6974 19.9345 18.7966 20.2483 18.8709L22.0533 18.9159ZM22.0533 18.9159C21.5403 19.0474 20.8661 19.0165 20.2485 18.871L22.0533 18.9159ZM24.8385 20.7494C24.9023 20.7248 24.9697 20.6974 25.0386 20.6674M24.8385 20.7494L26.5987 18.8722C26.4789 19.2304 26.1454 19.894 25.7027 20.277M24.8385 20.7494C24.8639 20.7667 24.8899 20.7849 24.9166 20.8039C25.1827 20.9933 25.5195 21.27 25.775 21.6085L25.7754 21.609C26.2918 22.2969 26.5259 23.3059 26.1761 24.5504C25.8401 25.7548 25.2721 26.966 23.9304 27.4713L23.9302 27.4714C22.6695 27.9448 21.4998 27.7829 20.9641 27.7087C20.9482 27.7065 20.9328 27.7044 20.9179 27.7024C20.696 27.6724 20.3499 27.6085 19.971 27.5298L19.2677 30.2542L19.2125 30.4679L18.9998 30.4087L17.2655 29.9259L17.0607 29.8689L17.1138 29.6631L17.8032 26.9914L16.9005 26.7402L16.2131 29.4039L16.158 29.6177L15.9453 29.5586L14.211 29.0763L14.0061 29.0194L14.0592 28.8134L14.7486 26.1418L11.5419 25.249L11.3003 25.1817L11.4019 24.9524L12.3166 22.8888L12.3925 22.7175L12.5729 22.7679L13.6094 23.0571C13.6096 23.0572 13.6097 23.0572 13.6099 23.0573C13.7756 23.1029 13.8763 23.1221 13.9502 23.1238L13.951 23.1238C14.0198 23.1257 14.0686 23.1131 14.1314 23.0782C14.1798 23.0507 14.2227 23.0052 14.26 22.9411C14.2973 22.8767 14.3246 22.8004 14.3444 22.7237L16.2667 15.273L16.2668 15.2726C16.3181 15.0752 16.3415 14.9563 16.3456 14.8646L16.3456 14.8645C16.3504 14.757 16.3297 14.6768 16.2541 14.5213L16.2541 14.5211C16.2131 14.4366 16.1095 14.3477 15.95 14.2657C15.7971 14.1871 15.6252 14.1313 15.4946 14.0952L15.494 14.095L14.4917 13.8149L14.2871 13.7578L14.3402 13.5521L14.8229 11.6835L14.8781 11.4698L15.0907 11.5289L18.2895 12.4184L18.979 9.74587L19.0342 9.53205L19.247 9.59127L20.9813 10.0741L21.186 10.1311L21.1329 10.3369L20.4414 13.0174L21.3442 13.2686L22.0347 10.596L22.0899 10.3823L22.3025 10.4414L24.0368 10.9237L24.2417 10.9806L24.1885 11.1866L23.4838 13.9164C24.6801 14.3537 25.5639 14.887 26.2378 15.7667L24.8385 20.7494ZM25.0386 20.6674C25.0385 20.6674 25.0385 20.6674 25.0384 20.6675L24.9521 20.4688L25.0386 20.6674ZM25.0386 20.6674C25.262 20.5703 25.5159 20.4386 25.7027 20.277M25.7027 20.277L25.5609 20.1131L25.7027 20.2769C25.7027 20.2769 25.7027 20.2769 25.7027 20.277ZM18.0248 24.3185C17.8395 24.2675 17.6772 24.221 17.5593 24.1868L18.4513 20.7312C19.0354 20.8687 19.6136 21.0329 20.1842 21.2227C21.0053 21.5132 21.6406 21.9268 21.8945 22.1618L21.8952 22.1625C22.1561 22.4015 22.5547 22.852 22.3568 23.6185C22.2534 24.0184 22.0781 24.2519 21.8906 24.4001C21.6987 24.5518 21.4781 24.627 21.26 24.6833C20.8489 24.7889 20.0397 24.7757 19.269 24.6238C18.8841 24.5475 18.4079 24.4239 18.0248 24.3185ZM34.7833 20C34.7833 28.1643 28.1646 34.7833 20 34.7833C11.8354 34.7833 5.21667 28.1643 5.21667 20C5.21667 11.8357 11.8354 5.21667 20 5.21667C28.1646 5.21667 34.7833 11.8357 34.7833 20Z" stroke="url(#paint3_linear_2018_1290)" stroke-opacity="0.1" stroke-width="0.433333"/>
<defs>
<linearGradient id="paint0_linear_2018_1290" x1="5" y1="5" x2="40.3391" y2="13.9732" gradientUnits="userSpaceOnUse">
<stop stop-color="#90A9AF"/>
<stop offset="1" stop-color="#4E6070"/>
</linearGradient>
<linearGradient id="paint1_linear_2018_1290" x1="5" y1="5" x2="40.3391" y2="13.9732" gradientUnits="userSpaceOnUse">
<stop stop-color="#90A9AF"/>
<stop offset="1" stop-color="#4E6070"/>
</linearGradient>
<linearGradient id="paint2_linear_2018_1290" x1="5" y1="5" x2="40.3391" y2="13.9732" gradientUnits="userSpaceOnUse">
<stop stop-color="#90A9AF"/>
<stop offset="1" stop-color="#4E6070"/>
</linearGradient>
<linearGradient id="paint3_linear_2018_1290" x1="5" y1="5" x2="40.3391" y2="13.9732" gradientUnits="userSpaceOnUse">
<stop stop-color="#90A9AF"/>
<stop offset="1" stop-color="#4E6070"/>
</linearGradient>
</defs>
</svg>
