<svg width="203" height="1322" viewBox="0 0 203 1322" fill="none" xmlns="http://www.w3.org/2000/svg">
<path opacity="0.3" d="M202.5 355C181.423 355 160.552 350.849 141.079 342.783C121.607 334.717 103.913 322.894 89.0094 307.991C74.1056 293.087 62.2832 275.393 54.2173 255.921C46.1515 236.448 42 215.577 42 194.5C42 173.423 46.1514 152.552 54.2173 133.079C62.2832 113.607 74.1055 95.9132 89.0094 81.0094C103.913 66.1056 121.607 54.2832 141.079 46.2173C160.552 38.1515 181.423 34 202.5 34" stroke="#898989" stroke-dasharray="2 2"/>
<rect x="9.71289" y="146" width="62" height="62" rx="10" fill="url(#paint0_linear_17_360)"/>
<rect x="1.5" y="138.5" width="79" height="79" rx="9.5" stroke="url(#paint1_linear_17_360)" stroke-opacity="0.5"/>
<path d="M56.5455 171.09C57.4616 171.09 58.3403 171.454 58.9882 172.102C59.636 172.749 60 173.628 60 174.544V181.454C60 182.37 59.636 183.249 58.9882 183.897C58.3403 184.545 57.4616 184.909 56.5455 184.909H54.7111C54.29 188.248 52.6647 191.319 50.1403 193.545C47.8667 195.55 45.0045 196.746 41.9992 196.964C41.4484 197.004 41 196.552 41 196V194.545C41 193.993 41.4488 193.55 41.9985 193.497C44.3806 193.267 46.6214 192.217 48.3282 190.51C50.2718 188.566 51.3636 185.93 51.3636 183.181V172.817C51.3636 170.068 50.2718 167.432 48.3282 165.488C46.3846 163.545 43.7486 162.453 41 162.453C38.2514 162.453 35.6154 163.545 33.6718 165.488C31.7282 167.432 30.6364 170.068 30.6364 172.817V183.909C30.6364 184.461 30.1886 184.909 29.6364 184.909H25.4545C24.5384 184.909 23.6597 184.545 23.0118 183.897C22.364 183.249 22 182.37 22 181.454V174.544C22 173.628 22.364 172.749 23.0118 172.102C23.6597 171.454 24.5384 171.09 25.4545 171.09H27.2889C27.7104 167.75 29.3358 164.68 31.8603 162.454C34.3847 160.228 37.6345 159 41 159C44.3655 159 47.6153 160.228 50.1397 162.454C52.6641 164.68 54.2896 167.75 54.7111 171.09H56.5455ZM34.5413 185.036C34.0537 184.778 33.9133 184.158 34.2057 183.69L34.9767 182.456C35.2696 181.988 35.8855 181.85 36.3801 182.097C37.8108 182.81 39.3922 183.184 41 183.181C42.6078 183.184 44.1892 182.81 45.6199 182.097C46.1145 181.85 46.7304 181.988 47.0233 182.456L47.7943 183.69C48.0867 184.158 47.9463 184.778 47.4587 185.036C45.4736 186.088 43.2564 186.639 41 186.636C38.7436 186.639 36.5264 186.088 34.5413 185.036Z" fill="white"/>
<path opacity="0.3" d="M201.5 677C180.423 677 159.552 672.849 140.079 664.783C120.607 656.717 102.913 644.894 88.0094 629.991C73.1056 615.087 61.2832 597.393 53.2173 577.921C45.1515 558.448 41 537.577 41 516.5C41 495.423 45.1514 474.552 53.2173 455.079C61.2832 435.607 73.1055 417.913 88.0094 403.009C102.913 388.106 120.607 376.283 140.079 368.217C159.552 360.151 180.423 356 201.5 356" stroke="#898989" stroke-dasharray="2 2"/>
<rect x="9" y="469" width="62" height="62" rx="10" fill="url(#paint2_linear_17_360)"/>
<rect opacity="0.5" x="0.5" y="460.5" width="79" height="79" rx="9.5" stroke="url(#paint3_linear_17_360)"/>
<path d="M48.6417 504.158L47.0181 503.934C46.3541 503.843 45.8193 503.36 45.5627 502.741C45.3075 502.125 45.347 501.412 45.7497 500.88L46.7417 499.571C46.8667 499.404 46.85 499.175 46.7042 499.025L43.975 496.296C43.825 496.15 43.5917 496.133 43.4292 496.258L42.1156 497.252C41.5843 497.653 40.8718 497.692 40.2567 497.436C39.6411 497.181 39.1614 496.649 39.0692 495.989L38.8417 494.358C38.8125 494.154 38.6375 494 38.4292 494H34.5708C34.3625 494 34.1875 494.154 34.1583 494.358L33.9312 495.986C33.8388 496.648 33.3591 497.181 32.7417 497.437C32.1259 497.692 31.4117 497.653 30.8802 497.25L29.5708 496.258C29.4083 496.133 29.175 496.15 29.025 496.296L26.2958 499.025C26.15 499.175 26.1333 499.404 26.2583 499.571L27.2503 500.88C27.653 501.412 27.6925 502.125 27.4373 502.741C27.1807 503.36 26.6459 503.843 25.9819 503.934L24.3583 504.158C24.1542 504.187 24 504.363 24 504.571V508.429C24 508.637 24.1542 508.812 24.3583 508.842L25.9819 509.066C26.6459 509.157 27.1807 509.64 27.4373 510.259C27.6925 510.875 27.653 511.588 27.2503 512.12L26.2583 513.429C26.1333 513.596 26.15 513.825 26.2958 513.975L29.025 516.704C29.175 516.85 29.4083 516.867 29.5708 516.742L30.8844 515.748C31.4157 515.347 32.1282 515.308 32.7433 515.564C33.3589 515.819 33.8386 516.351 33.9308 517.011L34.1583 518.642C34.1875 518.846 34.3625 519 34.5708 519H38.4292C38.6375 519 38.8125 518.846 38.8417 518.642L39.0692 517.011C39.1614 516.351 39.6411 515.819 40.2567 515.564C40.8718 515.308 41.5843 515.347 42.1156 515.748L43.4292 516.742C43.5917 516.867 43.825 516.85 43.975 516.704L46.7042 513.975C46.85 513.825 46.8667 513.596 46.7417 513.429L45.7497 512.12C45.347 511.588 45.3075 510.875 45.5627 510.259C45.8193 509.64 46.3541 509.157 47.0181 509.066L48.6417 508.842C48.8458 508.812 49 508.637 49 508.429V504.571C49 504.363 48.8458 504.187 48.6417 504.158ZM41.7333 506.5C41.7333 509.383 39.3833 511.733 36.5 511.733C33.6167 511.733 31.2667 509.383 31.2667 506.5C31.2667 503.617 33.6167 501.267 36.5 501.267C39.3833 501.267 41.7333 503.617 41.7333 506.5Z" fill="white"/>
<path d="M55.7707 486.501L54.6799 486.351C54.2863 486.296 53.9691 486.011 53.8202 485.643C53.8072 485.611 53.7939 485.579 53.7804 485.547C53.6261 485.183 53.6498 484.76 53.8885 484.445L54.5547 483.565C54.6347 483.459 54.624 483.312 54.5307 483.216L52.784 481.469C52.688 481.376 52.5387 481.365 52.4347 481.445L51.5541 482.111C51.2384 482.35 50.8142 482.373 50.4498 482.218C50.4191 482.205 50.3883 482.192 50.3575 482.18C49.9903 482.031 49.706 481.715 49.6512 481.322L49.4987 480.229C49.48 480.099 49.368 480 49.2347 480H46.7653C46.632 480 46.52 480.099 46.5013 480.229L46.3488 481.322C46.294 481.715 46.0097 482.031 45.6425 482.18C45.6105 482.193 45.5786 482.206 45.5468 482.22C45.1829 482.374 44.7596 482.35 44.4446 482.111L43.5653 481.445C43.4613 481.365 43.312 481.376 43.216 481.469L41.4693 483.216C41.376 483.312 41.3653 483.459 41.4453 483.565L42.1115 484.445C42.3502 484.76 42.3739 485.183 42.2196 485.547C42.2061 485.579 42.1928 485.611 42.1798 485.643C42.0309 486.011 41.7137 486.296 41.3201 486.351L40.2293 486.501C40.0987 486.52 40 486.632 40 486.765V489.235C40 489.368 40.0987 489.48 40.2293 489.499L41.3201 489.649C41.7137 489.704 42.0309 489.989 42.1798 490.357C42.1928 490.389 42.2061 490.421 42.2196 490.453C42.3739 490.817 42.3502 491.24 42.1115 491.555L41.4453 492.435C41.3653 492.541 41.376 492.688 41.4693 492.784L43.216 494.531C43.312 494.624 43.4613 494.635 43.5653 494.555L44.4459 493.889C44.7616 493.65 45.1858 493.627 45.5502 493.782C45.5809 493.795 45.6117 493.808 45.6425 493.82C46.0097 493.969 46.294 494.285 46.3488 494.678L46.5013 495.771C46.52 495.901 46.632 496 46.7653 496H49.2347C49.368 496 49.48 495.901 49.4987 495.771L49.6512 494.678C49.706 494.285 49.9903 493.969 50.3575 493.82C50.3883 493.808 50.4191 493.795 50.4498 493.782C50.8142 493.627 51.2384 493.65 51.5541 493.889L52.4347 494.555C52.5387 494.635 52.688 494.624 52.784 494.531L54.5307 492.784C54.624 492.688 54.6347 492.541 54.5547 492.435L53.8885 491.555C53.6498 491.24 53.6261 490.817 53.7804 490.453C53.7939 490.421 53.8072 490.389 53.8202 490.357C53.9691 489.989 54.2863 489.704 54.6799 489.649L55.7707 489.499C55.9013 489.48 56 489.368 56 489.235V486.765C56 486.632 55.9013 486.52 55.7707 486.501ZM51.3493 488C51.3493 489.845 49.8453 491.349 48 491.349C46.1547 491.349 44.6507 489.845 44.6507 488C44.6507 486.155 46.1547 484.651 48 484.651C49.8453 484.651 51.3493 486.155 51.3493 488Z" fill="white"/>
<path opacity="0.3" d="M201.5 999C180.423 999 159.552 994.849 140.079 986.783C120.607 978.717 102.913 966.894 88.0094 951.991C73.1056 937.087 61.2832 919.393 53.2173 899.921C45.1515 880.448 41 859.577 41 838.5C41 817.423 45.1514 796.552 53.2173 777.079C61.2832 757.607 73.1055 739.913 88.0094 725.009C102.913 710.106 120.607 698.283 140.079 690.217C159.552 682.151 180.423 678 201.5 678" stroke="#898989" stroke-dasharray="2 2"/>
<rect x="8.8291" y="790" width="63.4086" height="63.2" rx="10" fill="url(#paint4_linear_17_360)"/>
<rect opacity="0.5" x="0.5" y="782.5" width="80.0667" height="79" rx="9.5" stroke="url(#paint5_linear_17_360)"/>
<path fill-rule="evenodd" clip-rule="evenodd" d="M31.4566 807.871C32.0424 807.285 32.9921 807.285 33.5779 807.871L34.1431 808.436C34.7289 809.022 34.7289 809.972 34.1431 810.558L31.0802 813.621C30.6897 814.011 30.6897 814.644 31.0802 815.035L34.1431 818.098C34.7289 818.684 34.7289 819.633 34.1431 820.219L33.5779 820.784C32.9921 821.37 32.0424 821.37 31.4566 820.784L26.0607 815.388C25.4749 814.803 25.4749 813.853 26.0607 813.267L31.4566 807.871Z" fill="white" stroke="white" stroke-width="0.5"/>
<path fill-rule="evenodd" clip-rule="evenodd" d="M51.5434 824.968C50.9576 824.383 50.0079 824.383 49.4221 824.968L48.8569 825.534C48.2711 826.119 48.2711 827.069 48.8569 827.655L51.9198 830.718C52.3103 831.108 52.3103 831.742 51.9198 832.132L48.8569 835.195C48.2711 835.781 48.2711 836.731 48.8569 837.316L49.4221 837.882C50.0079 838.467 50.9576 838.467 51.5434 837.882L56.9393 832.486C57.5251 831.9 57.5251 830.95 56.9393 830.364L51.5434 824.968Z" fill="white" stroke="white" stroke-width="0.5"/>
<path fill-rule="evenodd" clip-rule="evenodd" d="M32.3833 837.391C31.8897 837.143 31.6903 836.542 31.9381 836.049L46.8051 806.426C47.0529 805.933 47.6539 805.733 48.1475 805.981L50.6046 807.214C51.0982 807.462 51.2975 808.063 51.0498 808.556L36.1827 838.179C35.935 838.673 35.334 838.872 34.8404 838.624L32.3833 837.391Z" fill="white"/>
<path opacity="0.3" d="M201.5 1321C180.423 1321 159.552 1316.85 140.079 1308.78C120.607 1300.72 102.913 1288.89 88.0094 1273.99C73.1056 1259.09 61.2832 1241.39 53.2173 1221.92C45.1515 1202.45 41 1181.58 41 1160.5C41 1139.42 45.1514 1118.55 53.2173 1099.08C61.2832 1079.61 73.1055 1061.91 88.0094 1047.01C102.913 1032.11 120.607 1020.28 140.079 1012.22C159.552 1004.15 180.423 1000 201.5 1000" stroke="#898989" stroke-dasharray="2 2"/>
<rect x="8.8291" y="1112" width="62" height="62" rx="10" fill="url(#paint6_linear_17_360)"/>
<rect opacity="0.5" x="0.5" y="1104.5" width="79" height="79" rx="9.5" stroke="url(#paint7_linear_17_360)"/>
<path d="M55.0305 1130.1C51.9618 1127.04 49.6563 1127.49 49.6563 1127.49L38.9055 1138.2L26.6188 1150.44L24.4703 1160.53L34.6059 1158.39L57.6445 1135.45C57.6445 1135.45 58.1042 1133.16 55.0305 1130.1ZM34.0024 1157.17L30.546 1157.92C30.2129 1157.29 29.8112 1156.67 29.0772 1155.94C28.3429 1155.21 27.7177 1154.81 27.0926 1154.48L27.8365 1151.03L28.8364 1150.04C28.8364 1150.04 30.7189 1150.08 32.8378 1152.19C34.9601 1154.31 35.0007 1156.18 35.0007 1156.18L34.0024 1157.17Z" fill="white"/>
<path d="M31.2304 1142.96L32.6825 1141.51L26.0918 1134.95L31.98 1129.08L33.3406 1130.44L31.5062 1132.27C31.1045 1132.66 31.1053 1133.31 31.5062 1133.71C31.9064 1134.11 32.5558 1134.11 32.9575 1133.71L34.7919 1131.88L37.3011 1134.38L35.466 1136.21C35.065 1136.61 35.065 1137.26 35.4667 1137.66C35.6867 1137.87 35.9807 1137.96 36.2694 1137.94L40.022 1134.2L33.3012 1127.51C32.5729 1126.78 31.3279 1126.84 30.5276 1127.64L24.6401 1133.5C23.8401 1134.3 23.782 1135.54 24.5107 1136.26L31.2304 1142.96Z" fill="white"/>
<path d="M57.6275 1151.74L50.9108 1145.05L47.0672 1148.87C47.0914 1149.1 47.1753 1149.32 47.3471 1149.49C47.7473 1149.89 48.3963 1149.89 48.7976 1149.49L50.6328 1147.66L53.1413 1150.16L51.3061 1151.99C50.9052 1152.38 50.9052 1153.03 51.3061 1153.43C51.7078 1153.83 52.3568 1153.83 52.7581 1153.43L54.5926 1151.6L56.0461 1153.05C56.0454 1153.05 56.0454 1153.05 56.0454 1153.05L50.1583 1158.92L43.5713 1152.36L42.1193 1153.8L48.8367 1160.49C49.5658 1161.22 50.8096 1161.16 51.6103 1160.36L57.4978 1154.5C58.2997 1153.7 58.3566 1152.46 57.6275 1151.74Z" fill="white"/>
<defs>
<linearGradient id="paint0_linear_17_360" x1="61.3914" y1="189.11" x2="18.3842" y2="161.018" gradientUnits="userSpaceOnUse">
<stop stop-color="#FF9400"/>
<stop offset="1" stop-color="#FFBB21"/>
</linearGradient>
<linearGradient id="paint1_linear_17_360" x1="41" y1="138" x2="41" y2="218" gradientUnits="userSpaceOnUse">
<stop stop-color="#FFB91F"/>
<stop offset="1" stop-color="#FF9401"/>
</linearGradient>
<linearGradient id="paint2_linear_17_360" x1="27.135" y1="472.71" x2="54.1371" y2="531.173" gradientUnits="userSpaceOnUse">
<stop stop-color="#CB85FB"/>
<stop offset="1" stop-color="#EB71AA"/>
</linearGradient>
<linearGradient id="paint3_linear_17_360" x1="23.4" y1="464.787" x2="58.2414" y2="540.223" gradientUnits="userSpaceOnUse">
<stop stop-color="#CB85FB"/>
<stop offset="1" stop-color="#EB71AA"/>
</linearGradient>
<linearGradient id="paint4_linear_17_360" x1="22.5412" y1="794.743" x2="60.747" y2="863.953" gradientUnits="userSpaceOnUse">
<stop stop-color="#9A4EE4"/>
<stop offset="1" stop-color="#4055DD"/>
</linearGradient>
<linearGradient id="paint5_linear_17_360" x1="17.5307" y1="788.004" x2="65.635" y2="876.016" gradientUnits="userSpaceOnUse">
<stop stop-color="#9A4EE4"/>
<stop offset="1" stop-color="#4055DD"/>
</linearGradient>
<linearGradient id="paint6_linear_17_360" x1="39.8291" y1="1131.43" x2="70.8291" y2="1174" gradientUnits="userSpaceOnUse">
<stop stop-color="#3891D6"/>
<stop offset="1" stop-color="#04D2E3"/>
</linearGradient>
<linearGradient id="paint7_linear_17_360" x1="40" y1="1129.07" x2="80" y2="1184" gradientUnits="userSpaceOnUse">
<stop stop-color="#3891D6"/>
<stop offset="1" stop-color="#04D2E3"/>
</linearGradient>
</defs>
</svg>
