<svg width="392" height="446" viewBox="0 0 392 446" fill="none" xmlns="http://www.w3.org/2000/svg">
<g filter="url(#filter0_f_4262_2115)">
<circle cx="270.426" cy="165.359" r="42.2669" fill="#A2C6D2" fill-opacity="0.5"/>
</g>
<g filter="url(#filter1_f_4262_2115)">
<ellipse cx="234.291" cy="127.267" rx="72.4016" ry="42.2669" fill="#86A8E6" fill-opacity="0.4"/>
</g>
<g filter="url(#filter2_d_4262_2115)">
<rect x="27" y="123.092" width="263.255" height="263.255" rx="52.1813" fill="url(#paint0_linear_4262_2115)"/>
<rect x="29.0873" y="125.18" width="259.08" height="259.08" rx="50.094" stroke="url(#paint1_linear_4262_2115)" stroke-width="4.1745"/>
</g>
<rect x="47.0898" y="143.182" width="223.336" height="223.336" rx="33.1351" fill="url(#paint2_linear_4262_2115)"/>
<g style="mix-blend-mode:overlay">
<path fill-rule="evenodd" clip-rule="evenodd" d="M104.732 307.292L94.5976 317.427C91.5034 314.267 88.641 310.88 86.0381 307.292H104.732ZM106.055 305.969L106.036 305.988H85.1093C74.9599 291.461 69.0064 273.786 69.0064 254.72L69.0065 254.589H106.055V305.969ZM106.055 307.814L95.5172 318.352C98.791 321.599 102.314 324.595 106.055 327.309V307.814ZM93.6751 318.349L44.6021 367.422L45.5246 368.344L94.5947 319.274C98.1396 322.791 101.973 326.017 106.055 328.915V382.173H107.36L107.36 329.824C121.955 339.807 139.61 345.646 158.628 345.646L158.758 345.646V382.173H160.062V345.635C179.216 345.338 196.933 339.12 211.462 328.729V382.173H212.766V327.779C216.612 324.924 220.225 321.773 223.571 318.359L271.991 366.779L272.914 365.857L224.478 317.42C227.494 314.253 230.285 310.869 232.823 307.292H286.08V305.988H233.732C243.715 291.392 249.554 273.738 249.554 254.72L249.554 254.589H286.08V253.285H249.543C249.246 234.131 243.028 216.415 232.637 201.886H286.08V200.582L231.687 200.582C229.089 197.082 226.246 193.775 223.182 190.687L271.991 141.878L271.069 140.955L222.257 189.767C219.285 186.855 216.114 184.146 212.766 181.661L212.766 127.267L211.462 127.267L211.462 180.71C196.933 170.32 179.216 164.101 160.062 163.805V127.267L158.758 127.267V163.794L158.628 163.794C139.61 163.794 121.955 169.633 107.36 179.615L107.36 127.267L106.055 127.267L106.055 180.524C102.479 183.063 99.0944 185.853 95.9272 188.87L46.4469 139.39L45.5245 140.312L94.9888 189.777C91.5748 193.122 88.4235 196.735 85.5687 200.582L31.1748 200.582L31.1748 201.886H84.6182C74.2279 216.415 68.0093 234.131 67.713 253.285H31.1748L31.1748 254.589H67.702L67.7019 254.72C67.7019 273.738 73.5406 291.392 83.5233 305.988H31.1748L31.1748 307.292H84.4323C87.2206 311.22 90.313 314.917 93.6751 318.349ZM221.335 190.69C218.639 188.049 215.777 185.578 212.766 183.292V199.258L221.335 190.69ZM211.462 200.563L211.443 200.582H160.062V165.11C179.268 165.411 197.006 171.753 211.462 182.32V200.563ZM210.138 201.886L160.062 251.962V201.886H210.138ZM160.584 253.285L211.462 202.408V253.285H160.584ZM158.758 255.111V305.988L107.881 305.988L158.758 255.111ZM157.435 254.589L107.36 304.665V254.589L157.435 254.589ZM213.287 200.582L222.26 191.609C225.05 194.423 227.656 197.42 230.056 200.582H213.287ZM231.217 307.292C228.868 310.531 226.307 313.606 223.555 316.498L214.35 307.292H231.217ZM222.648 317.436L212.766 307.554V326.147C216.271 323.487 219.574 320.574 222.648 317.436ZM212.766 305.709L213.045 305.988H232.146C242.296 291.461 248.249 273.786 248.249 254.72L248.249 254.589H212.766V305.709ZM161.646 254.589L211.462 304.404V254.589H161.646ZM211.2 305.988L160.062 254.85V305.988H211.2ZM108.943 201.886L158.758 251.701V201.886L108.943 201.886ZM158.497 253.285L107.36 202.147V253.285H158.497ZM107.36 200.302L107.639 200.582H158.758V165.098L158.628 165.098C139.562 165.098 121.887 171.052 107.36 181.201V200.302ZM96.8499 189.793L106.055 198.998V182.13C102.817 184.48 99.7414 187.041 96.8499 189.793ZM105.794 200.582L95.9113 190.699C92.7735 193.773 89.8607 197.077 87.2 200.582H105.794ZM69.0177 253.285H106.055V201.886H86.2281C75.6615 216.341 69.3191 234.08 69.0177 253.285ZM231.027 201.886H212.766V253.285H248.238C247.936 234.08 241.594 216.341 231.027 201.886ZM211.462 327.119V307.292H160.062V344.33C179.268 344.028 197.006 337.686 211.462 327.119ZM158.758 344.341V307.292L107.36 307.292V328.238C121.887 338.388 139.562 344.341 158.628 344.341L158.758 344.341Z" fill="white" fill-opacity="0.4"/>
</g>
<path fill-rule="evenodd" clip-rule="evenodd" d="M201.47 237.576L201.441 281.757C204.067 281.546 212.039 276.147 215.036 274.446C218.915 272.243 224.098 269.245 228.158 266.865L228.129 252.907C226.942 251.663 203.188 237.846 201.47 237.576Z" fill="url(#paint3_linear_4262_2115)" fill-opacity="0.9"/>
<path d="M148.095 237.34C146.68 237.915 144.582 239.052 142.171 240.451C139.816 241.818 137.155 243.439 134.532 245.038L134.183 245.25C131.446 246.917 128.767 248.546 126.531 249.825C125.413 250.464 124.407 251.015 123.56 251.438C122.807 251.816 122.186 252.089 121.728 252.236L121.697 194.492C122.637 194.589 123.851 195.148 125.09 195.842C125.737 196.204 126.384 196.599 126.996 196.978C127.115 197.052 127.232 197.125 127.348 197.196C127.828 197.494 128.281 197.775 128.685 198.012C128.685 198.012 128.685 198.012 128.685 198.012L148.063 209.354L148.095 237.34Z" fill="#779EB4" fill-opacity="0.9" stroke="url(#paint4_linear_4262_2115)" stroke-width="0.260906"/>
<path fill-rule="evenodd" clip-rule="evenodd" d="M121.597 252.411C118.109 251.196 97.9176 238.107 94.8359 237.493L94.9179 311.847C96.7068 311.439 120.275 297.62 121.605 296.534L121.597 252.411Z" fill="url(#paint5_linear_4262_2115)" fill-opacity="0.9"/>
<path fill-rule="evenodd" clip-rule="evenodd" d="M174.729 252.468C177.045 251.873 184.784 246.939 188.054 245.027C190.502 243.597 199.528 238.022 201.472 237.576L201.487 187.002C200.703 185.112 197.248 183.782 195.223 182.598C192.985 181.29 190.787 180.089 188.43 178.706C185.432 176.947 176.948 171.556 174.75 171.146L174.729 252.468Z" fill="#779EB4" fill-opacity="0.9"/>
<path d="M174.859 252.296L174.88 171.309C175.425 171.448 176.285 171.831 177.334 172.369C178.482 172.958 179.84 173.724 181.224 174.533C182.609 175.342 184.018 176.193 185.269 176.952C185.494 177.088 185.714 177.222 185.927 177.352C186.902 177.943 187.748 178.458 188.364 178.819L188.364 178.819C189.543 179.511 190.683 180.157 191.807 180.794L191.951 180.875C193.026 181.484 194.087 182.085 195.157 182.711C195.634 182.99 196.189 183.276 196.766 183.574C196.806 183.594 196.846 183.615 196.886 183.636C197.507 183.957 198.15 184.291 198.754 184.647C199.358 185.004 199.919 185.38 200.376 185.781C200.826 186.176 201.169 186.59 201.357 187.028L201.341 237.475C201.094 237.544 200.767 237.673 200.384 237.847C199.943 238.046 199.419 238.307 198.839 238.612C197.679 239.221 196.29 240.005 194.886 240.82C193.117 241.846 191.316 242.926 189.922 243.762C189.11 244.249 188.436 244.653 187.988 244.914C187.237 245.354 186.25 245.952 185.148 246.621L184.851 246.801C183.629 247.542 182.283 248.356 180.968 249.129C179.652 249.902 178.367 250.633 177.268 251.208C176.265 251.731 175.426 252.12 174.859 252.296Z" stroke="url(#paint6_linear_4262_2115)" stroke-opacity="0.7" stroke-width="0.260906"/>
<path fill-rule="evenodd" clip-rule="evenodd" d="M174.728 252.468C170.194 250.166 165.778 247.275 161.475 244.819C159.314 243.586 157.179 242.408 155.034 241.132C152.906 239.864 150.533 238.227 148.188 237.375L148.189 326.908C149.747 326.397 173.317 312.937 174.527 311.705C175.229 309.29 175.187 258.164 174.728 252.468Z" fill="url(#paint7_linear_4262_2115)" fill-opacity="0.9"/>
<g filter="url(#filter3_f_4262_2115)">
<circle cx="250.336" cy="349.559" r="42.2669" fill="#3C63C9" fill-opacity="0.6"/>
</g>
<g filter="url(#filter4_f_4262_2115)">
<circle cx="176.238" cy="171.36" r="2.60907" fill="white"/>
</g>
<g filter="url(#filter5_f_4262_2115)">
<circle cx="179.369" cy="176.317" r="16.1762" fill="white" fill-opacity="0.3"/>
</g>
<g filter="url(#filter6_f_4262_2115)">
<circle cx="123.274" cy="196.146" r="7.04448" fill="white" fill-opacity="0.3"/>
</g>
<g filter="url(#filter7_f_4262_2115)">
<circle cx="123.275" cy="195.103" r="2.60907" fill="white"/>
</g>
<defs>
<filter id="filter0_f_4262_2115" x="154.062" y="48.995" width="232.729" height="232.729" filterUnits="userSpaceOnUse" color-interpolation-filters="sRGB">
<feFlood flood-opacity="0" result="BackgroundImageFix"/>
<feBlend mode="normal" in="SourceGraphic" in2="BackgroundImageFix" result="shape"/>
<feGaussianBlur stdDeviation="37.0487" result="effect1_foregroundBlur_4262_2115"/>
</filter>
<filter id="filter1_f_4262_2115" x="77.3555" y="0.466301" width="313.871" height="253.601" filterUnits="userSpaceOnUse" color-interpolation-filters="sRGB">
<feFlood flood-opacity="0" result="BackgroundImageFix"/>
<feBlend mode="normal" in="SourceGraphic" in2="BackgroundImageFix" result="shape"/>
<feGaussianBlur stdDeviation="42.2668" result="effect1_foregroundBlur_4262_2115"/>
</filter>
<filter id="filter2_d_4262_2115" x="0.909351" y="110.047" width="315.436" height="315.436" filterUnits="userSpaceOnUse" color-interpolation-filters="sRGB">
<feFlood flood-opacity="0" result="BackgroundImageFix"/>
<feColorMatrix in="SourceAlpha" type="matrix" values="0 0 0 0 0 0 0 0 0 0 0 0 0 0 0 0 0 0 127 0" result="hardAlpha"/>
<feOffset dy="13.0453"/>
<feGaussianBlur stdDeviation="13.0453"/>
<feComposite in2="hardAlpha" operator="out"/>
<feColorMatrix type="matrix" values="0 0 0 0 0 0 0 0 0 0 0 0 0 0 0 0 0 0 0.55 0"/>
<feBlend mode="normal" in2="BackgroundImageFix" result="effect1_dropShadow_4262_2115"/>
<feBlend mode="normal" in="SourceGraphic" in2="effect1_dropShadow_4262_2115" result="shape"/>
</filter>
<filter id="filter3_f_4262_2115" x="154.844" y="254.067" width="190.984" height="190.984" filterUnits="userSpaceOnUse" color-interpolation-filters="sRGB">
<feFlood flood-opacity="0" result="BackgroundImageFix"/>
<feBlend mode="normal" in="SourceGraphic" in2="BackgroundImageFix" result="shape"/>
<feGaussianBlur stdDeviation="26.6125" result="effect1_foregroundBlur_4262_2115"/>
</filter>
<filter id="filter4_f_4262_2115" x="171.281" y="166.403" width="9.91458" height="9.91446" filterUnits="userSpaceOnUse" color-interpolation-filters="sRGB">
<feFlood flood-opacity="0" result="BackgroundImageFix"/>
<feBlend mode="normal" in="SourceGraphic" in2="BackgroundImageFix" result="shape"/>
<feGaussianBlur stdDeviation="1.17408" result="effect1_foregroundBlur_4262_2115"/>
</filter>
<filter id="filter5_f_4262_2115" x="148.814" y="145.762" width="61.1102" height="61.1101" filterUnits="userSpaceOnUse" color-interpolation-filters="sRGB">
<feFlood flood-opacity="0" result="BackgroundImageFix"/>
<feBlend mode="normal" in="SourceGraphic" in2="BackgroundImageFix" result="shape"/>
<feGaussianBlur stdDeviation="7.18942" result="effect1_foregroundBlur_4262_2115"/>
</filter>
<filter id="filter6_f_4262_2115" x="109.968" y="182.84" width="26.6124" height="26.6124" filterUnits="userSpaceOnUse" color-interpolation-filters="sRGB">
<feFlood flood-opacity="0" result="BackgroundImageFix"/>
<feBlend mode="normal" in="SourceGraphic" in2="BackgroundImageFix" result="shape"/>
<feGaussianBlur stdDeviation="3.13088" result="effect1_foregroundBlur_4262_2115"/>
</filter>
<filter id="filter7_f_4262_2115" x="118.317" y="190.145" width="9.91458" height="9.91446" filterUnits="userSpaceOnUse" color-interpolation-filters="sRGB">
<feFlood flood-opacity="0" result="BackgroundImageFix"/>
<feBlend mode="normal" in="SourceGraphic" in2="BackgroundImageFix" result="shape"/>
<feGaussianBlur stdDeviation="1.17408" result="effect1_foregroundBlur_4262_2115"/>
</filter>
<linearGradient id="paint0_linear_4262_2115" x1="255.815" y1="123.092" x2="103.446" y2="254.85" gradientUnits="userSpaceOnUse">
<stop stop-color="#79AEE7"/>
<stop offset="0.331593" stop-color="#4960A7"/>
<stop offset="1" stop-color="#101012"/>
</linearGradient>
<linearGradient id="paint1_linear_4262_2115" x1="258.685" y1="135.225" x2="73.8327" y2="316.946" gradientUnits="userSpaceOnUse">
<stop stop-color="#EBF8FC"/>
<stop offset="0.295134" stop-color="#7FB8EF"/>
<stop offset="0.57639" stop-color="#425EF1"/>
<stop offset="1" stop-color="#1D1D29"/>
</linearGradient>
<linearGradient id="paint2_linear_4262_2115" x1="234.16" y1="166.142" x2="141.277" y2="299.204" gradientUnits="userSpaceOnUse">
<stop stop-color="#3B4F75"/>
<stop offset="0.529514" stop-color="#1B253E"/>
<stop offset="1" stop-color="#101012"/>
</linearGradient>
<linearGradient id="paint3_linear_4262_2115" x1="214.8" y1="237.576" x2="214.8" y2="281.757" gradientUnits="userSpaceOnUse">
<stop stop-color="#779EB4"/>
<stop offset="1" stop-color="#34444E" stop-opacity="0"/>
</linearGradient>
<linearGradient id="paint4_linear_4262_2115" x1="134.896" y1="194.351" x2="134.896" y2="252.411" gradientUnits="userSpaceOnUse">
<stop stop-color="white"/>
<stop offset="1" stop-color="white" stop-opacity="0"/>
</linearGradient>
<linearGradient id="paint5_linear_4262_2115" x1="108.22" y1="237.493" x2="108.22" y2="311.847" gradientUnits="userSpaceOnUse">
<stop stop-color="#779EB4"/>
<stop offset="1" stop-color="#34444E" stop-opacity="0"/>
</linearGradient>
<linearGradient id="paint6_linear_4262_2115" x1="188.108" y1="171.146" x2="188.108" y2="252.468" gradientUnits="userSpaceOnUse">
<stop stop-color="white"/>
<stop offset="1" stop-color="white" stop-opacity="0"/>
</linearGradient>
<linearGradient id="paint7_linear_4262_2115" x1="161.628" y1="256.763" x2="161.626" y2="326.908" gradientUnits="userSpaceOnUse">
<stop stop-color="#779EB4"/>
<stop offset="1" stop-color="#34444E" stop-opacity="0"/>
</linearGradient>
</defs>
</svg>
