<svg width="24" height="24" viewBox="0 0 24 24" fill="none" xmlns="http://www.w3.org/2000/svg">
<circle cx="7.50004" cy="6.5" r="3.5" transform="rotate(-45 7.50004 6.5)" fill="url(#paint0_linear_4262_2446)"/>
<g filter="url(#filter0_bi_4262_2446)">
<path d="M17.6 6.17707C17.6 6.30792 17.6518 6.43306 17.741 6.52883C18.4236 7.26204 18.9691 8.12467 19.3365 9.07588C19.4699 9.42147 19.7921 9.66673 20.1626 9.66673C20.6251 9.66673 21 10.0416 21 10.5041V13.2001C21 13.7523 20.5523 14.2001 20 14.2001H19.911C19.6898 14.2001 19.4964 14.346 19.4234 14.5548C19.3434 14.7833 19.2532 15.007 19.1535 15.2255C19.0481 15.4563 19.0187 15.7165 19.0874 15.9608L19.5498 17.606C19.7455 18.3023 19.55 19.05 19.0386 19.5614L19.0142 19.5858C18.2332 20.3669 16.9668 20.3669 16.1858 19.5858L16.0981 19.4982C15.7899 19.19 15.3198 19.123 14.916 19.287C13.9952 19.6608 12.9883 19.8667 11.9333 19.8667C10.8784 19.8667 9.87148 19.6608 8.9507 19.287C8.54685 19.123 8.07677 19.19 7.76856 19.4982L7.68088 19.5858C6.89983 20.3669 5.6335 20.3669 4.85245 19.5858L4.82805 19.5614C4.31662 19.05 4.12116 18.3023 4.31687 17.606L4.7793 15.9608C4.84798 15.7165 4.81861 15.4563 4.71318 15.2255C4.2552 14.2227 4 13.1078 4 11.9334C4 7.55193 7.55187 4.00006 11.9333 4.00006C12.5442 4.00006 13.1389 4.0691 13.7102 4.19981C13.8019 4.2208 13.8977 4.21762 13.9871 4.18821L16.2876 3.43163C16.9344 3.21891 17.6 3.7007 17.6 4.38157V6.17707Z" fill="#F1F1F1" fill-opacity="0.1"/>
<path d="M17.6 6.17707C17.6 6.30792 17.6518 6.43306 17.741 6.52883C18.4236 7.26204 18.9691 8.12467 19.3365 9.07588C19.4699 9.42147 19.7921 9.66673 20.1626 9.66673C20.6251 9.66673 21 10.0416 21 10.5041V13.2001C21 13.7523 20.5523 14.2001 20 14.2001H19.911C19.6898 14.2001 19.4964 14.346 19.4234 14.5548C19.3434 14.7833 19.2532 15.007 19.1535 15.2255C19.0481 15.4563 19.0187 15.7165 19.0874 15.9608L19.5498 17.606C19.7455 18.3023 19.55 19.05 19.0386 19.5614L19.0142 19.5858C18.2332 20.3669 16.9668 20.3669 16.1858 19.5858L16.0981 19.4982C15.7899 19.19 15.3198 19.123 14.916 19.287C13.9952 19.6608 12.9883 19.8667 11.9333 19.8667C10.8784 19.8667 9.87148 19.6608 8.9507 19.287C8.54685 19.123 8.07677 19.19 7.76856 19.4982L7.68088 19.5858C6.89983 20.3669 5.6335 20.3669 4.85245 19.5858L4.82805 19.5614C4.31662 19.05 4.12116 18.3023 4.31687 17.606L4.7793 15.9608C4.84798 15.7165 4.81861 15.4563 4.71318 15.2255C4.2552 14.2227 4 13.1078 4 11.9334C4 7.55193 7.55187 4.00006 11.9333 4.00006C12.5442 4.00006 13.1389 4.0691 13.7102 4.19981C13.8019 4.2208 13.8977 4.21762 13.9871 4.18821L16.2876 3.43163C16.9344 3.21891 17.6 3.7007 17.6 4.38157V6.17707Z" fill="url(#paint1_linear_4262_2446)" fill-opacity="0.2"/>
<path d="M17.5 6.17707C17.5 6.33454 17.5623 6.48369 17.6678 6.59697C18.3419 7.32101 18.8804 8.17278 19.2432 9.11191C19.3899 9.4917 19.7463 9.76673 20.1626 9.76673C20.5699 9.76673 20.9 10.0969 20.9 10.5041V13.2001C20.9 13.6971 20.4971 14.1001 20 14.1001H19.911C19.6446 14.1001 19.4152 14.2755 19.329 14.5218C19.25 14.7474 19.161 14.9683 19.0625 15.1839C18.9484 15.4339 18.9153 15.7183 18.9911 15.9879L19.4535 17.6331C19.6394 18.2946 19.4538 19.0049 18.9679 19.4907L18.9435 19.5151C18.2015 20.2571 16.9985 20.2571 16.2565 19.5151L16.1688 19.4275C15.8285 19.0872 15.3144 19.0173 14.8783 19.1943C13.9693 19.5634 12.9752 19.7667 11.9333 19.7667C10.8915 19.7667 9.89736 19.5634 8.98832 19.1943C8.55225 19.0173 8.03813 19.0872 7.69785 19.4275L7.61017 19.5151C6.86817 20.2571 5.66516 20.2571 4.92316 19.5151L4.89876 19.4907C4.4129 19.0049 4.22722 18.2946 4.41314 17.6331L4.87557 15.9879C4.95134 15.7183 4.91829 15.4339 4.80414 15.1839C4.352 14.1939 4.1 13.0932 4.1 11.9334C4.1 7.60716 7.6071 4.10006 11.9333 4.10006C12.5366 4.10006 13.1239 4.16825 13.6879 4.29729C13.7964 4.32213 13.9108 4.31859 14.0183 4.28321L16.3188 3.52662C16.9009 3.33518 17.5 3.76879 17.5 4.38157V6.17707Z" stroke="url(#paint2_linear_4262_2446)" stroke-opacity="0.1" stroke-width="0.2"/>
</g>
<g filter="url(#filter1_i_4262_2446)">
<circle cx="15.5" cy="10.5" r="1.5" fill="white" fill-opacity="0.1"/>
</g>
<defs>
<filter id="filter0_bi_4262_2446" x="1" y="0.380859" width="23" height="22.7908" filterUnits="userSpaceOnUse" color-interpolation-filters="sRGB">
<feFlood flood-opacity="0" result="BackgroundImageFix"/>
<feGaussianBlur in="BackgroundImageFix" stdDeviation="1.5"/>
<feComposite in2="SourceAlpha" operator="in" result="effect1_backgroundBlur_4262_2446"/>
<feBlend mode="normal" in="SourceGraphic" in2="effect1_backgroundBlur_4262_2446" result="shape"/>
<feColorMatrix in="SourceAlpha" type="matrix" values="0 0 0 0 0 0 0 0 0 0 0 0 0 0 0 0 0 0 127 0" result="hardAlpha"/>
<feOffset dy="0.5"/>
<feGaussianBlur stdDeviation="1"/>
<feComposite in2="hardAlpha" operator="arithmetic" k2="-1" k3="1"/>
<feColorMatrix type="matrix" values="0 0 0 0 1 0 0 0 0 1 0 0 0 0 1 0 0 0 0.15 0"/>
<feBlend mode="normal" in2="shape" result="effect2_innerShadow_4262_2446"/>
</filter>
<filter id="filter1_i_4262_2446" x="14" y="9" width="3" height="3.5" filterUnits="userSpaceOnUse" color-interpolation-filters="sRGB">
<feFlood flood-opacity="0" result="BackgroundImageFix"/>
<feBlend mode="normal" in="SourceGraphic" in2="BackgroundImageFix" result="shape"/>
<feColorMatrix in="SourceAlpha" type="matrix" values="0 0 0 0 0 0 0 0 0 0 0 0 0 0 0 0 0 0 127 0" result="hardAlpha"/>
<feOffset dy="0.5"/>
<feGaussianBlur stdDeviation="0.25"/>
<feComposite in2="hardAlpha" operator="arithmetic" k2="-1" k3="1"/>
<feColorMatrix type="matrix" values="0 0 0 0 1 0 0 0 0 1 0 0 0 0 1 0 0 0 0.1 0"/>
<feBlend mode="normal" in2="shape" result="effect1_innerShadow_4262_2446"/>
</filter>
<linearGradient id="paint0_linear_4262_2446" x1="7.50004" y1="3" x2="7.50004" y2="10" gradientUnits="userSpaceOnUse">
<stop stop-color="#AAC1ED"/>
<stop offset="1" stop-color="#5374B6"/>
</linearGradient>
<linearGradient id="paint1_linear_4262_2446" x1="4" y1="3" x2="24.1574" y2="7.83396" gradientUnits="userSpaceOnUse">
<stop stop-color="#82E8FF"/>
<stop offset="1" stop-color="#379FFF"/>
</linearGradient>
<linearGradient id="paint2_linear_4262_2446" x1="4.53125" y1="3.81818" x2="21" y2="3.81818" gradientUnits="userSpaceOnUse">
<stop stop-color="#7EE5FF"/>
<stop offset="1" stop-color="#41A9FF"/>
</linearGradient>
</defs>
</svg>
