<svg width="52" height="52" viewBox="0 0 52 52" fill="none" xmlns="http://www.w3.org/2000/svg">
<circle cx="26" cy="26" r="13" fill="url(#paint0_linear_4262_2176)"/>
<g filter="url(#filter0_bi_4262_2176)">
<path d="M9.85108 29.3451L30.4059 4.67936C30.9752 3.99622 32.0812 4.51114 31.9249 5.38654L29.0951 21.2333H41.4828C42.2176 21.2333 42.619 22.0903 42.1486 22.6548L21.9196 46.9295C21.3303 47.6367 20.1905 47.0587 20.4129 46.1654L24.2459 30.7666H10.5169C9.78208 30.7666 9.38068 29.9096 9.85108 29.3451Z" fill="#F1F1F1" fill-opacity="0.1"/>
<path d="M9.85108 29.3451L30.4059 4.67936C30.9752 3.99622 32.0812 4.51114 31.9249 5.38654L29.0951 21.2333H41.4828C42.2176 21.2333 42.619 22.0903 42.1486 22.6548L21.9196 46.9295C21.3303 47.6367 20.1905 47.0587 20.4129 46.1654L24.2459 30.7666H10.5169C9.78208 30.7666 9.38068 29.9096 9.85108 29.3451Z" fill="url(#paint1_linear_4262_2176)" fill-opacity="0.2"/>
<path d="M28.8818 21.1952L28.8363 21.45H29.0951H41.4828C42.0339 21.45 42.3349 22.0927 41.9821 22.5161L21.7532 46.7908C21.3112 47.3212 20.4563 46.8877 20.6231 46.2177L24.4561 30.819L24.5231 30.55H24.2459H10.5169C9.96578 30.55 9.66473 29.9072 10.0175 29.4838L30.5723 4.81807C30.9993 4.30571 31.8288 4.6919 31.7116 5.34845L28.8818 21.1952Z" stroke="url(#paint2_linear_4262_2176)" stroke-opacity="0.1" stroke-width="0.433333"/>
</g>
<defs>
<filter id="filter0_bi_4262_2176" x="6.64844" y="1.36414" width="38.7026" height="48.8815" filterUnits="userSpaceOnUse" color-interpolation-filters="sRGB">
<feFlood flood-opacity="0" result="BackgroundImageFix"/>
<feGaussianBlur in="BackgroundImageFix" stdDeviation="1.5"/>
<feComposite in2="SourceAlpha" operator="in" result="effect1_backgroundBlur_4262_2176"/>
<feBlend mode="normal" in="SourceGraphic" in2="effect1_backgroundBlur_4262_2176" result="shape"/>
<feColorMatrix in="SourceAlpha" type="matrix" values="0 0 0 0 0 0 0 0 0 0 0 0 0 0 0 0 0 0 127 0" result="hardAlpha"/>
<feOffset dy="0.5"/>
<feGaussianBlur stdDeviation="1"/>
<feComposite in2="hardAlpha" operator="arithmetic" k2="-1" k3="1"/>
<feColorMatrix type="matrix" values="0 0 0 0 1 0 0 0 0 1 0 0 0 0 1 0 0 0 0.15 0"/>
<feBlend mode="normal" in2="shape" result="effect2_innerShadow_4262_2176"/>
</filter>
<linearGradient id="paint0_linear_4262_2176" x1="26" y1="13" x2="26" y2="39" gradientUnits="userSpaceOnUse">
<stop stop-color="#AAC1ED"/>
<stop offset="1" stop-color="#5374B6"/>
</linearGradient>
<linearGradient id="paint1_linear_4262_2176" x1="8.6665" y1="2.16663" x2="50.7022" y2="9.92927" gradientUnits="userSpaceOnUse">
<stop stop-color="#82E8FF"/>
<stop offset="1" stop-color="#379FFF"/>
</linearGradient>
<linearGradient id="paint2_linear_4262_2176" x1="9.74984" y1="4.33329" x2="43.3332" y2="4.33329" gradientUnits="userSpaceOnUse">
<stop stop-color="#7EE5FF"/>
<stop offset="1" stop-color="#41A9FF"/>
</linearGradient>
</defs>
</svg>
