<svg width="829" height="837" viewBox="0 0 829 837" fill="none" xmlns="http://www.w3.org/2000/svg">
<g filter="url(#filter0_f_4262_2188)">
<ellipse cx="414.914" cy="418.5" rx="161.017" ry="164.5" fill="#4F89FF" fill-opacity="0.3"/>
</g>
<path d="M425.653 535.717C422.212 535.717 419.081 534.928 416.261 533.351C413.441 531.726 411.194 529.455 409.521 526.539C407.896 523.576 407.083 520.206 407.083 516.43C407.083 512.462 407.944 509.021 409.664 506.105C411.433 503.189 413.727 500.99 416.548 499.508C419.368 497.979 422.403 497.214 425.653 497.214C428.378 497.214 430.864 497.692 433.11 498.648C435.357 499.556 437.126 500.847 438.416 502.52C439.755 504.193 440.424 506.081 440.424 508.184C440.424 509.762 440.017 510.98 439.205 511.841C438.392 512.653 437.317 513.06 435.978 513.06C434.688 513.06 433.612 512.63 432.752 511.769C431.891 510.909 431.461 509.833 431.461 508.543C432.178 508.065 432.68 507.539 432.967 506.965C433.254 506.392 433.397 505.675 433.397 504.814C433.397 503.046 432.68 501.612 431.246 500.512C429.86 499.365 427.996 498.791 425.653 498.791C422.212 498.791 419.559 500.034 417.695 502.52C415.878 504.958 414.97 508.399 414.97 512.845V520.015C414.97 524.269 415.854 527.687 417.623 530.268C419.439 532.849 422.116 534.14 425.653 534.14C428.904 534.14 431.724 533.231 434.114 531.415C436.552 529.551 438.058 527.113 438.631 524.102H440.28C439.611 527.639 437.938 530.459 435.261 532.562C432.632 534.665 429.43 535.717 425.653 535.717ZM444.645 535V533.566L450.023 532.849V479.791L444.645 479.074V477.64H457.193V532.849L462.212 533.566V535H444.645ZM473.335 489.542C471.996 489.542 470.849 489.088 469.893 488.18C468.937 487.224 468.459 486.077 468.459 484.738C468.459 483.4 468.913 482.276 469.821 481.368C470.777 480.46 471.948 480.006 473.335 480.006C474.625 480.006 475.725 480.46 476.633 481.368C477.541 482.276 477.995 483.4 477.995 484.738C477.995 486.077 477.541 487.224 476.633 488.18C475.725 489.088 474.625 489.542 473.335 489.542ZM465.734 535V533.566L470.753 532.849V500.082L465.734 499.365V497.931H477.923V532.849L482.943 533.566V535H465.734ZM506.465 535.717C502.927 535.717 499.725 534.928 496.857 533.351C493.989 531.726 491.718 529.455 490.045 526.539C488.372 523.624 487.536 520.254 487.536 516.43C487.536 512.606 488.348 509.26 489.974 506.392C491.647 503.476 493.869 501.229 496.642 499.652C499.462 498.027 502.593 497.214 506.034 497.214C509.046 497.214 511.747 497.883 514.137 499.222C516.527 500.56 518.391 502.424 519.729 504.814C521.068 507.156 521.761 509.857 521.809 512.916H495.423V520.015C495.423 524.221 496.355 527.639 498.219 530.268C500.131 532.849 502.88 534.14 506.465 534.14C509.763 534.14 512.679 533.207 515.212 531.343C517.746 529.479 519.299 527.065 519.873 524.102H521.522C520.853 527.639 519.156 530.459 516.431 532.562C513.706 534.665 510.384 535.717 506.465 535.717ZM513.921 511.124C513.921 506.965 513.276 503.882 511.986 501.874C510.695 499.819 508.687 498.791 505.963 498.791C502.76 498.791 500.275 499.915 498.506 502.161C496.737 504.408 495.734 507.395 495.495 511.124H513.921ZM526.58 533.566L531.599 532.849V500.01L526.58 499.293V497.859H538.769V505.603C540.538 503.022 542.617 500.99 545.007 499.508C547.397 497.979 549.978 497.214 552.751 497.214C556.192 497.214 558.893 498.074 560.853 499.795C562.86 501.516 563.864 504.073 563.864 507.467V532.849L568.883 533.566V535H552.392V533.566L556.694 532.849V507.611C556.694 505.125 556.192 503.213 555.188 501.874C554.185 500.488 552.631 499.795 550.528 499.795C548.329 499.795 546.202 500.608 544.146 502.233C542.139 503.81 540.346 505.77 538.769 508.112V532.849L543.071 533.566V535H526.58V533.566ZM586.935 535.717C583.78 535.717 581.247 534.928 579.335 533.351C577.47 531.773 576.538 529.264 576.538 525.822V500.01L571.447 499.293V497.859H576.538V491.908L583.708 490.116V497.859H593.029V499.293L583.708 500.01V525.679C583.708 530.746 585.525 533.279 589.157 533.279C589.922 533.279 590.639 533.16 591.308 532.921C592.025 532.682 592.575 532.443 592.958 532.204C593.388 531.965 593.651 531.797 593.746 531.702L594.678 532.849C592.527 534.761 589.946 535.717 586.935 535.717ZM610.822 535.717C606.902 535.717 603.628 534.88 600.999 533.207C598.37 531.534 597.055 529.36 597.055 526.683C597.055 525.297 597.414 524.221 598.131 523.456C598.895 522.644 599.899 522.237 601.142 522.237C602.098 522.237 602.911 522.476 603.58 522.954C604.249 523.432 604.727 524.102 605.014 524.962C603.962 526.109 603.436 527.328 603.436 528.619C603.436 530.1 604.106 531.391 605.444 532.49C606.782 533.59 608.575 534.14 610.822 534.14C613.833 534.14 616.295 533.47 618.207 532.132C620.119 530.746 621.075 528.905 621.075 526.611C621.075 525.273 620.668 524.269 619.856 523.6C619.043 522.93 617.466 522.166 615.124 521.305L604.297 517.362C600.043 515.832 597.916 512.988 597.916 508.829C597.916 505.436 599.087 502.663 601.429 500.512C603.771 498.313 606.998 497.214 611.108 497.214C614.502 497.214 617.394 498.003 619.784 499.58C622.222 501.11 623.441 503.308 623.441 506.177C623.441 507.324 623.13 508.256 622.509 508.973C621.887 509.642 621.075 509.977 620.071 509.977C619.067 509.977 618.231 509.714 617.561 509.188C616.94 508.614 616.629 507.85 616.629 506.894C617.251 506.416 617.681 505.914 617.92 505.388C618.159 504.814 618.278 504.145 618.278 503.38C618.278 502.042 617.681 500.942 616.486 500.082C615.339 499.222 613.546 498.791 611.108 498.791C609.005 498.791 607.189 499.126 605.659 499.795C604.177 500.417 603.054 501.253 602.289 502.305C601.524 503.356 601.142 504.432 601.142 505.531C601.142 506.678 601.548 507.587 602.361 508.256C603.221 508.925 604.775 509.666 607.021 510.479L617.059 514.064C619.402 514.924 621.17 516.119 622.365 517.649C623.56 519.178 624.158 521.162 624.158 523.6C624.158 527.089 623.058 529.981 620.86 532.275C618.661 534.57 615.315 535.717 610.822 535.717Z" fill="url(#paint0_linear_4262_2188)"/>
<g filter="url(#filter1_bi_4262_2188)">
<path d="M480 507.778V503.333L495.556 501.111V336.667L480 334.444V330H517.778V444L568.667 402.222L549.333 397.111V392.667H591.111V397.111L576.889 402.222L540 432.444L592 501.333L604 503.333V507.778H552V503.333L565.333 501.111L523.556 446L517.778 450.889V501.111L531.111 503.333V507.778H480Z" fill="url(#paint1_linear_4262_2188)" fill-opacity="0.2"/>
<path d="M480 507.778V503.333L495.556 501.111V336.667L480 334.444V330H517.778V444L568.667 402.222L549.333 397.111V392.667H591.111V397.111L576.889 402.222L540 432.444L592 501.333L604 503.333V507.778H552V503.333L565.333 501.111L523.556 446L517.778 450.889V501.111L531.111 503.333V507.778H480Z" fill="white" fill-opacity="0.1"/>
<path d="M480.404 334.094V330.404H517.374V444V444.853L518.034 444.312L568.923 402.534L569.532 402.034L568.77 401.832L549.737 396.8V393.07H590.708V396.827L576.752 401.842L576.687 401.866L576.633 401.91L539.744 432.132L539.444 432.378L539.678 432.688L591.678 501.576L591.775 501.705L591.934 501.731L603.596 503.675V507.374H552.404V503.675L565.4 501.509L566.058 501.399L565.655 500.867L523.877 445.756L523.62 445.417L523.295 445.692L517.517 450.581L517.374 450.702V450.889V501.111V501.453L517.711 501.509L530.708 503.675V507.374H480.404V503.683L495.613 501.511L495.959 501.461V501.111V336.667V336.317L495.613 336.267L480.404 334.094Z" stroke="url(#paint2_linear_4262_2188)" stroke-opacity="0.1" stroke-width="0.807024"/>
</g>
<g filter="url(#filter2_bi_4262_2188)">
<path d="M321.923 513.219C311.65 513.219 302.205 511.23 293.589 507.254C285.138 503.277 278.427 497.892 273.456 491.098C268.485 484.304 266 476.682 266 468.232C266 461.438 267.906 456.136 271.717 452.325C275.528 448.348 280.084 446.36 285.387 446.36C290.358 446.36 294.666 447.934 298.311 451.082C301.956 454.23 303.779 458.787 303.779 464.752C294.997 469.06 290.606 475.688 290.606 484.636C290.606 491.429 293.423 496.98 299.057 501.289C304.856 505.431 312.478 507.502 321.923 507.502C333.853 507.502 343.547 503.028 351.003 494.081C358.46 485.133 362.188 472.623 362.188 456.55C362.188 439.152 357.217 425.73 347.275 416.285C337.333 406.675 322.669 401.29 303.282 400.13V394.662C320.68 393.668 334.185 389.028 343.795 380.743C353.571 372.293 358.46 360.942 358.46 346.692C358.46 335.59 355.394 326.726 349.263 320.098C343.298 313.47 335.262 310.156 325.154 310.156C316.041 310.156 308.833 311.73 303.531 314.878C298.394 317.861 295.826 322.086 295.826 327.554C295.826 336.336 299.968 342.633 308.253 346.444C308.253 352.077 306.513 356.468 303.034 359.617C299.72 362.599 295.66 364.091 290.855 364.091C285.884 364.091 281.576 362.185 277.93 358.374C274.285 354.563 272.462 349.509 272.462 343.213C272.462 335.756 275.031 329.128 280.167 323.329C285.304 317.364 292.097 312.724 300.548 309.41C309.164 306.096 318.278 304.439 327.888 304.439C346.778 304.439 361.525 308.25 372.13 315.872C382.734 323.494 388.037 334.182 388.037 347.935C388.037 362.351 382.817 373.535 372.378 381.489C362.105 389.277 347.109 394.496 327.391 397.147V397.893C348.103 398.887 364.756 404.438 377.349 414.546C390.108 424.487 396.487 438.489 396.487 456.55C396.487 466.658 393.67 476.02 388.037 484.636C382.569 493.252 374.201 500.211 362.933 505.514C351.832 510.65 338.161 513.219 321.923 513.219Z" fill="white" fill-opacity="0.1"/>
<path d="M321.923 513.219C311.65 513.219 302.205 511.23 293.589 507.254C285.138 503.277 278.427 497.892 273.456 491.098C268.485 484.304 266 476.682 266 468.232C266 461.438 267.906 456.136 271.717 452.325C275.528 448.348 280.084 446.36 285.387 446.36C290.358 446.36 294.666 447.934 298.311 451.082C301.956 454.23 303.779 458.787 303.779 464.752C294.997 469.06 290.606 475.688 290.606 484.636C290.606 491.429 293.423 496.98 299.057 501.289C304.856 505.431 312.478 507.502 321.923 507.502C333.853 507.502 343.547 503.028 351.003 494.081C358.46 485.133 362.188 472.623 362.188 456.55C362.188 439.152 357.217 425.73 347.275 416.285C337.333 406.675 322.669 401.29 303.282 400.13V394.662C320.68 393.668 334.185 389.028 343.795 380.743C353.571 372.293 358.46 360.942 358.46 346.692C358.46 335.59 355.394 326.726 349.263 320.098C343.298 313.47 335.262 310.156 325.154 310.156C316.041 310.156 308.833 311.73 303.531 314.878C298.394 317.861 295.826 322.086 295.826 327.554C295.826 336.336 299.968 342.633 308.253 346.444C308.253 352.077 306.513 356.468 303.034 359.617C299.72 362.599 295.66 364.091 290.855 364.091C285.884 364.091 281.576 362.185 277.93 358.374C274.285 354.563 272.462 349.509 272.462 343.213C272.462 335.756 275.031 329.128 280.167 323.329C285.304 317.364 292.097 312.724 300.548 309.41C309.164 306.096 318.278 304.439 327.888 304.439C346.778 304.439 361.525 308.25 372.13 315.872C382.734 323.494 388.037 334.182 388.037 347.935C388.037 362.351 382.817 373.535 372.378 381.489C362.105 389.277 347.109 394.496 327.391 397.147V397.893C348.103 398.887 364.756 404.438 377.349 414.546C390.108 424.487 396.487 438.489 396.487 456.55C396.487 466.658 393.67 476.02 388.037 484.636C382.569 493.252 374.201 500.211 362.933 505.514C351.832 510.65 338.161 513.219 321.923 513.219Z" fill="url(#paint3_linear_4262_2188)" fill-opacity="0.2"/>
<path d="M431.814 508.248C432.974 495.986 435.294 484.387 438.773 473.451C442.419 462.515 446.478 452.573 450.952 443.626C455.592 434.678 461.64 423.576 469.096 410.32C477.878 394.91 484.92 381.82 490.223 371.05C495.525 360.114 499.999 348.183 503.644 335.259H420.381L413.67 364.836H407.208V309.41H516.32C514.332 326.477 511.266 342.55 507.124 357.628C502.982 372.541 497.348 390.602 490.223 411.812C483.098 432.192 477.547 449.508 473.57 463.758C469.759 477.842 467.191 492.672 465.865 508.248H431.814Z" fill="white" fill-opacity="0.1"/>
<path d="M431.814 508.248C432.974 495.986 435.294 484.387 438.773 473.451C442.419 462.515 446.478 452.573 450.952 443.626C455.592 434.678 461.64 423.576 469.096 410.32C477.878 394.91 484.92 381.82 490.223 371.05C495.525 360.114 499.999 348.183 503.644 335.259H420.381L413.67 364.836H407.208V309.41H516.32C514.332 326.477 511.266 342.55 507.124 357.628C502.982 372.541 497.348 390.602 490.223 411.812C483.098 432.192 477.547 449.508 473.57 463.758C469.759 477.842 467.191 492.672 465.865 508.248H431.814Z" fill="url(#paint4_linear_4262_2188)" fill-opacity="0.2"/>
<path d="M271.92 452.528L271.924 452.523C275.683 448.601 280.166 446.647 285.387 446.647C290.291 446.647 294.532 448.198 298.123 451.299C301.655 454.349 303.456 458.759 303.491 464.574C299.145 466.733 295.862 469.471 293.66 472.796C291.43 476.162 290.319 480.113 290.319 484.636C290.319 491.523 293.181 497.157 298.882 501.517L298.882 501.517L298.89 501.522C304.752 505.709 312.438 507.789 321.923 507.789C333.936 507.789 343.711 503.279 351.224 494.264C358.737 485.249 362.475 472.665 362.475 456.55C362.475 439.096 357.486 425.591 347.474 416.078C337.512 406.449 322.863 401.056 303.569 399.86V394.933C320.877 393.904 334.359 389.257 343.983 380.961L343.983 380.96C353.829 372.449 358.747 361.016 358.747 346.692C358.747 335.536 355.665 326.597 349.475 319.904C343.448 313.208 335.33 309.869 325.154 309.869C316.013 309.869 308.748 311.447 303.385 314.631C298.17 317.659 295.539 321.974 295.539 327.554C295.539 331.992 296.586 335.818 298.693 339.021C300.771 342.18 303.868 344.712 307.965 346.627C307.928 352.108 306.211 356.354 302.841 359.403C299.584 362.335 295.595 363.803 290.855 363.803C285.967 363.803 281.733 361.934 278.138 358.175C274.553 354.428 272.749 349.45 272.749 343.213C272.749 335.829 275.29 329.268 280.382 323.519L280.382 323.519L280.385 323.516C285.486 317.592 292.239 312.977 300.652 309.678C309.234 306.377 318.312 304.726 327.888 304.726C346.743 304.726 361.424 308.531 371.962 316.106C382.487 323.67 387.749 334.269 387.749 347.935C387.749 362.271 382.564 373.367 372.205 381.26C361.987 389.006 347.046 394.215 327.353 396.863L327.104 396.896V397.147V397.893V398.167L327.377 398.18C348.046 399.172 364.635 404.709 377.169 414.77L377.173 414.772C389.853 424.653 396.2 438.566 396.2 456.55C396.2 466.601 393.4 475.908 387.796 484.479L387.794 484.482C382.361 493.043 374.04 499.97 362.811 505.254C351.758 510.368 338.132 512.932 321.923 512.932C311.688 512.932 302.285 510.951 293.71 506.993C285.299 503.035 278.628 497.679 273.688 490.929C268.753 484.184 266.287 476.622 266.287 468.232C266.287 461.493 268.176 456.272 271.92 452.528ZM490.48 371.177L490.481 371.175C495.792 360.222 500.271 348.276 503.921 335.337L504.024 334.972H503.644H420.381H420.152L420.101 335.196L413.441 364.549H407.495V309.697H515.998C514.01 326.632 510.96 342.583 506.847 357.551C502.707 372.457 497.075 390.513 489.951 411.719C482.825 432.102 477.272 449.423 473.294 463.681L473.293 463.683C469.499 477.706 466.935 492.465 465.602 507.961H432.13C433.298 495.835 435.604 484.361 439.047 473.54C442.688 462.616 446.742 452.689 451.208 443.756C455.846 434.812 461.891 423.714 469.346 410.461C478.13 395.049 485.175 381.954 490.48 371.177Z" stroke="url(#paint5_linear_4262_2188)" stroke-opacity="0.1" stroke-width="0.574234"/>
</g>
<defs>
<filter id="filter0_f_4262_2188" x="0.857407" y="0.960922" width="828.113" height="835.078" filterUnits="userSpaceOnUse" color-interpolation-filters="sRGB">
<feFlood flood-opacity="0" result="BackgroundImageFix"/>
<feBlend mode="normal" in="SourceGraphic" in2="BackgroundImageFix" result="shape"/>
<feGaussianBlur stdDeviation="126.52" result="effect1_foregroundBlur_4262_2188"/>
</filter>
<filter id="filter1_bi_4262_2188" x="469.509" y="319.509" width="144.983" height="198.76" filterUnits="userSpaceOnUse" color-interpolation-filters="sRGB">
<feFlood flood-opacity="0" result="BackgroundImageFix"/>
<feGaussianBlur in="BackgroundImageFix" stdDeviation="5.24565"/>
<feComposite in2="SourceAlpha" operator="in" result="effect1_backgroundBlur_4262_2188"/>
<feBlend mode="normal" in="SourceGraphic" in2="effect1_backgroundBlur_4262_2188" result="shape"/>
<feColorMatrix in="SourceAlpha" type="matrix" values="0 0 0 0 0 0 0 0 0 0 0 0 0 0 0 0 0 0 127 0" result="hardAlpha"/>
<feOffset dy="1.61405"/>
<feGaussianBlur stdDeviation="4.03512"/>
<feComposite in2="hardAlpha" operator="arithmetic" k2="-1" k3="1"/>
<feColorMatrix type="matrix" values="0 0 0 0 1 0 0 0 0 1 0 0 0 0 1 0 0 0 0.25 0"/>
<feBlend mode="normal" in2="shape" result="effect2_innerShadow_4262_2188"/>
</filter>
<filter id="filter2_bi_4262_2188" x="256.669" y="295.108" width="268.983" height="227.442" filterUnits="userSpaceOnUse" color-interpolation-filters="sRGB">
<feFlood flood-opacity="0" result="BackgroundImageFix"/>
<feGaussianBlur in="BackgroundImageFix" stdDeviation="4.66565"/>
<feComposite in2="SourceAlpha" operator="in" result="effect1_backgroundBlur_4262_2188"/>
<feBlend mode="normal" in="SourceGraphic" in2="effect1_backgroundBlur_4262_2188" result="shape"/>
<feColorMatrix in="SourceAlpha" type="matrix" values="0 0 0 0 0 0 0 0 0 0 0 0 0 0 0 0 0 0 127 0" result="hardAlpha"/>
<feOffset dy="1.43558"/>
<feGaussianBlur stdDeviation="2.87117"/>
<feComposite in2="hardAlpha" operator="arithmetic" k2="-1" k3="1"/>
<feColorMatrix type="matrix" values="0 0 0 0 1 0 0 0 0 1 0 0 0 0 1 0 0 0 0.2 0"/>
<feBlend mode="normal" in2="shape" result="effect2_innerShadow_4262_2188"/>
</filter>
<linearGradient id="paint0_linear_4262_2188" x1="516" y1="464" x2="516" y2="561" gradientUnits="userSpaceOnUse">
<stop stop-color="#AAC1ED"/>
<stop offset="1" stop-color="#5374B6"/>
</linearGradient>
<linearGradient id="paint1_linear_4262_2188" x1="542" y1="330" x2="542" y2="507.778" gradientUnits="userSpaceOnUse">
<stop stop-color="#AAC1ED"/>
<stop offset="1" stop-color="#5374B6"/>
</linearGradient>
<linearGradient id="paint2_linear_4262_2188" x1="542" y1="330" x2="542" y2="507.778" gradientUnits="userSpaceOnUse">
<stop stop-color="#AAC1ED"/>
<stop offset="1" stop-color="#6C8AC6"/>
</linearGradient>
<linearGradient id="paint3_linear_4262_2188" x1="310.113" y1="315.162" x2="457.261" y2="485.278" gradientUnits="userSpaceOnUse">
<stop stop-color="#9EB6E6"/>
<stop offset="1" stop-color="#6E8CC7"/>
</linearGradient>
<linearGradient id="paint4_linear_4262_2188" x1="310.113" y1="315.162" x2="457.261" y2="485.278" gradientUnits="userSpaceOnUse">
<stop stop-color="#9EB6E6"/>
<stop offset="1" stop-color="#6E8CC7"/>
</linearGradient>
<linearGradient id="paint5_linear_4262_2188" x1="397.62" y1="304.439" x2="397.62" y2="513.219" gradientUnits="userSpaceOnUse">
<stop stop-color="#AAC1ED"/>
<stop offset="1" stop-color="#5374B6"/>
</linearGradient>
</defs>
</svg>
