<svg width="36" height="36" viewBox="0 0 36 36" fill="none" xmlns="http://www.w3.org/2000/svg">
<rect width="36" height="36" rx="10" fill="#01689B"/>
<path d="M12.0047 10C10.6167 10 9.4987 11.2572 9.5 12.8176V23.1824C9.5 24.7428 10.6167 26 12.0047 26H24.9953C26.3833 26 27.5 24.7428 27.5 23.1824V12.8176C27.5 11.2572 26.3833 10 24.9953 10H12.0047ZM12.143 13.7373C12.2683 13.7373 12.3896 13.7757 12.4939 13.8485L18.5 18.0604L24.506 13.8485C24.7943 13.6467 25.1843 13.7277 25.3761 14.031C25.5679 14.3343 25.4909 14.7447 25.2026 14.9465L18.8483 19.4029C18.6369 19.5512 18.363 19.5512 18.153 19.4029L11.8 14.9465H11.7987C11.5103 14.7447 11.4321 14.3343 11.6251 14.031C11.7399 13.8499 11.9343 13.7387 12.143 13.7373Z" fill="white"/>
</svg>
