<svg width="40" height="40" viewBox="0 0 40 40" fill="none" xmlns="http://www.w3.org/2000/svg">
<path d="M13.0503 5.0001C10.8072 5.0001 9 6.67516 9 8.75718V28.2429C9 30.3249 10.8052 32 13.0503 32H27.9497C30.1928 32 32 30.3249 32 28.2429V15.4964C32 14.154 31.4614 12.8645 30.5046 11.9135L25.0297 6.48324V6.4852C24.0709 5.53421 22.7727 5 21.4173 5L13.0503 5.0001ZM23.8637 8.33844C24.0038 8.33648 24.136 8.39128 24.2346 8.48912L28.3323 12.5534C28.6598 12.8783 28.427 13.434 27.9654 13.434H26.1582C24.6016 13.434 23.3508 12.2716 23.3508 10.8275V8.85505C23.3508 8.57132 23.5816 8.34239 23.8657 8.33848L23.8637 8.33844ZM14.7312 17.4767H26.2708C26.8667 17.4767 27.35 17.9815 27.35 18.6057C27.35 19.23 26.8666 19.7348 26.2708 19.7348H14.7312C14.1354 19.7348 13.652 19.23 13.652 18.6057C13.652 17.9815 14.1354 17.4767 14.7312 17.4767ZM14.7312 23.3277H22.1672C22.763 23.3277 23.2464 23.8326 23.2464 24.4568C23.2464 25.081 22.763 25.5859 22.1672 25.5859H14.7312C14.1354 25.5859 13.652 25.081 13.652 24.4568C13.652 23.8326 14.1354 23.3277 14.7312 23.3277Z" fill="#F1F1F1" fill-opacity="0.1"/>
<path d="M13.0503 5.0001C10.8072 5.0001 9 6.67516 9 8.75718V28.2429C9 30.3249 10.8052 32 13.0503 32H27.9497C30.1928 32 32 30.3249 32 28.2429V15.4964C32 14.154 31.4614 12.8645 30.5046 11.9135L25.0297 6.48324V6.4852C24.0709 5.53421 22.7727 5 21.4173 5L13.0503 5.0001ZM23.8637 8.33844C24.0038 8.33648 24.136 8.39128 24.2346 8.48912L28.3323 12.5534C28.6598 12.8783 28.427 13.434 27.9654 13.434H26.1582C24.6016 13.434 23.3508 12.2716 23.3508 10.8275V8.85505C23.3508 8.57132 23.5816 8.34239 23.8657 8.33848L23.8637 8.33844ZM14.7312 17.4767H26.2708C26.8667 17.4767 27.35 17.9815 27.35 18.6057C27.35 19.23 26.8666 19.7348 26.2708 19.7348H14.7312C14.1354 19.7348 13.652 19.23 13.652 18.6057C13.652 17.9815 14.1354 17.4767 14.7312 17.4767ZM14.7312 23.3277H22.1672C22.763 23.3277 23.2464 23.8326 23.2464 24.4568C23.2464 25.081 22.763 25.5859 22.1672 25.5859H14.7312C14.1354 25.5859 13.652 25.081 13.652 24.4568C13.652 23.8326 14.1354 23.3277 14.7312 23.3277Z" fill="url(#paint0_linear_2002_3891)" fill-opacity="0.2"/>
<path d="M25.2464 7.00527V7.00331L30.3518 12.0672C31.268 12.9778 31.7833 14.2121 31.7833 15.4964V28.2429C31.7833 30.1902 30.0888 31.7833 27.9497 31.7833H13.0503C10.9093 31.7833 9.21667 30.1903 9.21667 28.2429V8.75718C9.21667 6.80991 10.9112 5.21676 13.0503 5.21676L21.4173 5.21667C22.7157 5.21667 23.959 5.7284 24.8771 6.63903L25.2464 7.00527ZM23.8607 8.1218L23.8607 8.12187C23.4619 8.12842 23.1341 8.45066 23.1341 8.85505V10.8275C23.1341 12.4061 24.4973 13.6507 26.1582 13.6507H27.9654C28.6168 13.6507 28.9524 12.8633 28.4849 12.3996L24.3872 8.33528L24.2346 8.48912L24.3872 8.33528C24.2481 8.19736 24.0602 8.11901 23.8607 8.1218ZM26.2708 17.26H14.7312C14.0067 17.26 13.4354 17.8711 13.4354 18.6057C13.4354 19.3404 14.0067 19.9515 14.7312 19.9515H26.2708C26.9953 19.9515 27.5667 19.3404 27.5667 18.6057C27.5667 17.8711 26.9953 17.26 26.2708 17.26ZM22.1672 23.111H14.7312C14.0067 23.111 13.4354 23.7221 13.4354 24.4568C13.4354 25.1914 14.0067 25.8025 14.7312 25.8025H22.1672C22.8917 25.8025 23.463 25.1914 23.463 24.4568C23.463 23.7221 22.8917 23.111 22.1672 23.111Z" stroke="url(#paint1_linear_2002_3891)" stroke-opacity="0.1" stroke-width="0.433333"/>
<defs>
<linearGradient id="paint0_linear_2002_3891" x1="9" y1="5" x2="36.5511" y2="10.9593" gradientUnits="userSpaceOnUse">
<stop stop-color="#82E8FF"/>
<stop offset="1" stop-color="#379FFF"/>
</linearGradient>
<linearGradient id="paint1_linear_2002_3891" x1="9.71875" y1="6.22727" x2="32" y2="6.22727" gradientUnits="userSpaceOnUse">
<stop stop-color="#7EE5FF"/>
<stop offset="1" stop-color="#41A9FF"/>
</linearGradient>
</defs>
</svg>
