<svg width="80" height="80" viewBox="0 0 80 80" fill="none" xmlns="http://www.w3.org/2000/svg">
<g clip-path="url(#clip0_27_995)">
<path d="M42.5977 3.1733L3.14941 42.6216C0.164718 45.6063 0.182697 50.4429 3.14941 53.4096L6.09815 56.3584L56.3345 6.12203L53.3858 3.1733C50.419 0.206585 45.5824 0.188607 42.5977 3.1733Z" fill="#0F050E"/>
<path d="M15.0883 58.1564L11.4923 61.7524L26.8832 77.1434C29.85 80.1101 34.6866 80.1281 37.6713 77.1434L77.1196 37.6951C80.1043 34.7104 80.0863 29.8738 77.1196 26.907L61.7286 11.5161L15.0883 58.1564ZM68.0936 30.8627C69.0825 31.8516 69.0825 33.4698 68.0936 34.4587L64.1919 38.3604C63.203 39.3493 61.5848 39.3493 60.5959 38.3604L56.6942 34.4587C55.7053 33.4698 55.7053 31.8516 56.6942 30.8627L60.5959 26.961C61.5848 25.9721 63.203 25.9721 64.1919 26.961L68.0936 30.8627Z" fill="#0F050E"/>
</g>
<defs>
<clipPath id="clip0_27_995">
<rect width="80" height="80" fill="white"/>
</clipPath>
</defs>
</svg>
