<svg width="80" height="80" viewBox="0 0 80 80" fill="none" xmlns="http://www.w3.org/2000/svg">
<path d="M35.108 8.08572V17.2332C35.108 17.821 34.6305 18.2958 34.0427 18.2958C32.6015 18.2958 31.2988 18.8807 30.3549 19.8246L30.3041 19.8726C29.3913 20.8108 28.8261 22.0937 28.8261 23.5122C28.8261 24.9506 29.4111 26.2561 30.3549 27.2L30.403 27.2508C31.3412 28.1635 32.6269 28.7259 34.0426 28.7259C34.6304 28.7259 35.108 29.2035 35.108 29.7913V38.9359H43.2658C43.5004 37.3393 44.2493 35.9038 45.34 34.8102C46.6681 33.4793 48.5049 32.6569 50.5311 32.6569C52.5572 32.6569 54.3939 33.4821 55.7221 34.8102C56.8157 35.901 57.5645 37.3365 57.7991 38.9359H65.957V15.3911C65.957 13.3791 65.1375 11.5536 63.815 10.2311C62.4897 8.90868 60.6614 8.08638 58.6494 8.08638L35.108 8.08572ZM32.9774 50.2099V41.0653H24.8195C24.5906 42.6336 23.8644 44.0465 22.8046 45.1288L22.7453 45.191C21.4172 46.5219 19.5804 47.3443 17.5542 47.3443C15.5338 47.3443 13.697 46.522 12.3632 45.1881C11.2696 44.0946 10.5207 42.6618 10.2862 41.0653H2.12832V64.6072C2.12832 66.6192 2.95062 68.4475 4.27309 69.7728C5.59555 71.0953 7.4239 71.9147 9.43303 71.9147H32.9779V62.7672C32.9779 62.1795 33.4554 61.7047 34.0432 61.7047C35.4618 61.7047 36.7447 61.1395 37.6828 60.2267L37.7309 60.1759C38.6747 59.2321 39.2597 57.9293 39.2597 56.4882C39.2597 55.0498 38.6747 53.7443 37.7337 52.8004C36.7899 51.8566 35.4843 51.2745 34.0431 51.2745C33.4554 51.2745 32.9778 50.7969 32.9778 50.2091L32.9774 50.2099ZM58.6497 74.0426H9.43254C6.84129 74.0426 4.48167 72.9801 2.76929 71.2677C1.05965 69.5581 0 67.2013 0 64.6073V15.3901C0 12.796 1.05965 10.4364 2.76929 8.72681C4.47892 7.01724 6.83847 5.95752 9.43254 5.95752H58.6497C61.2438 5.95752 63.6006 7.01717 65.3102 8.72681C67.0226 10.4393 68.0851 12.7988 68.0851 15.3901V64.6073C68.0851 67.1985 67.0226 69.5581 65.3102 71.2733C63.5977 72.983 61.2382 74.0426 58.6497 74.0426Z" fill="#0F050E"/>
</svg>
