<svg width="96" height="80" viewBox="0 0 96 80" fill="none" xmlns="http://www.w3.org/2000/svg">
<g clip-path="url(#clip0_29_1025)">
<g filter="url(#filter0_bi_29_1025)">
<path fill-rule="evenodd" clip-rule="evenodd" d="M21.8836 23.8149C24.0992 22.323 26.3436 21.1668 28.8963 20.6389C31.4247 20.1159 34.4169 20.1764 38.1672 21.3621C41.9195 22.5485 43.5611 23.7261 45.5685 25.1729L45.598 25.1941C47.776 26.7638 50.2854 28.5725 55.5063 30.6442C60.6352 32.6794 65.6257 31.7228 69.6125 30.9586L69.6126 30.9586C70.1281 30.8598 70.6268 30.7642 71.1069 30.6787C75.4871 29.8986 78.5985 29.7889 81.601 32.7356C82.9358 34.0457 83.6417 35.1794 84.0207 36.1836C84.3981 37.1838 84.5076 38.204 84.4428 39.3791C84.3782 40.5494 84.1516 41.7697 83.8713 43.279L83.8303 43.5001C83.5411 45.0589 83.219 46.8525 83.1098 48.8382C82.8747 53.1141 84.2592 56.1644 85.8021 58.1563C86.4812 59.0331 87.1767 59.6877 87.7483 60.1493V68.0544L92.754 68.0543V57.3273L91.4324 56.6373C91.4217 56.6311 91.3993 56.6179 91.3668 56.5975C91.2912 56.55 91.1625 56.4645 90.9988 56.3382C90.6698 56.0843 90.2124 55.6756 89.7595 55.091C88.8819 53.9579 87.9453 52.074 88.1081 49.113C88.1978 47.4804 88.4637 45.9675 88.7521 44.413L88.811 44.0961C89.0743 42.6828 89.3579 41.1604 89.4409 39.6547C89.5331 37.9838 89.3894 36.2323 88.7041 34.4163C88.0204 32.6044 86.8539 30.8772 85.1073 29.163C80.2323 24.3785 74.8551 24.9266 70.2292 25.7505C69.6903 25.8464 69.1627 25.9446 68.6449 26.041C64.5377 26.8053 61.0427 27.4557 57.3526 25.9914C52.7074 24.1481 50.5726 22.6092 48.5703 21.1659L48.4953 21.1119C46.2936 19.5251 44.1551 18.0053 39.6763 16.5892C35.1955 15.1725 31.3328 15.0232 27.8825 15.7368C24.4566 16.4454 21.5985 17.972 19.0876 19.6627C16.467 21.4274 12.335 25.4824 9.02694 28.8849C7.33272 30.6275 5.78951 32.2677 4.67046 33.4716C4.11058 34.0739 3.65604 34.5679 3.34087 34.912C3.18327 35.084 3.06046 35.2186 2.97671 35.3106L2.88088 35.416L2.84704 35.4533C2.84689 35.4535 2.84677 35.4536 4.70215 37.1335L6.55776 38.8132L6.58715 38.7808L6.67825 38.6806C6.75877 38.5921 6.87814 38.4613 7.0321 38.2932C7.34008 37.957 7.78629 37.472 8.33687 36.8797C9.43872 35.6943 10.9552 34.0826 12.616 32.3744C16.0181 28.8752 19.7778 25.2329 21.8836 23.8149ZM21.6098 49.2379L8.9908 36.6811L-0.475193 45.9839L3.03387 49.5547L8.96982 43.7211L18.0795 52.7859L21.6098 49.2379ZM69.8389 41.3906L75.9093 48.2157L84.5308 60.6945V68.054H79.525V62.2556L72.6243 52.2674H55.086V68.054H50.0802V43.054H55.086V47.2617H68.3614L66.0985 44.7174L69.8389 41.3906ZM22.215 35.4893L18.082 38.0856L18.1036 38.1484L18.1682 38.3347C18.2242 38.4967 18.3046 38.7304 18.4012 39.0149C18.5947 39.5851 18.8516 40.3544 19.1075 41.1573C19.3651 41.9651 19.6143 42.7838 19.7966 43.4596C19.8877 43.7973 19.9555 44.0751 19.9988 44.2847C19.8932 44.476 19.7274 44.7193 19.518 44.988C19.3079 45.2576 19.0916 45.5048 18.9246 45.6874C18.8424 45.7772 18.7751 45.8481 18.7306 45.8944C18.7084 45.9175 18.692 45.9342 18.6825 45.9439L18.6751 45.9514C18.6753 45.9512 18.6755 45.951 20.4436 47.7225C22.2116 49.4941 22.2124 49.4933 22.2127 49.493L22.2171 49.4886L22.2257 49.48L22.2518 49.4536C22.273 49.432 22.3016 49.4026 22.3368 49.3662C22.4069 49.2933 22.5035 49.1913 22.6179 49.0663C22.8442 48.819 23.1521 48.4683 23.4663 48.0651C23.7734 47.6711 24.1274 47.175 24.4158 46.6405C24.5857 46.3256 24.8105 45.8595 24.9398 45.3047L41.4584 61.8532V68.0547H46.4641V59.7824L22.215 35.4893ZM20.0807 44.1145C20.0809 44.1144 20.0794 44.1192 20.0755 44.1291C20.0785 44.1195 20.0804 44.1146 20.0807 44.1145Z" fill="#0F050E"/>
</g>
</g>
<defs>
<filter id="filter0_bi_29_1025" x="-9.02433" y="6.7702" width="110.327" height="69.8336" filterUnits="userSpaceOnUse" color-interpolation-filters="sRGB">
<feFlood flood-opacity="0" result="BackgroundImageFix"/>
<feGaussianBlur in="BackgroundImageFix" stdDeviation="4.27457"/>
<feComposite in2="SourceAlpha" operator="in" result="effect1_backgroundBlur_29_1025"/>
<feBlend mode="normal" in="SourceGraphic" in2="effect1_backgroundBlur_29_1025" result="shape"/>
<feColorMatrix in="SourceAlpha" type="matrix" values="0 0 0 0 0 0 0 0 0 0 0 0 0 0 0 0 0 0 127 0" result="hardAlpha"/>
<feOffset dy="1.42486"/>
<feGaussianBlur stdDeviation="2.84971"/>
<feComposite in2="hardAlpha" operator="arithmetic" k2="-1" k3="1"/>
<feColorMatrix type="matrix" values="0 0 0 0 1 0 0 0 0 1 0 0 0 0 1 0 0 0 0.15 0"/>
<feBlend mode="normal" in2="shape" result="effect2_innerShadow_29_1025"/>
</filter>
<clipPath id="clip0_29_1025">
<rect width="95.3191" height="80" fill="white"/>
</clipPath>
</defs>
</svg>
