<svg width="80" height="80" viewBox="0 0 80 80" fill="none" xmlns="http://www.w3.org/2000/svg">
<g filter="url(#filter0_bi_104_1009)">
<path fill-rule="evenodd" clip-rule="evenodd" d="M66.7458 70.6375C35.5349 70.6018 10.2129 45.2562 10.2129 14.0426C10.2129 13.1251 10.6329 12.2613 11.3567 11.6954C12.0805 11.1324 13.0218 10.9328 13.9124 11.1532C13.9124 11.1532 19.7209 12.6068 23.2268 13.4826C25.8958 14.1498 27.9779 16.2319 28.6451 18.9008C29.1545 20.9412 29.8604 23.759 30.3608 25.7607C30.9953 28.2985 30.2506 30.9823 28.4009 32.8321L22.5596 38.6733C27.1498 46.8915 33.9591 53.7037 42.1774 58.2909L48.0186 52.4497C49.8684 50.5999 52.5522 49.8553 55.0901 50.4897C57.0918 50.9902 59.9096 51.6961 61.95 52.2055C64.619 52.8727 66.7011 54.9548 67.3683 57.6237C68.2441 61.1296 69.6977 66.938 69.6977 66.938C70.0968 68.5316 69.1258 70.152 67.5292 70.5512C67.267 70.6167 67.0019 70.6435 66.7458 70.6375Z" fill="#F1F1F1" fill-opacity="0.1"/>
<path fill-rule="evenodd" clip-rule="evenodd" d="M66.7458 70.6375C35.5349 70.6018 10.2129 45.2562 10.2129 14.0426C10.2129 13.1251 10.6329 12.2613 11.3567 11.6954C12.0805 11.1324 13.0218 10.9328 13.9124 11.1532C13.9124 11.1532 19.7209 12.6068 23.2268 13.4826C25.8958 14.1498 27.9779 16.2319 28.6451 18.9008C29.1545 20.9412 29.8604 23.759 30.3608 25.7607C30.9953 28.2985 30.2506 30.9823 28.4009 32.8321L22.5596 38.6733C27.1498 46.8915 33.9591 53.7037 42.1774 58.2909L48.0186 52.4497C49.8684 50.5999 52.5522 49.8553 55.0901 50.4897C57.0918 50.9902 59.9096 51.6961 61.95 52.2055C64.619 52.8727 66.7011 54.9548 67.3683 57.6237C68.2441 61.1296 69.6977 66.938 69.6977 66.938C70.0968 68.5316 69.1258 70.152 67.5292 70.5512C67.267 70.6167 67.0019 70.6435 66.7458 70.6375Z" fill="url(#paint0_linear_104_1009)" fill-opacity="0.2"/>
<path d="M66.751 70.4119V70.4119C66.988 70.4174 67.2329 70.3926 67.4744 70.3322C68.9501 69.9633 69.8476 68.4655 69.4788 66.9929L69.4788 66.9928L69.6977 66.938L69.4787 66.9927L69.4787 66.9925L69.4785 66.9917L69.4777 66.9886L69.4746 66.976L69.4622 66.9267L69.4146 66.7364L69.2379 66.0305L68.6425 63.6503C68.1696 61.76 67.5873 59.4314 67.1494 57.6784L66.751 70.4119ZM66.751 70.4119L66.746 70.4119M66.751 70.4119L66.746 70.4119M66.746 70.4119C35.6596 70.3763 10.4385 45.1316 10.4385 14.0426M66.746 70.4119L10.4385 14.0426M22.2794 38.6344L22.4 38.5137L28.2413 32.6725C30.0351 30.8788 30.7571 28.2763 30.1419 25.8154C29.9487 25.0427 29.7249 24.1483 29.4936 23.2239C29.1257 21.7539 28.7389 20.2082 28.4262 18.9555C27.7792 16.3675 25.7602 14.3485 23.1721 13.7015L22.2794 38.6344ZM22.2794 38.6344L22.3626 38.7833M22.2794 38.6344L22.3626 38.7833M22.3626 38.7833C26.9731 47.038 33.8126 53.8804 42.0674 58.488L42.2163 58.5711M22.3626 38.7833L42.2163 58.5711M42.2163 58.5711L42.337 58.4505M42.2163 58.5711L42.337 58.4505M42.337 58.4505L48.1782 52.6093M42.337 58.4505L48.1782 52.6093M10.4385 14.0426C10.4385 13.1945 10.8266 12.3964 11.4955 11.8733M10.4385 14.0426L11.4955 11.8733M11.4955 11.8733C12.1646 11.353 13.0347 11.1685 13.8582 11.3723L13.8587 11.3724L13.8619 11.3732L13.8744 11.3764L13.9237 11.3887L14.1141 11.4363L14.82 11.613L17.2001 12.2084C19.0905 12.6813 21.4191 13.2636 23.1721 13.7015L11.4955 11.8733ZM48.1782 52.6093C49.972 50.8155 52.5745 50.0934 55.0354 50.7087M48.1782 52.6093L55.0354 50.7087M55.0354 50.7087C55.8091 50.9021 56.705 51.1263 57.6307 51.358M55.0354 50.7087L57.6307 51.358M57.6307 51.358C59.0996 51.7255 60.6437 52.1119 61.8953 52.4244L57.6307 51.358ZM61.8954 52.4244C64.4834 53.0714 66.5023 55.0904 67.1494 57.6784L61.8954 52.4244Z" stroke="url(#paint1_linear_104_1009)" stroke-opacity="0.1" stroke-width="0.451337"/>
</g>
<g filter="url(#filter1_bi_104_1009)">
<mask id="path-3-inside-1_104_1009" fill="white">
<path fill-rule="evenodd" clip-rule="evenodd" d="M59.1491 11.0635C57.974 11.0635 57.0214 12.0161 57.0214 13.1911V19.5741H50.6384C49.4634 19.5741 48.5108 20.5267 48.5108 21.7018C48.5108 22.8768 49.4634 23.8294 50.6384 23.8294H57.0214V30.2124C57.0214 31.3875 57.974 32.3401 59.1491 32.3401C60.3241 32.3401 61.2767 31.3875 61.2767 30.2124V23.8294H67.6597C68.8348 23.8294 69.7874 22.8768 69.7874 21.7018C69.7874 20.5267 68.8348 19.5741 67.6597 19.5741H61.2767V13.1911C61.2767 12.0161 60.3241 11.0635 59.1491 11.0635Z"/>
</mask>
<path fill-rule="evenodd" clip-rule="evenodd" d="M59.1491 11.0635C57.974 11.0635 57.0214 12.0161 57.0214 13.1911V19.5741H50.6384C49.4634 19.5741 48.5108 20.5267 48.5108 21.7018C48.5108 22.8768 49.4634 23.8294 50.6384 23.8294H57.0214V30.2124C57.0214 31.3875 57.974 32.3401 59.1491 32.3401C60.3241 32.3401 61.2767 31.3875 61.2767 30.2124V23.8294H67.6597C68.8348 23.8294 69.7874 22.8768 69.7874 21.7018C69.7874 20.5267 68.8348 19.5741 67.6597 19.5741H61.2767V13.1911C61.2767 12.0161 60.3241 11.0635 59.1491 11.0635Z" fill="#F1F1F1" fill-opacity="0.1"/>
<path fill-rule="evenodd" clip-rule="evenodd" d="M59.1491 11.0635C57.974 11.0635 57.0214 12.0161 57.0214 13.1911V19.5741H50.6384C49.4634 19.5741 48.5108 20.5267 48.5108 21.7018C48.5108 22.8768 49.4634 23.8294 50.6384 23.8294H57.0214V30.2124C57.0214 31.3875 57.974 32.3401 59.1491 32.3401C60.3241 32.3401 61.2767 31.3875 61.2767 30.2124V23.8294H67.6597C68.8348 23.8294 69.7874 22.8768 69.7874 21.7018C69.7874 20.5267 68.8348 19.5741 67.6597 19.5741H61.2767V13.1911C61.2767 12.0161 60.3241 11.0635 59.1491 11.0635Z" fill="url(#paint2_linear_104_1009)" fill-opacity="0.2"/>
<path d="M57.0214 19.5741V20.0255H57.4727V19.5741H57.0214ZM57.0214 23.8294H57.4727V23.3781H57.0214V23.8294ZM61.2767 23.8294V23.3781H60.8254V23.8294H61.2767ZM61.2767 19.5741H60.8254V20.0255H61.2767V19.5741ZM57.4727 13.1911C57.4727 12.2653 58.2233 11.5148 59.1491 11.5148V10.6121C57.7247 10.6121 56.5701 11.7668 56.5701 13.1911H57.4727ZM57.4727 19.5741V13.1911H56.5701V19.5741H57.4727ZM50.6384 20.0255H57.0214V19.1228H50.6384V20.0255ZM48.9621 21.7018C48.9621 20.776 49.7126 20.0255 50.6384 20.0255V19.1228C49.2141 19.1228 48.0594 20.2774 48.0594 21.7018H48.9621ZM50.6384 23.3781C49.7126 23.3781 48.9621 22.6276 48.9621 21.7018H48.0594C48.0594 23.1261 49.2141 24.2808 50.6384 24.2808V23.3781ZM57.0214 23.3781H50.6384V24.2808H57.0214V23.3781ZM57.4727 30.2124V23.8294H56.5701V30.2124H57.4727ZM59.1491 31.8887C58.2233 31.8887 57.4727 31.1382 57.4727 30.2124H56.5701C56.5701 31.6368 57.7247 32.7914 59.1491 32.7914V31.8887ZM60.8254 30.2124C60.8254 31.1382 60.0749 31.8887 59.1491 31.8887V32.7914C60.5734 32.7914 61.7281 31.6368 61.7281 30.2124H60.8254ZM60.8254 23.8294V30.2124H61.7281V23.8294H60.8254ZM67.6597 23.3781H61.2767V24.2808H67.6597V23.3781ZM69.336 21.7018C69.336 22.6276 68.5855 23.3781 67.6597 23.3781V24.2808C69.084 24.2808 70.2387 23.1261 70.2387 21.7018H69.336ZM67.6597 20.0255C68.5855 20.0255 69.336 20.776 69.336 21.7018H70.2387C70.2387 20.2774 69.0841 19.1228 67.6597 19.1228V20.0255ZM61.2767 20.0255H67.6597V19.1228H61.2767V20.0255ZM60.8254 13.1911V19.5741H61.7281V13.1911H60.8254ZM59.1491 11.5148C60.0749 11.5148 60.8254 12.2653 60.8254 13.1911H61.7281C61.7281 11.7668 60.5734 10.6121 59.1491 10.6121V11.5148Z" fill="url(#paint3_linear_104_1009)" fill-opacity="0.1" mask="url(#path-3-inside-1_104_1009)"/>
</g>
<defs>
<filter id="filter0_bi_104_1009" x="3.44281" y="4.29538" width="73.1146" height="73.1128" filterUnits="userSpaceOnUse" color-interpolation-filters="sRGB">
<feFlood flood-opacity="0" result="BackgroundImageFix"/>
<feGaussianBlur in="BackgroundImageFix" stdDeviation="3.38502"/>
<feComposite in2="SourceAlpha" operator="in" result="effect1_backgroundBlur_104_1009"/>
<feBlend mode="normal" in="SourceGraphic" in2="effect1_backgroundBlur_104_1009" result="shape"/>
<feColorMatrix in="SourceAlpha" type="matrix" values="0 0 0 0 0 0 0 0 0 0 0 0 0 0 0 0 0 0 127 0" result="hardAlpha"/>
<feOffset dy="1.12834"/>
<feGaussianBlur stdDeviation="2.25668"/>
<feComposite in2="hardAlpha" operator="arithmetic" k2="-1" k3="1"/>
<feColorMatrix type="matrix" values="0 0 0 0 1 0 0 0 0 1 0 0 0 0 1 0 0 0 0.15 0"/>
<feBlend mode="normal" in2="shape" result="effect2_innerShadow_104_1009"/>
</filter>
<filter id="filter1_bi_104_1009" x="41.7407" y="4.29343" width="34.8167" height="34.8165" filterUnits="userSpaceOnUse" color-interpolation-filters="sRGB">
<feFlood flood-opacity="0" result="BackgroundImageFix"/>
<feGaussianBlur in="BackgroundImageFix" stdDeviation="3.38502"/>
<feComposite in2="SourceAlpha" operator="in" result="effect1_backgroundBlur_104_1009"/>
<feBlend mode="normal" in="SourceGraphic" in2="effect1_backgroundBlur_104_1009" result="shape"/>
<feColorMatrix in="SourceAlpha" type="matrix" values="0 0 0 0 0 0 0 0 0 0 0 0 0 0 0 0 0 0 127 0" result="hardAlpha"/>
<feOffset dy="1.12834"/>
<feGaussianBlur stdDeviation="2.25668"/>
<feComposite in2="hardAlpha" operator="arithmetic" k2="-1" k3="1"/>
<feColorMatrix type="matrix" values="0 0 0 0 1 0 0 0 0 1 0 0 0 0 1 0 0 0 0.15 0"/>
<feBlend mode="normal" in2="shape" result="effect2_innerShadow_104_1009"/>
</filter>
<linearGradient id="paint0_linear_104_1009" x1="10.2129" y1="11.0638" x2="80.3898" y2="28.883" gradientUnits="userSpaceOnUse">
<stop stop-color="#3891D6"/>
<stop offset="1" stop-color="#08CEE2"/>
</linearGradient>
<linearGradient id="paint1_linear_104_1009" x1="12.0746" y1="13.7733" x2="69.7873" y2="13.7733" gradientUnits="userSpaceOnUse">
<stop stop-color="#7EE5FF"/>
<stop offset="1" stop-color="#41A9FF"/>
</linearGradient>
<linearGradient id="paint2_linear_104_1009" x1="16.5959" y1="11.0635" x2="79.2542" y2="26.9734" gradientUnits="userSpaceOnUse">
<stop stop-color="#3891D6"/>
<stop offset="1" stop-color="#08CEE2"/>
</linearGradient>
<linearGradient id="paint3_linear_104_1009" x1="49.1757" y1="12.0306" x2="69.7874" y2="12.0306" gradientUnits="userSpaceOnUse">
<stop stop-color="#7EE5FF"/>
<stop offset="1" stop-color="#41A9FF"/>
</linearGradient>
</defs>
</svg>
