<svg width="35" height="35" viewBox="0 0 35 35" fill="none" xmlns="http://www.w3.org/2000/svg">
<path d="M17.0188 27.4094C16.7112 27.7166 16.2942 27.8892 15.8594 27.8892C15.4246 27.8892 15.0076 27.7166 14.7 27.4094L5.40315 18.1125C5.09591 17.8049 4.92334 17.3879 4.92334 16.9531C4.92334 16.5183 5.09591 16.1013 5.40315 15.7937L14.7 6.49685C15.011 6.2067 15.4224 6.04863 15.8477 6.05597C16.2729 6.06332 16.6787 6.23551 16.9794 6.53623C17.2801 6.83697 17.4523 7.24273 17.4597 7.66796C17.467 8.09319 17.3089 8.50466 17.0188 8.8156L10.5219 15.3125L26.7969 15.3125C27.232 15.3125 27.6493 15.4853 27.957 15.793C28.2647 16.1007 28.4375 16.518 28.4375 16.9531C28.4375 17.3882 28.2647 17.8055 27.957 18.1132C27.6493 18.4209 27.232 18.5937 26.7969 18.5937H10.5219L17.0188 25.0906C17.326 25.3982 17.4986 25.8152 17.4986 26.25C17.4986 26.6847 17.326 27.1017 17.0188 27.4094Z" fill="white"/>
</svg>
