<svg width="24" height="24" viewBox="0 0 24 24" fill="none" xmlns="http://www.w3.org/2000/svg">
<path d="M7.4 18.8C7.77771 18.2964 8.37049 18 9 18H15C15.6295 18 16.2223 18.2964 16.6 18.8L17.8 20.4C18.2944 21.0592 17.824 22 17 22H7C6.17595 22 5.70557 21.0592 6.2 20.4L7.4 18.8Z" fill="url(#paint0_linear_4271_1093)"/>
<g filter="url(#filter0_bi_4271_1093)">
<path d="M19 10C19 15 13.5 20 12 20C10.5 20 5 15 5 10C5 6.13401 8.13401 3 12 3C15.866 3 19 6.13401 19 10Z" fill="#F1F1F1" fill-opacity="0.1"/>
<path d="M19 10C19 15 13.5 20 12 20C10.5 20 5 15 5 10C5 6.13401 8.13401 3 12 3C15.866 3 19 6.13401 19 10Z" fill="url(#paint1_linear_4271_1093)" fill-opacity="0.2"/>
<path d="M18.9 10C18.9 12.4661 17.5417 14.9438 15.9857 16.811C15.2088 17.7432 14.3862 18.5189 13.6664 19.0607C13.3064 19.3317 12.9738 19.5429 12.6868 19.6859C12.3972 19.8302 12.1641 19.9 12 19.9C11.8359 19.9 11.6028 19.8302 11.3132 19.6859C11.0262 19.5429 10.6936 19.3317 10.3336 19.0607C9.61378 18.5189 8.79116 17.7432 8.01432 16.811C6.45832 14.9438 5.1 12.4661 5.1 10C5.1 6.18924 8.18924 3.1 12 3.1C15.8108 3.1 18.9 6.18924 18.9 10Z" stroke="url(#paint2_linear_4271_1093)" stroke-opacity="0.1" stroke-width="0.2"/>
</g>
<g filter="url(#filter1_i_4271_1093)">
<circle cx="12" cy="10" r="3" fill="white" fill-opacity="0.1"/>
</g>
<defs>
<filter id="filter0_bi_4271_1093" x="2" y="0" width="20" height="23" filterUnits="userSpaceOnUse" color-interpolation-filters="sRGB">
<feFlood flood-opacity="0" result="BackgroundImageFix"/>
<feGaussianBlur in="BackgroundImageFix" stdDeviation="1.5"/>
<feComposite in2="SourceAlpha" operator="in" result="effect1_backgroundBlur_4271_1093"/>
<feBlend mode="normal" in="SourceGraphic" in2="effect1_backgroundBlur_4271_1093" result="shape"/>
<feColorMatrix in="SourceAlpha" type="matrix" values="0 0 0 0 0 0 0 0 0 0 0 0 0 0 0 0 0 0 127 0" result="hardAlpha"/>
<feOffset dy="0.5"/>
<feGaussianBlur stdDeviation="1"/>
<feComposite in2="hardAlpha" operator="arithmetic" k2="-1" k3="1"/>
<feColorMatrix type="matrix" values="0 0 0 0 1 0 0 0 0 1 0 0 0 0 1 0 0 0 0.15 0"/>
<feBlend mode="normal" in2="shape" result="effect2_innerShadow_4271_1093"/>
</filter>
<filter id="filter1_i_4271_1093" x="9" y="7" width="6" height="6.5" filterUnits="userSpaceOnUse" color-interpolation-filters="sRGB">
<feFlood flood-opacity="0" result="BackgroundImageFix"/>
<feBlend mode="normal" in="SourceGraphic" in2="BackgroundImageFix" result="shape"/>
<feColorMatrix in="SourceAlpha" type="matrix" values="0 0 0 0 0 0 0 0 0 0 0 0 0 0 0 0 0 0 127 0" result="hardAlpha"/>
<feOffset dy="0.5"/>
<feGaussianBlur stdDeviation="0.25"/>
<feComposite in2="hardAlpha" operator="arithmetic" k2="-1" k3="1"/>
<feColorMatrix type="matrix" values="0 0 0 0 1 0 0 0 0 1 0 0 0 0 1 0 0 0 0.1 0"/>
<feBlend mode="normal" in2="shape" result="effect1_innerShadow_4271_1093"/>
</filter>
<linearGradient id="paint0_linear_4271_1093" x1="12" y1="18" x2="12" y2="22" gradientUnits="userSpaceOnUse">
<stop stop-color="#AAC1ED"/>
<stop offset="1" stop-color="#5374B6"/>
</linearGradient>
<linearGradient id="paint1_linear_4271_1093" x1="5" y1="3" x2="21.8194" y2="6.51709" gradientUnits="userSpaceOnUse">
<stop stop-color="#82E8FF"/>
<stop offset="1" stop-color="#379FFF"/>
</linearGradient>
<linearGradient id="paint2_linear_4271_1093" x1="5.4375" y1="3.77273" x2="19" y2="3.77273" gradientUnits="userSpaceOnUse">
<stop stop-color="#7EE5FF"/>
<stop offset="1" stop-color="#41A9FF"/>
</linearGradient>
</defs>
</svg>
