<svg width="80" height="80" viewBox="0 0 80 80" fill="none" xmlns="http://www.w3.org/2000/svg">
<g clip-path="url(#clip0_2002_3657)">
<g filter="url(#filter0_bi_2002_3657)">
<path d="M42.5978 3.17281L3.14946 42.6211C0.164764 45.6058 0.182743 50.4424 3.14946 53.4092L6.09819 56.3579L56.3345 6.12154L53.3858 3.17281C50.4191 0.206097 45.5825 0.188118 42.5978 3.17281Z" fill="#F1F1F1" fill-opacity="0.1"/>
<path d="M42.5978 3.17281L3.14946 42.6211C0.164764 45.6058 0.182743 50.4424 3.14946 53.4092L6.09819 56.3579L56.3345 6.12154L53.3858 3.17281C50.4191 0.206097 45.5825 0.188118 42.5978 3.17281Z" fill="url(#paint0_linear_2002_3657)" fill-opacity="0.2"/>
<path d="M3.32095 42.7926L42.7693 3.3443C45.6589 0.454695 50.3419 0.471933 53.2143 3.34431L55.9916 6.12155L6.09819 56.0149L3.32095 53.2377C0.448577 50.3653 0.431343 45.6822 3.32095 42.7926Z" stroke="url(#paint1_linear_2002_3657)" stroke-opacity="0.1" stroke-width="0.485057"/>
<path d="M15.0883 58.1565L11.4923 61.7526L26.8832 77.1435C29.85 80.1102 34.6866 80.1282 37.6713 77.1435L77.1196 37.6952C80.1043 34.7105 80.0863 29.8739 77.1196 26.9072L61.7286 11.5162L15.0883 58.1565ZM68.0936 30.8628C69.0825 31.8517 69.0825 33.4699 68.0936 34.4588L64.1919 38.3605C63.203 39.3494 61.5848 39.3494 60.5959 38.3605L56.6942 34.4588C55.7053 33.4699 55.7053 31.8517 56.6942 30.8628L60.5959 26.9611C61.5848 25.9722 63.203 25.9722 64.1919 26.9611L68.0936 30.8628Z" fill="#F1F1F1" fill-opacity="0.1"/>
<path d="M15.0883 58.1565L11.4923 61.7526L26.8832 77.1435C29.85 80.1102 34.6866 80.1282 37.6713 77.1435L77.1196 37.6952C80.1043 34.7105 80.0863 29.8739 77.1196 26.9072L61.7286 11.5162L15.0883 58.1565ZM68.0936 30.8628C69.0825 31.8517 69.0825 33.4699 68.0936 34.4588L64.1919 38.3605C63.203 39.3494 61.5848 39.3494 60.5959 38.3605L56.6942 34.4588C55.7053 33.4699 55.7053 31.8517 56.6942 30.8628L60.5959 26.9611C61.5848 25.9722 63.203 25.9722 64.1919 26.9611L68.0936 30.8628Z" fill="url(#paint2_linear_2002_3657)" fill-opacity="0.2"/>
<path d="M27.0547 76.972L11.8353 61.7526L15.2598 58.328L61.7286 11.8592L76.9481 27.0787C79.8205 29.951 79.8377 34.6341 76.9481 37.5237L37.4998 76.972C34.6102 79.8616 29.9271 79.8444 27.0547 76.972ZM68.2651 34.6303C69.3487 33.5467 69.3487 31.7749 68.2651 30.6913L64.3634 26.7896C63.2798 25.706 61.508 25.706 60.4244 26.7896L56.5227 30.6913C55.4391 31.7749 55.4391 33.5467 56.5227 34.6303L60.4244 38.532C61.508 39.6156 63.2798 39.6156 64.3634 38.532L68.2651 34.6303Z" stroke="url(#paint3_linear_2002_3657)" stroke-opacity="0.1" stroke-width="0.485057"/>
</g>
</g>
<defs>
<filter id="filter0_bi_2002_3657" x="-6.35819" y="-6.33482" width="92.9854" height="92.9859" filterUnits="userSpaceOnUse" color-interpolation-filters="sRGB">
<feFlood flood-opacity="0" result="BackgroundImageFix"/>
<feGaussianBlur in="BackgroundImageFix" stdDeviation="3.63793"/>
<feComposite in2="SourceAlpha" operator="in" result="effect1_backgroundBlur_2002_3657"/>
<feBlend mode="normal" in="SourceGraphic" in2="effect1_backgroundBlur_2002_3657" result="shape"/>
<feColorMatrix in="SourceAlpha" type="matrix" values="0 0 0 0 0 0 0 0 0 0 0 0 0 0 0 0 0 0 127 0" result="hardAlpha"/>
<feOffset dy="1.21264"/>
<feGaussianBlur stdDeviation="2.42529"/>
<feComposite in2="hardAlpha" operator="arithmetic" k2="-1" k3="1"/>
<feColorMatrix type="matrix" values="0 0 0 0 1 0 0 0 0 1 0 0 0 0 1 0 0 0 0.15 0"/>
<feBlend mode="normal" in2="shape" result="effect2_innerShadow_2002_3657"/>
</filter>
<linearGradient id="paint0_linear_2002_3657" x1="-2.24457" y1="48.0151" x2="45.4836" y2="57.9984" gradientUnits="userSpaceOnUse">
<stop stop-color="#EA4E2D"/>
<stop offset="1" stop-color="#EE9C11"/>
</linearGradient>
<linearGradient id="paint1_linear_2002_3657" x1="22.8736" y1="22.897" x2="31.2164" y2="31.2397" gradientUnits="userSpaceOnUse">
<stop stop-color="#E94530"/>
<stop offset="1" stop-color="#EFB806"/>
</linearGradient>
<linearGradient id="paint2_linear_2002_3657" x1="11.4923" y1="61.7526" x2="85.3324" y2="44.0767" gradientUnits="userSpaceOnUse">
<stop stop-color="#EA4E2D"/>
<stop offset="1" stop-color="#EE9C11"/>
</linearGradient>
<linearGradient id="paint3_linear_2002_3657" x1="36.6105" y1="36.6344" x2="57.3954" y2="57.4194" gradientUnits="userSpaceOnUse">
<stop stop-color="#E94530"/>
<stop offset="1" stop-color="#EFB806"/>
</linearGradient>
<clipPath id="clip0_2002_3657">
<rect width="80" height="80" fill="white"/>
</clipPath>
</defs>
</svg>
