<svg width="22" height="22" viewBox="0 0 22 22" fill="none" xmlns="http://www.w3.org/2000/svg">
<path d="M21 11.0005C21 12.3138 20.7414 13.6142 20.2388 14.8275C19.7362 16.0408 18.9996 17.1433 18.0709 18.0719C17.1423 19.0006 16.0399 19.7372 14.8265 20.2398C13.6132 20.7423 12.3128 21.001 10.9995 21.001C9.68624 21.001 8.38581 20.7423 7.1725 20.2398C5.95918 19.7372 4.85673 19.0006 3.9281 18.0719C2.99947 17.1433 2.26284 16.0408 1.76027 14.8275C1.25769 13.6142 0.999023 12.3138 0.999023 11.0005C0.999023 8.3482 2.05264 5.80454 3.9281 3.92908C5.80356 2.05362 8.34723 1 10.9995 1C13.6518 1 16.1955 2.05362 18.0709 3.92908C19.9464 5.80454 21 8.3482 21 11.0005Z" stroke="#3891D6" stroke-width="1.5"/>
<path d="M15 11.0005C15 12.3135 14.896 13.6145 14.695 14.8275C14.495 16.0405 14.2 17.1425 13.828 18.0715C13.457 19.0005 13.016 19.7365 12.531 20.2395C12.045 20.7415 11.525 21.0005 11 21.0005C10.475 21.0005 9.95502 20.7415 9.47002 20.2395C8.98402 19.7365 8.54302 18.9995 8.17202 18.0715C7.80002 17.1425 7.50502 16.0415 7.30402 14.8275C7.09899 13.5622 6.99732 12.2823 7.00002 11.0005C7.00002 9.68749 7.10302 8.38649 7.30402 7.17349C7.50502 5.96049 7.80002 4.85849 8.17202 3.92949C8.54302 3.00049 8.98402 2.26449 9.46902 1.76149C9.95502 1.26049 10.475 1.00049 11 1.00049C11.525 1.00049 12.045 1.25949 12.53 1.76149C13.016 2.26449 13.457 3.00149 13.828 3.92949C14.2 4.85849 14.495 5.95949 14.695 7.17349C14.897 8.38649 15 9.68749 15 11.0005Z" stroke="#3891D6" stroke-width="1.5"/>
<path d="M1.00003 11.0005H21" stroke="#3891D6" stroke-width="1.5" stroke-linecap="round"/>
</svg>
