<svg width="139" height="160" viewBox="0 0 139 160" fill="none" xmlns="http://www.w3.org/2000/svg">
<path d="M2.82197 25.4254C2.50628 25.4254 2.20532 25.3749 1.91909 25.2739C1.63287 25.1687 1.40557 25.0297 1.2372 24.8572L1.45819 24.4973C1.59709 24.6446 1.7865 24.7667 2.02643 24.8635C2.27056 24.9603 2.53364 25.0087 2.81565 25.0087C3.19027 25.0087 3.47439 24.9266 3.66802 24.7625C3.86585 24.5941 3.96476 24.3752 3.96476 24.1058C3.96476 23.9164 3.91846 23.7544 3.82586 23.6197C3.73747 23.4808 3.58594 23.3734 3.37127 23.2977C3.1566 23.2219 2.86195 23.184 2.48734 23.184H1.54658L1.77388 20.9679H4.19206V21.372H1.95698L2.19059 21.151L1.99486 23.0072L1.76125 22.7799H2.58836C3.03453 22.7799 3.39231 22.8347 3.6617 22.9441C3.93109 23.0535 4.12471 23.2072 4.24257 23.405C4.36464 23.5986 4.42567 23.8259 4.42567 24.0869C4.42567 24.3352 4.36674 24.5625 4.24889 24.7688C4.13103 24.9708 3.95424 25.1308 3.71853 25.2486C3.48281 25.3665 3.18396 25.4254 2.82197 25.4254ZM6.76434 25.4254C6.4234 25.4254 6.12033 25.337 5.85516 25.1602C5.58998 24.9792 5.38162 24.7225 5.23009 24.39C5.07856 24.0532 5.00279 23.6491 5.00279 23.1777C5.00279 22.7063 5.07856 22.3043 5.23009 21.9718C5.38162 21.635 5.58998 21.3783 5.85516 21.2015C6.12033 21.0205 6.4234 20.93 6.76434 20.93C7.10529 20.93 7.40835 21.0205 7.67353 21.2015C7.93871 21.3783 8.14706 21.635 8.2986 21.9718C8.45434 22.3043 8.53221 22.7063 8.53221 23.1777C8.53221 23.6491 8.45434 24.0532 8.2986 24.39C8.14706 24.7225 7.93871 24.9792 7.67353 25.1602C7.40835 25.337 7.10529 25.4254 6.76434 25.4254ZM6.76434 25.0087C7.02531 25.0087 7.25261 24.9393 7.44623 24.8003C7.63986 24.6572 7.79139 24.451 7.90083 24.1816C8.01027 23.908 8.06499 23.5734 8.06499 23.1777C8.06499 22.782 8.01027 22.4495 7.90083 22.1801C7.79139 21.9065 7.63986 21.7003 7.44623 21.5614C7.25261 21.4183 7.02531 21.3467 6.76434 21.3467C6.51179 21.3467 6.2866 21.4183 6.08877 21.5614C5.89093 21.7003 5.7373 21.9065 5.62786 22.1801C5.51842 22.4495 5.4637 22.782 5.4637 23.1777C5.4637 23.5734 5.51842 23.908 5.62786 24.1816C5.7373 24.451 5.89093 24.6572 6.08877 24.8003C6.2866 24.9393 6.51179 25.0087 6.76434 25.0087Z" fill="white"/>
<path d="M0.350851 46.7475V46.4192L2.69327 43.4896H3.19837L0.874896 46.4192L0.628658 46.3434H4.18333V46.7475H0.350851ZM2.8448 47.9093V46.7475L2.85743 46.3434V45.3206H3.2994V47.9093H2.8448ZM6.36243 47.9472C6.02148 47.9472 5.71842 47.8588 5.45324 47.682C5.18806 47.501 4.9797 47.2442 4.82817 46.9117C4.67664 46.575 4.60088 46.1709 4.60088 45.6994C4.60088 45.228 4.67664 44.826 4.82817 44.4935C4.9797 44.1568 5.18806 43.9 5.45324 43.7232C5.71842 43.5422 6.02148 43.4517 6.36243 43.4517C6.70337 43.4517 7.00643 43.5422 7.27161 43.7232C7.53679 43.9 7.74515 44.1568 7.89668 44.4935C8.05242 44.826 8.13029 45.228 8.13029 45.6994C8.13029 46.1709 8.05242 46.575 7.89668 46.9117C7.74515 47.2442 7.53679 47.501 7.27161 47.682C7.00643 47.8588 6.70337 47.9472 6.36243 47.9472ZM6.36243 47.5304C6.6234 47.5304 6.85069 47.461 7.04432 47.3221C7.23794 47.179 7.38947 46.9727 7.49891 46.7033C7.60835 46.4297 7.66307 46.0951 7.66307 45.6994C7.66307 45.3038 7.60835 44.9712 7.49891 44.7019C7.38947 44.4283 7.23794 44.222 7.04432 44.0831C6.85069 43.94 6.6234 43.8684 6.36243 43.8684C6.10988 43.8684 5.88468 43.94 5.68685 44.0831C5.48902 44.222 5.33538 44.4283 5.22594 44.7019C5.1165 44.9712 5.06178 45.3038 5.06178 45.6994C5.06178 46.0951 5.1165 46.4297 5.22594 46.7033C5.33538 46.9727 5.48902 47.179 5.68685 47.3221C5.88468 47.461 6.10988 47.5304 6.36243 47.5304Z" fill="white"/>
<path d="M2.7462 70.4689C2.4263 70.4689 2.12324 70.4184 1.83701 70.3174C1.555 70.2121 1.3277 70.0732 1.15512 69.9007L1.37611 69.5408C1.51922 69.6881 1.71074 69.8102 1.95066 69.907C2.1948 70.0038 2.45998 70.0522 2.7462 70.0522C3.1124 70.0522 3.39231 69.9722 3.58594 69.8123C3.78377 69.6523 3.88268 69.4376 3.88268 69.1683C3.88268 68.8989 3.78587 68.6842 3.59225 68.5242C3.40284 68.3643 3.10188 68.2843 2.68938 68.2843H2.37369V67.9497L3.73747 66.2386L3.80061 66.4154H1.33822V66.0114H4.17943V66.3334L2.81565 68.0444L2.59467 67.8992H2.76514C3.2955 67.8992 3.69117 68.017 3.95214 68.2528C4.21732 68.4885 4.34991 68.7915 4.34991 69.1619C4.34991 69.4103 4.29098 69.6334 4.17312 69.8312C4.05526 70.029 3.87637 70.1848 3.63645 70.2984C3.40073 70.4121 3.10398 70.4689 2.7462 70.4689ZM6.75201 70.4689C6.41107 70.4689 6.108 70.3805 5.84282 70.2037C5.57764 70.0227 5.36929 69.766 5.21776 69.4334C5.06623 69.0967 4.99046 68.6926 4.99046 68.2212C4.99046 67.7498 5.06623 67.3478 5.21776 67.0152C5.36929 66.6785 5.57764 66.4217 5.84282 66.245C6.108 66.064 6.41107 65.9735 6.75201 65.9735C7.09296 65.9735 7.39602 66.064 7.6612 66.245C7.92638 66.4217 8.13473 66.6785 8.28626 67.0152C8.442 67.3478 8.51987 67.7498 8.51987 68.2212C8.51987 68.6926 8.442 69.0967 8.28626 69.4334C8.13473 69.766 7.92638 70.0227 7.6612 70.2037C7.39602 70.3805 7.09296 70.4689 6.75201 70.4689ZM6.75201 70.0522C7.01298 70.0522 7.24028 69.9827 7.4339 69.8438C7.62752 69.7007 7.77906 69.4945 7.88849 69.2251C7.99793 68.9515 8.05265 68.6168 8.05265 68.2212C8.05265 67.8255 7.99793 67.493 7.88849 67.2236C7.77906 66.95 7.62752 66.7438 7.4339 66.6048C7.24028 66.4617 7.01298 66.3902 6.75201 66.3902C6.49946 66.3902 6.27427 66.4617 6.07643 66.6048C5.8786 66.7438 5.72497 66.95 5.61553 67.2236C5.50609 67.493 5.45137 67.8255 5.45137 68.2212C5.45137 68.6168 5.50609 68.9515 5.61553 69.2251C5.72497 69.4945 5.8786 69.7007 6.07643 69.8438C6.27427 69.9827 6.49946 70.0522 6.75201 70.0522Z" fill="white"/>
<path d="M1.34454 92.9527V92.6307L3.18185 90.8313C3.35022 90.6672 3.4765 90.524 3.56068 90.402C3.64487 90.2757 3.70169 90.1578 3.73115 90.0484C3.76062 89.939 3.77535 89.8358 3.77535 89.739C3.77535 89.4823 3.68696 89.2802 3.51017 89.1329C3.33759 88.9856 3.08083 88.9119 2.73989 88.9119C2.47892 88.9119 2.24741 88.9519 2.04537 89.0319C1.84754 89.1119 1.67706 89.236 1.53395 89.4044L1.21195 89.1266C1.38452 88.9245 1.60551 88.7688 1.8749 88.6594C2.14429 88.5499 2.44524 88.4952 2.77777 88.4952C3.07662 88.4952 3.33549 88.5436 3.55437 88.6404C3.77325 88.733 3.94161 88.8698 4.05947 89.0508C4.18154 89.2318 4.24257 89.4444 4.24257 89.6885C4.24257 89.8316 4.22153 89.9726 4.17943 90.1115C4.14155 90.2504 4.06999 90.3978 3.96476 90.5535C3.86374 90.705 3.71432 90.8776 3.51648 91.0712L1.8307 92.7255L1.70442 92.5487H4.44461V92.9527H1.34454ZM6.76434 92.9906C6.4234 92.9906 6.12033 92.9022 5.85516 92.7255C5.58998 92.5445 5.38162 92.2877 5.23009 91.9552C5.07856 91.6184 5.00279 91.2143 5.00279 90.7429C5.00279 90.2715 5.07856 89.8695 5.23009 89.537C5.38162 89.2002 5.58998 88.9435 5.85516 88.7667C6.12033 88.5857 6.4234 88.4952 6.76434 88.4952C7.10529 88.4952 7.40835 88.5857 7.67353 88.7667C7.93871 88.9435 8.14706 89.2002 8.2986 89.537C8.45434 89.8695 8.53221 90.2715 8.53221 90.7429C8.53221 91.2143 8.45434 91.6184 8.2986 91.9552C8.14706 92.2877 7.93871 92.5445 7.67353 92.7255C7.40835 92.9022 7.10529 92.9906 6.76434 92.9906ZM6.76434 92.5739C7.02531 92.5739 7.25261 92.5045 7.44623 92.3656C7.63986 92.2225 7.79139 92.0162 7.90083 91.7468C8.01027 91.4732 8.06499 91.1386 8.06499 90.7429C8.06499 90.3473 8.01027 90.0147 7.90083 89.7453C7.79139 89.4717 7.63986 89.2655 7.44623 89.1266C7.25261 88.9835 7.02531 88.9119 6.76434 88.9119C6.51179 88.9119 6.2866 88.9835 6.08877 89.1266C5.89093 89.2655 5.7373 89.4717 5.62786 89.7453C5.51842 90.0147 5.4637 90.3473 5.4637 90.7429C5.4637 91.1386 5.51842 91.4732 5.62786 91.7468C5.7373 92.0162 5.89093 92.2225 6.08877 92.3656C6.2866 92.5045 6.51179 92.5739 6.76434 92.5739Z" fill="white"/>
<path d="M3.1969 115.474V111.244L3.39894 111.459H2.15512V111.055H3.65149V115.474H3.1969ZM6.46952 115.512C6.12858 115.512 5.82551 115.424 5.56033 115.247C5.29515 115.066 5.0868 114.809 4.93527 114.477C4.78374 114.14 4.70797 113.736 4.70797 113.265C4.70797 112.793 4.78374 112.391 4.93527 112.059C5.0868 111.722 5.29515 111.465 5.56033 111.288C5.82551 111.107 6.12858 111.017 6.46952 111.017C6.81047 111.017 7.11353 111.107 7.37871 111.288C7.64389 111.465 7.85224 111.722 8.00377 112.059C8.15951 112.391 8.23738 112.793 8.23738 113.265C8.23738 113.736 8.15951 114.14 8.00377 114.477C7.85224 114.809 7.64389 115.066 7.37871 115.247C7.11353 115.424 6.81047 115.512 6.46952 115.512ZM6.46952 115.096C6.73049 115.096 6.95779 115.026 7.15141 114.887C7.34503 114.744 7.49657 114.538 7.606 114.269C7.71544 113.995 7.77016 113.66 7.77016 113.265C7.77016 112.869 7.71544 112.536 7.606 112.267C7.49657 111.993 7.34503 111.787 7.15141 111.648C6.95779 111.505 6.73049 111.434 6.46952 111.434C6.21697 111.434 5.99178 111.505 5.79394 111.648C5.59611 111.787 5.44248 111.993 5.33304 112.267C5.2236 112.536 5.16888 112.869 5.16888 113.265C5.16888 113.66 5.2236 113.995 5.33304 114.269C5.44248 114.538 5.59611 114.744 5.79394 114.887C5.99178 115.026 6.21697 115.096 6.46952 115.096Z" fill="white"/>
<path d="M6.18817 138.034C5.84722 138.034 5.54416 137.946 5.27898 137.769C5.0138 137.588 4.80544 137.331 4.65391 136.999C4.50238 136.662 4.42662 136.258 4.42662 135.786C4.42662 135.315 4.50238 134.913 4.65391 134.58C4.80544 134.244 5.0138 133.987 5.27898 133.81C5.54416 133.629 5.84722 133.539 6.18817 133.539C6.52911 133.539 6.83217 133.629 7.09735 133.81C7.36253 133.987 7.57089 134.244 7.72242 134.58C7.87816 134.913 7.95603 135.315 7.95603 135.786C7.95603 136.258 7.87816 136.662 7.72242 136.999C7.57089 137.331 7.36253 137.588 7.09735 137.769C6.83217 137.946 6.52911 138.034 6.18817 138.034ZM6.18817 137.617C6.44914 137.617 6.67643 137.548 6.87006 137.409C7.06368 137.266 7.21521 137.06 7.32465 136.79C7.43409 136.517 7.48881 136.182 7.48881 135.786C7.48881 135.391 7.43409 135.058 7.32465 134.789C7.21521 134.515 7.06368 134.309 6.87006 134.17C6.67643 134.027 6.44914 133.955 6.18817 133.955C5.93561 133.955 5.71042 134.027 5.51259 134.17C5.31476 134.309 5.16112 134.515 5.05168 134.789C4.94224 135.058 4.88752 135.391 4.88752 135.786C4.88752 136.182 4.94224 136.517 5.05168 136.79C5.16112 137.06 5.31476 137.266 5.51259 137.409C5.71042 137.548 5.93561 137.617 6.18817 137.617Z" fill="white"/>
<rect x="16.0435" y="18.448" width="0.441966" height="125.645" fill="#505C69"/>
<rect x="40.6673" y="18.448" width="0.441966" height="125.645" fill="#505C69"/>
<rect x="64.6597" y="18.448" width="0.441966" height="125.645" fill="#505C69"/>
<rect x="89.2836" y="18.448" width="0.441966" height="125.645" fill="#505C69"/>
<rect x="113.907" y="18.448" width="0.441966" height="125.645" fill="#505C69"/>
<rect x="14.1493" y="3.19094" width="14.5217" height="5.68242" fill="#1BB092" fill-opacity="0.5" stroke="#1AB394" stroke-width="1.26276"/>
<path d="M32.5477 8.03214V3.61248H34.202C34.5766 3.61248 34.8986 3.67352 35.168 3.79558C35.4374 3.91344 35.6436 4.08602 35.7867 4.31331C35.9341 4.5364 36.0077 4.8079 36.0077 5.12779C36.0077 5.43928 35.9341 5.70866 35.7867 5.93596C35.6436 6.15905 35.4374 6.33163 35.168 6.45369C34.8986 6.57155 34.5766 6.63048 34.202 6.63048H32.8066L33.015 6.41581V8.03214H32.5477ZM35.5657 8.03214L34.4293 6.42844H34.9344L36.0772 8.03214H35.5657ZM33.015 6.45369L32.8066 6.23271H34.1893C34.6313 6.23271 34.9659 6.1359 35.1932 5.94227C35.4247 5.74865 35.5405 5.47716 35.5405 5.12779C35.5405 4.77422 35.4247 4.50062 35.1932 4.307C34.9659 4.11338 34.6313 4.01657 34.1893 4.01657H32.8066L33.015 3.79558V6.45369ZM38.4237 8.06371C38.0786 8.06371 37.7755 7.99216 37.5145 7.84904C37.2536 7.70172 37.0494 7.50178 36.9021 7.24923C36.7548 6.99247 36.6811 6.69993 36.6811 6.37161C36.6811 6.0433 36.7506 5.75286 36.8895 5.50031C37.0326 5.24776 37.2262 5.04992 37.4703 4.90681C37.7187 4.75949 37.9965 4.68583 38.3038 4.68583C38.6152 4.68583 38.8909 4.75738 39.1309 4.9005C39.375 5.0394 39.5665 5.23723 39.7054 5.494C39.8443 5.74655 39.9138 6.03909 39.9138 6.37161C39.9138 6.39266 39.9117 6.41581 39.9075 6.44107C39.9075 6.46211 39.9075 6.48526 39.9075 6.51052H37.0221V6.17589H39.6675L39.4908 6.30848C39.4908 6.06855 39.4381 5.85599 39.3329 5.67078C39.2319 5.48137 39.093 5.33405 38.9162 5.22882C38.7394 5.12359 38.5353 5.07097 38.3038 5.07097C38.0765 5.07097 37.8723 5.12359 37.6913 5.22882C37.5103 5.33405 37.3693 5.48137 37.2683 5.67078C37.1673 5.8602 37.1168 6.07697 37.1168 6.3211V6.39055C37.1168 6.64311 37.1715 6.86619 37.2809 7.05982C37.3946 7.24923 37.5503 7.39866 37.7482 7.5081C37.9502 7.61333 38.1796 7.66594 38.4364 7.66594C38.6384 7.66594 38.8257 7.63016 38.9983 7.55861C39.1751 7.48705 39.3266 7.37761 39.4529 7.23029L39.7054 7.52072C39.5581 7.69751 39.3729 7.83221 39.1498 7.92481C38.9309 8.01741 38.6889 8.06371 38.4237 8.06371ZM42.2405 9.28859C41.9375 9.28859 41.647 9.24439 41.3692 9.156C41.0914 9.06761 40.8662 8.94133 40.6936 8.77717L40.9209 8.43623C41.0767 8.57513 41.2682 8.68457 41.4955 8.76454C41.727 8.84873 41.9711 8.89082 42.2279 8.89082C42.6488 8.89082 42.9582 8.7919 43.156 8.59407C43.3539 8.40045 43.4528 8.09739 43.4528 7.68488V6.85778L43.5159 6.28953L43.4717 5.72129V4.7174H43.901V7.62806C43.901 8.20051 43.76 8.61933 43.478 8.88451C43.2002 9.15389 42.7877 9.28859 42.2405 9.28859ZM42.1584 7.90587C41.8427 7.90587 41.5586 7.83852 41.3061 7.70383C41.0535 7.56492 40.8536 7.3734 40.7063 7.12927C40.5632 6.88514 40.4916 6.60522 40.4916 6.28953C40.4916 5.97384 40.5632 5.69604 40.7063 5.45611C40.8536 5.21198 41.0535 5.02256 41.3061 4.88787C41.5586 4.75318 41.8427 4.68583 42.1584 4.68583C42.4531 4.68583 42.7183 4.74686 42.954 4.86893C43.1897 4.991 43.377 5.17199 43.5159 5.41192C43.6548 5.65184 43.7243 5.94438 43.7243 6.28953C43.7243 6.63469 43.6548 6.92723 43.5159 7.16715C43.377 7.40708 43.1897 7.59018 42.954 7.71645C42.7183 7.84273 42.4531 7.90587 42.1584 7.90587ZM42.2026 7.5081C42.4468 7.5081 42.6635 7.45759 42.853 7.35657C43.0424 7.25134 43.1918 7.10822 43.3012 6.92723C43.4107 6.74202 43.4654 6.52946 43.4654 6.28953C43.4654 6.04961 43.4107 5.83915 43.3012 5.65815C43.1918 5.47716 43.0424 5.33615 42.853 5.23513C42.6635 5.1299 42.4468 5.07728 42.2026 5.07728C41.9627 5.07728 41.7459 5.1299 41.5523 5.23513C41.3629 5.33615 41.2135 5.47716 41.104 5.65815C40.9988 5.83915 40.9462 6.04961 40.9462 6.28953C40.9462 6.52946 40.9988 6.74202 41.104 6.92723C41.2135 7.10822 41.3629 7.25134 41.5523 7.35657C41.7459 7.45759 41.9627 7.5081 42.2026 7.5081ZM45.1485 8.03214V4.7174H45.5967V8.03214H45.1485ZM45.3758 3.985C45.2832 3.985 45.2053 3.95343 45.1422 3.89029C45.079 3.82715 45.0474 3.75139 45.0474 3.66299C45.0474 3.5746 45.079 3.50094 45.1422 3.44201C45.2053 3.37887 45.2832 3.3473 45.3758 3.3473C45.4684 3.3473 45.5462 3.37677 45.6094 3.4357C45.6725 3.49462 45.7041 3.56829 45.7041 3.65668C45.7041 3.74928 45.6725 3.82715 45.6094 3.89029C45.5504 3.95343 45.4726 3.985 45.3758 3.985ZM47.7343 8.06371C47.4607 8.06371 47.2018 8.02583 46.9577 7.95006C46.7136 7.87009 46.5221 7.77117 46.3832 7.65331L46.5852 7.29974C46.7199 7.40076 46.8925 7.48916 47.1029 7.56492C47.3134 7.63648 47.5344 7.67226 47.7659 7.67226C48.0816 7.67226 48.3089 7.62385 48.4478 7.52704C48.5867 7.42602 48.6561 7.29343 48.6561 7.12927C48.6561 7.0072 48.6161 6.9125 48.5362 6.84515C48.4604 6.77359 48.3594 6.72098 48.2331 6.6873C48.1068 6.64942 47.9658 6.61785 47.8101 6.5926C47.6543 6.56734 47.4986 6.53788 47.3429 6.5042C47.1913 6.47053 47.0524 6.42212 46.9261 6.35899C46.7999 6.29164 46.6967 6.20114 46.6168 6.08749C46.541 5.97384 46.5031 5.82231 46.5031 5.6329C46.5031 5.4519 46.5536 5.28985 46.6547 5.14674C46.7557 5.00362 46.903 4.89208 47.0966 4.8121C47.2945 4.72792 47.5344 4.68583 47.8164 4.68583C48.0311 4.68583 48.2457 4.71529 48.4604 4.77422C48.6751 4.82894 48.8519 4.9026 48.9908 4.9952L48.795 5.35509C48.6477 5.25407 48.4899 5.18251 48.3215 5.14042C48.1531 5.09412 47.9848 5.07097 47.8164 5.07097C47.5175 5.07097 47.2966 5.12359 47.1534 5.22882C47.0145 5.32984 46.9451 5.46032 46.9451 5.62027C46.9451 5.74655 46.983 5.84546 47.0587 5.91702C47.1387 5.98858 47.2418 6.0454 47.3681 6.08749C47.4986 6.12537 47.6396 6.15694 47.7911 6.1822C47.9469 6.20745 48.1005 6.23902 48.252 6.27691C48.4078 6.31058 48.5488 6.35899 48.6751 6.42212C48.8056 6.48105 48.9087 6.56734 48.9844 6.68099C49.0644 6.79043 49.1044 6.93565 49.1044 7.11664C49.1044 7.31026 49.0497 7.47863 48.9402 7.62175C48.835 7.76065 48.6793 7.87009 48.473 7.95006C48.271 8.02583 48.0247 8.06371 47.7343 8.06371ZM50.9751 8.06371C50.6636 8.06371 50.4237 7.97953 50.2553 7.81116C50.0869 7.64279 50.0027 7.40497 50.0027 7.0977V3.985H50.451V7.07244C50.451 7.26607 50.4994 7.41549 50.5962 7.52072C50.6973 7.62595 50.8404 7.67857 51.0256 7.67857C51.2234 7.67857 51.3876 7.62175 51.5181 7.5081L51.6759 7.8301C51.5875 7.91008 51.4802 7.969 51.3539 8.00689C51.2318 8.04477 51.1056 8.06371 50.9751 8.06371ZM49.4092 5.08991V4.7174H51.4612V5.08991H49.4092ZM52.492 8.03214V4.7174H52.9213V5.62027L52.8771 5.46243C52.9697 5.20987 53.1254 5.01836 53.3443 4.88787C53.5632 4.75318 53.8347 4.68583 54.1588 4.68583V5.12148C54.142 5.12148 54.1251 5.12148 54.1083 5.12148C54.0915 5.11727 54.0746 5.11517 54.0578 5.11517C53.7084 5.11517 53.4348 5.2225 53.237 5.43717C53.0392 5.64763 52.9402 5.94859 52.9402 6.34004V8.03214H52.492ZM56.8074 8.03214V7.29974L56.7884 7.17978V5.9549C56.7884 5.67289 56.7085 5.45611 56.5485 5.30458C56.3928 5.15305 56.1592 5.07728 55.8477 5.07728C55.633 5.07728 55.4289 5.11306 55.2353 5.18462C55.0416 5.25618 54.8775 5.35088 54.7428 5.46874L54.5407 5.13411C54.7091 4.991 54.9111 4.88156 55.1469 4.80579C55.3826 4.72582 55.6309 4.68583 55.8919 4.68583C56.3212 4.68583 56.6516 4.79316 56.8832 5.00783C57.1189 5.21829 57.2367 5.5403 57.2367 5.97384V8.03214H56.8074ZM55.6646 8.06371C55.4162 8.06371 55.1995 8.02372 55.0143 7.94375C54.8333 7.85957 54.6944 7.74592 54.5976 7.6028C54.5007 7.45548 54.4523 7.28711 54.4523 7.0977C54.4523 6.92512 54.4923 6.76938 54.5723 6.63048C54.6565 6.48737 54.7912 6.37372 54.9764 6.28953C55.1658 6.20114 55.4184 6.15694 55.734 6.15694H56.8768V6.49158H55.7467C55.4268 6.49158 55.2037 6.5484 55.0774 6.66205C54.9553 6.7757 54.8943 6.9167 54.8943 7.08507C54.8943 7.27449 54.968 7.42602 55.1153 7.53967C55.2626 7.65331 55.4689 7.71014 55.734 7.71014C55.9866 7.71014 56.2034 7.65331 56.3844 7.53967C56.5696 7.42181 56.7043 7.25344 56.7884 7.03456L56.8895 7.34394C56.8053 7.56282 56.658 7.7375 56.4475 7.86798C56.2413 7.99847 55.9803 8.06371 55.6646 8.06371ZM59.5024 8.06371C59.1909 8.06371 58.951 7.97953 58.7826 7.81116C58.6143 7.64279 58.5301 7.40497 58.5301 7.0977V3.985H58.9784V7.07244C58.9784 7.26607 59.0268 7.41549 59.1236 7.52072C59.2246 7.62595 59.3677 7.67857 59.5529 7.67857C59.7507 7.67857 59.9149 7.62175 60.0454 7.5081L60.2032 7.8301C60.1148 7.91008 60.0075 7.969 59.8812 8.00689C59.7592 8.04477 59.6329 8.06371 59.5024 8.06371ZM57.9366 5.08991V4.7174H59.9886V5.08991H57.9366ZM61.0193 8.03214V4.7174H61.4676V8.03214H61.0193ZM61.2466 3.985C61.154 3.985 61.0761 3.95343 61.013 3.89029C60.9498 3.82715 60.9183 3.75139 60.9183 3.66299C60.9183 3.5746 60.9498 3.50094 61.013 3.44201C61.0761 3.37887 61.154 3.3473 61.2466 3.3473C61.3392 3.3473 61.4171 3.37677 61.4802 3.4357C61.5433 3.49462 61.5749 3.56829 61.5749 3.65668C61.5749 3.74928 61.5433 3.82715 61.4802 3.89029C61.4213 3.95343 61.3434 3.985 61.2466 3.985ZM64.066 8.06371C63.7461 8.06371 63.4578 7.99216 63.201 7.84904C62.9485 7.70172 62.7486 7.50178 62.6012 7.24923C62.4539 6.99247 62.3803 6.69993 62.3803 6.37161C62.3803 6.03909 62.4539 5.74655 62.6012 5.494C62.7486 5.24144 62.9485 5.04361 63.201 4.9005C63.4536 4.75738 63.7419 4.68583 64.066 4.68583C64.3944 4.68583 64.6848 4.75738 64.9373 4.9005C65.1941 5.04361 65.394 5.24144 65.5372 5.494C65.6845 5.74655 65.7581 6.03909 65.7581 6.37161C65.7581 6.69993 65.6845 6.99247 65.5372 7.24923C65.394 7.50178 65.1941 7.70172 64.9373 7.84904C64.6806 7.99216 64.3901 8.06371 64.066 8.06371ZM64.066 7.66594C64.306 7.66594 64.5185 7.61333 64.7037 7.5081C64.8889 7.39866 65.0342 7.24713 65.1394 7.0535C65.2488 6.85567 65.3035 6.62837 65.3035 6.37161C65.3035 6.11064 65.2488 5.88335 65.1394 5.68972C65.0342 5.4961 64.8889 5.34667 64.7037 5.24144C64.5185 5.132 64.3081 5.07728 64.0724 5.07728C63.8366 5.07728 63.6262 5.132 63.441 5.24144C63.2558 5.34667 63.1084 5.4961 62.999 5.68972C62.8896 5.88335 62.8348 6.11064 62.8348 6.37161C62.8348 6.62837 62.8896 6.85567 62.999 7.0535C63.1084 7.24713 63.2558 7.39866 63.441 7.5081C63.6262 7.61333 63.8345 7.66594 64.066 7.66594ZM68.3654 4.68583C68.6348 4.68583 68.8705 4.73844 69.0726 4.84367C69.2788 4.94469 69.4388 5.10043 69.5524 5.31089C69.6703 5.52135 69.7292 5.78653 69.7292 6.10643V8.03214H69.2809V6.15063C69.2809 5.80127 69.1926 5.53819 69.0158 5.36141C68.8432 5.18041 68.5991 5.08991 68.2834 5.08991C68.0476 5.08991 67.8414 5.13832 67.6646 5.23513C67.492 5.32773 67.3573 5.46453 67.2605 5.64553C67.1679 5.82231 67.1216 6.03698 67.1216 6.28953V8.03214H66.6733V4.7174H67.1027V5.62658L67.0332 5.45611C67.1385 5.21619 67.3068 5.02888 67.5383 4.89418C67.7698 4.75528 68.0455 4.68583 68.3654 4.68583ZM71.8303 8.06371C71.5567 8.06371 71.2979 8.02583 71.0537 7.95006C70.8096 7.87009 70.6181 7.77117 70.4792 7.65331L70.6812 7.29974C70.8159 7.40076 70.9885 7.48916 71.199 7.56492C71.4094 7.63648 71.6304 7.67226 71.8619 7.67226C72.1776 7.67226 72.4049 7.62385 72.5438 7.52704C72.6827 7.42602 72.7522 7.29343 72.7522 7.12927C72.7522 7.0072 72.7122 6.9125 72.6322 6.84515C72.5564 6.77359 72.4554 6.72098 72.3291 6.6873C72.2029 6.64942 72.0618 6.61785 71.9061 6.5926C71.7504 6.56734 71.5946 6.53788 71.4389 6.5042C71.2874 6.47053 71.1484 6.42212 71.0222 6.35899C70.8959 6.29164 70.7928 6.20114 70.7128 6.08749C70.637 5.97384 70.5991 5.82231 70.5991 5.6329C70.5991 5.4519 70.6497 5.28985 70.7507 5.14674C70.8517 5.00362 70.999 4.89208 71.1926 4.8121C71.3905 4.72792 71.6304 4.68583 71.9124 4.68583C72.1271 4.68583 72.3418 4.71529 72.5564 4.77422C72.7711 4.82894 72.9479 4.9026 73.0868 4.9952L72.8911 5.35509C72.7437 5.25407 72.5859 5.18251 72.4175 5.14042C72.2492 5.09412 72.0808 5.07097 71.9124 5.07097C71.6136 5.07097 71.3926 5.12359 71.2495 5.22882C71.1106 5.32984 71.0411 5.46032 71.0411 5.62027C71.0411 5.74655 71.079 5.84546 71.1548 5.91702C71.2347 5.98858 71.3379 6.0454 71.4641 6.08749C71.5946 6.12537 71.7356 6.15694 71.8872 6.1822C72.0429 6.20745 72.1965 6.23902 72.3481 6.27691C72.5038 6.31058 72.6448 6.35899 72.7711 6.42212C72.9016 6.48105 73.0047 6.56734 73.0805 6.68099C73.1604 6.79043 73.2004 6.93565 73.2004 7.11664C73.2004 7.31026 73.1457 7.47863 73.0363 7.62175C72.931 7.76065 72.7753 7.87009 72.5691 7.95006C72.367 8.02583 72.1208 8.06371 71.8303 8.06371Z" fill="white"/>
<rect x="81.707" y="3.19094" width="14.5217" height="5.68242" fill="#699BF7" fill-opacity="0.4" stroke="#699BF7" stroke-width="1.26276"/>
<path d="M100.522 5.75286H102.858V6.15694H100.522V5.75286ZM100.573 8.03214H100.105V3.61248H103.136V4.01657H100.573V8.03214ZM104.99 8.03214V4.01657H103.437V3.61248H107.011V4.01657H105.458V8.03214H104.99ZM107.757 8.03214V3.61248H109.557C110.028 3.61248 110.441 3.70719 110.794 3.8966C111.152 4.08181 111.43 4.34067 111.628 4.6732C111.825 5.00573 111.924 5.38877 111.924 5.82231C111.924 6.25586 111.825 6.6389 111.628 6.97142C111.43 7.30395 111.152 7.56492 110.794 7.75434C110.441 7.93954 110.028 8.03214 109.557 8.03214H107.757ZM108.224 7.62806H109.531C109.923 7.62806 110.262 7.55229 110.548 7.40076C110.838 7.24502 111.064 7.03246 111.223 6.76307C111.383 6.48947 111.463 6.17589 111.463 5.82231C111.463 5.46453 111.383 5.15095 111.223 4.88156C111.064 4.61217 110.838 4.40171 110.548 4.25018C110.262 4.09444 109.923 4.01657 109.531 4.01657H108.224V7.62806ZM113.769 8.06371C113.495 8.06371 113.237 8.02583 112.992 7.95006C112.748 7.87009 112.557 7.77117 112.418 7.65331L112.62 7.29974C112.755 7.40076 112.927 7.48916 113.138 7.56492C113.348 7.63648 113.569 7.67226 113.801 7.67226C114.116 7.67226 114.344 7.62385 114.482 7.52704C114.621 7.42602 114.691 7.29343 114.691 7.12927C114.691 7.0072 114.651 6.9125 114.571 6.84515C114.495 6.77359 114.394 6.72098 114.268 6.6873C114.142 6.64942 114.001 6.61785 113.845 6.5926C113.689 6.56734 113.533 6.53788 113.378 6.5042C113.226 6.47053 113.087 6.42212 112.961 6.35899C112.835 6.29164 112.731 6.20114 112.651 6.08749C112.576 5.97384 112.538 5.82231 112.538 5.6329C112.538 5.4519 112.588 5.28985 112.689 5.14674C112.79 5.00362 112.938 4.89208 113.131 4.8121C113.329 4.72792 113.569 4.68583 113.851 4.68583C114.066 4.68583 114.28 4.71529 114.495 4.77422C114.71 4.82894 114.887 4.9026 115.025 4.9952L114.83 5.35509C114.682 5.25407 114.525 5.18251 114.356 5.14042C114.188 5.09412 114.019 5.07097 113.851 5.07097C113.552 5.07097 113.331 5.12359 113.188 5.22882C113.049 5.32984 112.98 5.46032 112.98 5.62027C112.98 5.74655 113.018 5.84546 113.093 5.91702C113.173 5.98858 113.277 6.0454 113.403 6.08749C113.533 6.12537 113.674 6.15694 113.826 6.1822C113.982 6.20745 114.135 6.23902 114.287 6.27691C114.442 6.31058 114.583 6.35899 114.71 6.42212C114.84 6.48105 114.943 6.56734 115.019 6.68099C115.099 6.79043 115.139 6.93565 115.139 7.11664C115.139 7.31026 115.084 7.47863 114.975 7.62175C114.87 7.76065 114.714 7.87009 114.508 7.95006C114.306 8.02583 114.059 8.06371 113.769 8.06371Z" fill="white"/>
<rect x="16.0435" y="18.448" width="97.8639" height="0.441966" fill="#505C69"/>
<rect x="16.0435" y="43.5139" width="97.8639" height="0.441966" fill="#505C69"/>
<rect x="16.0435" y="68.5798" width="97.8639" height="0.441966" fill="#505C69"/>
<rect x="16.0435" y="93.6457" width="97.8639" height="0.441966" fill="#505C69"/>
<rect x="16.0435" y="118.712" width="97.8639" height="0.441966" fill="#505C69"/>
<rect x="16.0435" y="143.778" width="97.8639" height="0.441966" fill="#505C69"/>
<path d="M21.4384 116.364C18.4469 121.091 15.8828 116.364 15.8828 116.364V144.093H113.747V47.6733C107.123 47.0431 102.849 99.0339 99.8577 98.0886C98.8548 97.7717 96.2252 98.0886 96.2252 98.0886C96.2252 98.0886 90.6031 100.609 85.3277 70.0451C84.9274 67.726 84.6867 65.6338 84.6867 65.6338C84.6867 65.6338 84.4498 60.1787 82.7636 53.0299C81.0542 45.7827 80.3637 41.2897 77.849 35.6997C74.9168 29.1815 70.0216 29.0827 67.5925 37.5903C65.4334 45.1526 62.8157 83.2791 57.1224 81.3886C55.0532 80.7014 52.6124 84.4364 51.9941 85.7999C51.137 87.6905 49.5261 95.883 48.5753 99.0339C47.8055 101.585 46.8659 109.117 44.0881 110.692C41.3103 112.268 40.883 111.638 40.0283 110.692C39.1735 109.747 33.2457 98.3176 29.3444 100.609C25.4431 102.901 25.4982 103.445 21.4384 116.364Z" fill="#1BB092" fill-opacity="0.4"/>
<path d="M16.5142 116.223C23.5501 126.662 22.4841 102.621 29.3068 100.406C36.1296 98.1918 37.7275 113.495 44.0184 111.161C49.1355 109.263 50.2015 80.1609 57.8771 81.4262C65.5527 82.6916 64.2735 31.7621 72.1623 30.4967C80.0511 29.2314 83.036 51.0583 86.2342 72.5689C89.4324 94.0795 94.5494 99.7735 99.8797 97.8755C105.21 95.9775 106.063 46.6297 114.378 47.895" stroke="#1AB394" stroke-width="1.26276"/>
<path d="M16.173 117.89C17.2545 117.89 18.1637 117.06 18.1637 115.996C18.1637 114.933 17.2545 114.102 16.173 114.102C15.0915 114.102 14.1823 114.933 14.1823 115.996C14.1823 117.06 15.0915 117.89 16.173 117.89Z" fill="#1AB394" stroke="#161D31" stroke-width="0.63138"/>
<path d="M114.159 49.7013C115.24 49.7013 116.15 48.8707 116.15 47.8072C116.15 46.7437 115.24 45.913 114.159 45.913C113.077 45.913 112.168 46.7437 112.168 47.8072C112.168 48.8707 113.077 49.7013 114.159 49.7013Z" fill="#1AB394" stroke="#161D31" stroke-width="0.63138"/>
<path d="M102.163 95.7921C103.244 95.7921 104.153 94.9614 104.153 93.8979C104.153 92.8344 103.244 92.0038 102.163 92.0038C101.081 92.0038 100.172 92.8344 100.172 93.8979C100.172 94.9614 101.081 95.7921 102.163 95.7921Z" fill="#1AB394" stroke="#161D31" stroke-width="0.63138"/>
<path d="M64.9113 55.3837C65.9928 55.3837 66.902 54.5531 66.902 53.4896C66.902 52.4261 65.9928 51.5955 64.9113 51.5955C63.8298 51.5955 62.9206 52.4261 62.9206 53.4896C62.9206 54.5531 63.8298 55.3837 64.9113 55.3837Z" fill="#1AB394" stroke="#161D31" stroke-width="0.63138"/>
<path d="M50.3896 95.7921C51.4711 95.7921 52.3803 94.9614 52.3803 93.8979C52.3803 92.8344 51.4711 92.0038 50.3896 92.0038C49.3081 92.0038 48.3989 92.8344 48.3989 93.8979C48.3989 94.9614 49.3081 95.7921 50.3896 95.7921Z" fill="#1AB394" stroke="#161D31" stroke-width="0.63138"/>
<path d="M40.9189 112.839C42.0004 112.839 42.9096 112.009 42.9096 110.945C42.9096 109.882 42.0004 109.051 40.9189 109.051C39.8374 109.051 38.9282 109.882 38.9282 110.945C38.9282 112.009 39.8374 112.839 40.9189 112.839Z" fill="#1AB394" stroke="#161D31" stroke-width="0.63138"/>
<path d="M15.6979 143.145C15.6979 143.145 16.5654 144.088 15.2641 144.093L112.86 143.777H114.378C111.342 143.777 107.221 125.151 100.498 125.151C93.7745 125.151 93.3408 136.2 85.9668 132.412C78.5929 128.624 79.0267 106.21 72.0866 106.21C63.6283 106.21 62.9776 134.938 57.5556 134.938C51.483 134.938 46.2779 123.573 40.4222 128.308C35.0002 132.693 35.217 118.837 29.3613 118.522C23.5055 118.206 19.3848 138.41 15.6979 143.145Z" fill="#699BF7" fill-opacity="0.38" stroke="#699BF7" stroke-width="1.26276"/>
<path d="M16.1953 145.04C17.2691 145.04 18.1651 144.206 18.1651 143.146C18.1651 142.086 17.2691 141.251 16.1953 141.251C15.1214 141.251 14.2254 142.086 14.2254 143.146C14.2254 144.206 15.1214 145.04 16.1953 145.04Z" fill="#699BF7" stroke="#161D31" stroke-width="0.63138"/>
<path d="M113.507 145.04C114.581 145.04 115.477 144.205 115.477 143.146C115.477 142.086 114.581 141.251 113.507 141.251C112.433 141.251 111.537 142.086 111.537 143.146C111.537 144.205 112.433 145.04 113.507 145.04Z" fill="#699BF7" stroke="#161D31" stroke-width="0.63138"/>
<path d="M89.5143 134.938C90.5881 134.938 91.4841 134.103 91.4841 133.043C91.4841 131.984 90.5881 131.149 89.5143 131.149C88.4404 131.149 87.5444 131.984 87.5444 133.043C87.5444 134.103 88.4404 134.938 89.5143 134.938Z" fill="#699BF7" stroke="#161D31" stroke-width="0.63138"/>
<path d="M64.2591 121.047C65.3329 121.047 66.2289 120.213 66.2289 119.153C66.2289 118.093 65.3329 117.259 64.2591 117.259C63.1852 117.259 62.2892 118.093 62.2892 119.153C62.2892 120.213 63.1852 121.047 64.2591 121.047Z" fill="#699BF7" stroke="#161D31" stroke-width="0.63138"/>
<path d="M59.208 135.569C60.2818 135.569 61.1778 134.735 61.1778 133.675C61.1778 132.615 60.2818 131.781 59.208 131.781C58.1342 131.781 57.2382 132.615 57.2382 133.675C57.2382 134.735 58.1342 135.569 59.208 135.569Z" fill="#699BF7" stroke="#161D31" stroke-width="0.63138"/>
<path d="M40.898 129.887C41.9718 129.887 42.8678 129.052 42.8678 127.992C42.8678 126.933 41.9718 126.098 40.898 126.098C39.8242 126.098 38.9282 126.933 38.9282 127.992C38.9282 129.052 39.8242 129.887 40.898 129.887Z" fill="#699BF7" stroke="#161D31" stroke-width="0.63138"/>
</svg>
