<svg width="27" height="27" viewBox="0 0 27 27" fill="none" xmlns="http://www.w3.org/2000/svg">
<path d="M11.8195 15.1373C11.7587 15.0137 11.6979 14.8901 11.6372 14.7665C10.6733 12.8065 9.71024 10.846 8.74458 8.88685C8.59525 8.58384 8.51157 8.2678 8.5329 7.93031C8.5792 7.19764 9.00787 6.5582 9.71997 6.26206C10.643 5.87819 11.7446 6.31945 12.1992 7.28725C12.5021 7.93226 12.8254 8.56773 13.1397 9.20747C13.1638 9.25655 13.1879 9.30563 13.2218 9.37453C13.5719 9.07478 13.9564 8.87084 14.4137 8.85762C14.8661 8.84454 15.2713 8.98511 15.6353 9.28855C15.9752 8.89263 16.3981 8.6605 16.9295 8.64094C17.4566 8.62151 17.8953 8.81543 18.276 9.16587C18.4144 9.05598 18.5419 8.92806 18.6926 8.83966C19.2989 8.48401 19.9093 8.49227 20.5204 8.84125C20.8745 9.0434 21.1017 9.34663 21.2828 9.70321C21.703 10.5308 22.1354 11.3522 22.5633 12.1759C22.9188 12.8604 23.1695 13.5853 23.3794 14.3244C23.5411 14.8936 23.697 15.4651 23.8315 16.0412C24.0265 16.8763 24.2189 17.7128 24.376 18.5555C24.4842 19.1358 24.3456 19.6841 24.0197 20.1838C23.7979 20.5241 23.5081 20.7844 23.1473 20.9626C21.5602 21.7462 19.9754 22.5349 18.3807 23.303C17.6251 23.667 16.8726 23.6033 16.1641 23.153C15.9883 23.0413 15.8346 22.893 15.6779 22.7535C15.2401 22.3637 14.8238 21.9472 14.3657 21.5832C13.8206 21.1501 13.2393 20.7627 12.6764 20.3517C12.3173 20.0895 11.9639 19.8195 11.6068 19.5545C11.338 19.3552 11.0641 19.1627 10.7986 18.9592C10.4385 18.6833 10.083 18.4014 9.72786 18.1191C9.45863 17.905 9.18512 17.6952 8.92824 17.4669C8.62588 17.1983 8.41109 16.8644 8.34373 16.4613C8.27122 16.0273 8.35864 15.6114 8.56785 15.2245C8.8402 14.7209 9.29333 14.4685 9.83214 14.3619C10.2666 14.2759 10.6709 14.3866 11.0359 14.6331C11.26 14.7845 11.4783 14.9447 11.6997 15.1003C11.7316 15.1227 11.7665 15.1409 11.7999 15.1611C11.8065 15.1532 11.813 15.1452 11.8195 15.1373ZM11.8961 12.5956C12.3036 13.4244 12.7113 14.2531 13.1188 15.0819C13.413 15.6802 13.7095 16.2775 14.0003 16.8775C14.1306 17.1462 14.0726 17.4143 13.8573 17.6027C13.6638 17.772 13.3581 17.8026 13.1523 17.6619C12.8267 17.4392 12.5008 17.2164 12.1843 16.9811C11.6363 16.5735 11.0966 16.1549 10.5506 15.7447C10.46 15.6766 10.3586 15.6195 10.2553 15.5723C10.0664 15.4859 9.7849 15.5694 9.66266 15.7377C9.43746 16.0478 9.48086 16.3749 9.79259 16.6381C10.0134 16.8246 10.241 17.0033 10.4698 17.1801C11.1919 17.7379 11.9102 18.3009 12.6413 18.8468C13.1816 19.2503 13.7426 19.626 14.2884 20.0222C14.6222 20.2645 14.9567 20.5081 15.2696 20.7759C15.7009 21.1452 16.1318 21.5188 16.5262 21.926C16.8839 22.2952 17.4758 22.4522 17.9705 22.1895C18.5624 21.8753 19.1716 21.5935 19.7733 21.2976C20.7059 20.8389 21.6389 20.3812 22.5707 19.9209C22.9459 19.7355 23.1451 19.4298 23.2011 19.0146C23.237 18.7478 23.148 18.5058 23.0923 18.2575C22.8805 17.3134 22.6778 16.3666 22.4376 15.4296C22.268 14.7681 22.0675 14.1119 21.835 13.47C21.6732 13.0233 21.4429 12.6001 21.227 12.1746C20.8775 11.4861 20.5157 10.8037 20.1567 10.1199C20.034 9.88609 19.7631 9.74507 19.5292 9.78511C19.1339 9.85271 18.9259 10.2535 19.1009 10.6304C19.2674 10.989 19.4479 11.3411 19.6213 11.6965C19.7411 11.942 19.7197 12.1798 19.5641 12.3529C19.2515 12.7009 18.753 12.628 18.5426 12.2019C18.221 11.5504 17.9014 10.8979 17.5806 10.246C17.5604 10.2049 17.5396 10.1636 17.5148 10.1251C17.3423 9.85695 17.0089 9.75988 16.7459 9.90011C16.4605 10.0523 16.3612 10.3587 16.4977 10.669C16.5292 10.7405 16.5633 10.811 16.5977 10.8811C16.9077 11.5127 17.2204 12.143 17.527 12.7762C17.6565 13.0435 17.5564 13.3559 17.3011 13.521C17.0508 13.6831 16.7351 13.6388 16.5422 13.4082C16.4899 13.3457 16.4491 13.2717 16.4128 13.1981C15.9613 12.2836 15.5118 11.368 15.0615 10.4529C14.9427 10.2115 14.6658 10.0275 14.4535 10.0479C14.0288 10.0889 13.7875 10.5127 13.977 10.9024C14.4229 11.8195 14.8755 12.7334 15.3248 13.6489C15.3612 13.723 15.3983 13.7976 15.4253 13.8754C15.5409 14.2091 15.3543 14.5494 15.0116 14.6356C14.7038 14.7131 14.4601 14.591 14.3061 14.2781C13.2566 12.1452 12.2078 10.0119 11.1583 7.87894C11.1238 7.80887 11.0891 7.73839 11.0476 7.67245C10.8839 7.41249 10.5293 7.26944 10.2636 7.33361C9.83162 7.43788 9.60682 7.95954 9.81005 8.36484C10.5149 9.77033 11.2021 11.1847 11.8961 12.5956Z" fill="black"/>
<path d="M7.53457 3.3834C7.34821 3.00427 7.1528 2.62927 6.97851 2.24465C6.8637 1.99135 6.9198 1.65473 7.20332 1.48653C7.47069 1.32791 7.78913 1.37224 7.98634 1.60752C8.01832 1.64566 8.04405 1.69037 8.06619 1.73523C8.42964 2.47207 8.79338 3.20879 9.1542 3.94693C9.34392 4.33505 9.14916 4.73773 8.73319 4.82684C8.48181 4.88068 8.20586 4.74313 8.08225 4.4957C7.89758 4.12599 7.71689 3.7543 7.53457 3.3834Z" fill="black"/>
<path d="M6.71557 7.25176C6.54532 7.34457 6.37022 7.30884 6.20516 7.25466C5.78725 7.1175 5.37437 6.96502 4.95836 6.82197C4.60302 6.69979 4.24779 6.57677 3.88936 6.4642C3.56588 6.3626 3.39005 5.9691 3.54081 5.66091C3.69457 5.34656 3.96009 5.22701 4.29193 5.33822C5.07587 5.60093 5.8583 5.86834 6.64012 6.13733C6.89095 6.22363 7.05393 6.44235 7.05571 6.69776C7.05748 6.94955 6.9345 7.13269 6.71557 7.25176Z" fill="black"/>
<path d="M11.3845 4.31145C11.2894 4.12043 11.2947 3.95659 11.3586 3.78119C11.4888 3.424 11.6042 3.06143 11.7263 2.70126C11.8676 2.28422 12.0011 1.8643 12.1538 1.45143C12.279 1.11286 12.6127 0.97163 12.9382 1.09774C13.2307 1.21109 13.3819 1.55343 13.2768 1.86089C13.0645 2.48193 12.8554 3.10407 12.6401 3.72405C12.5653 3.93945 12.4876 4.15537 12.3897 4.36085C12.3011 4.54711 12.1274 4.62285 11.9251 4.62384C11.6733 4.62504 11.4822 4.52111 11.3845 4.31145Z" fill="black"/>
<path d="M5.78802 11.0795C5.41285 11.264 5.03946 11.4523 4.66193 11.6319C4.35314 11.7788 4.00326 11.642 3.86715 11.3306C3.74502 11.0513 3.85229 10.7146 4.13283 10.5734C4.89207 10.1915 5.65517 9.81697 6.42036 9.44706C6.67286 9.32498 6.97443 9.39959 7.13407 9.59956C7.30368 9.81202 7.3231 10.1103 7.15631 10.3294C7.08749 10.4197 6.9789 10.4887 6.87536 10.5422C6.51611 10.7275 6.15113 10.9017 5.78832 11.0801C5.78822 11.0799 5.78812 11.0797 5.78802 11.0795Z" fill="black"/>
<path d="M15.7504 6.17947C15.3754 6.36388 14.9969 6.54171 14.6265 6.73471C14.3022 6.90363 13.923 6.68702 13.8242 6.44625C13.7156 6.18184 13.779 5.82061 14.1335 5.64915C14.8364 5.30928 15.5364 4.96351 16.2381 4.62128C16.3201 4.58131 16.4026 4.53767 16.4899 4.51413C16.7835 4.43494 17.0592 4.5824 17.1746 4.87187C17.2841 5.14676 17.1826 5.45884 16.9208 5.59414C16.5334 5.79436 16.139 5.98113 15.7475 6.17364C15.7485 6.17559 15.7494 6.17754 15.7504 6.17947Z" fill="black"/>
<path d="M11.8961 12.5956C11.2022 11.1846 10.515 9.77025 9.81015 8.36476C9.60693 7.95946 9.83172 7.4378 10.2637 7.33353C10.5294 7.26937 10.8841 7.41241 11.0477 7.67237C11.0892 7.73831 11.1239 7.80879 11.1584 7.87886C12.2079 10.0118 13.2567 12.1451 14.3063 14.2781C14.4602 14.5909 14.7039 14.713 15.0117 14.6355C15.3544 14.5493 15.541 14.209 15.4254 13.8753C15.3984 13.7976 15.3613 13.723 15.3249 13.6488C14.8756 12.7333 14.423 11.8194 13.9771 10.9023C13.7876 10.5126 14.0289 10.0888 14.4536 10.0479C14.6659 10.0274 14.9428 10.2114 15.0616 10.4528C15.5119 11.368 15.9614 12.2835 16.4129 13.1981C16.4492 13.2716 16.4901 13.3456 16.5423 13.4081C16.7352 13.6387 17.0509 13.683 17.3012 13.521C17.5565 13.3558 17.6566 13.0435 17.5271 12.7761C17.2205 12.1429 16.9078 11.5126 16.5978 10.881C16.5634 10.8109 16.5293 10.7404 16.4978 10.6689C16.3613 10.3586 16.4606 10.0523 16.7461 9.90003C17.009 9.7598 17.3424 9.85688 17.5149 10.125C17.5397 10.1635 17.5605 10.2048 17.5808 10.2459C17.9015 10.8978 18.2211 11.5503 18.5427 12.2018C18.7531 12.628 19.2516 12.7008 19.5642 12.3528C19.7198 12.1797 19.7412 11.9419 19.6214 11.6965C19.448 11.3411 19.2675 10.9889 19.101 10.6303C18.926 10.2534 19.134 9.85263 19.5294 9.78503C19.7632 9.745 20.0341 9.88602 20.1569 10.1198C20.5158 10.8036 20.8776 11.486 21.2271 12.1745C21.4431 12.6 21.6733 13.0232 21.8351 13.4699C22.0676 14.1118 22.2681 14.768 22.4377 15.4295C22.6779 16.3665 22.8806 17.3133 23.0924 18.2575C23.1481 18.5057 23.2371 18.7477 23.2012 19.0145C23.1452 19.4298 22.9461 19.7354 22.5708 19.9208C21.639 20.3811 20.706 20.8388 19.7734 21.2975C19.1717 21.5934 18.5625 21.8752 17.9706 22.1895C17.4759 22.4521 16.884 22.2951 16.5263 21.9259C16.1319 21.5187 15.701 21.1451 15.2697 20.7759C14.9568 20.5081 14.6223 20.2644 14.2886 20.0222C13.7427 19.626 13.1817 19.2502 12.6414 18.8467C11.9103 18.3008 11.192 17.7378 10.4699 17.18C10.2411 17.0033 10.0135 16.8245 9.7927 16.638C9.48097 16.3748 9.43756 16.0478 9.66277 15.7376C9.78501 15.5693 10.0665 15.4858 10.2554 15.5722C10.3587 15.6194 10.4601 15.6765 10.5507 15.7446C11.0968 16.1548 11.6364 16.5734 12.1844 16.981C12.5009 17.2163 12.8268 17.4392 13.1524 17.6618C13.3582 17.8025 13.6639 17.7719 13.8574 17.6026C14.0727 17.4142 14.1307 17.1461 14.0004 16.8774C13.7096 16.2774 13.4131 15.6801 13.1189 15.0818C12.7114 14.253 12.3037 13.4243 11.8961 12.5956Z" fill="white"/>
</svg>
