<svg width="80" height="80" viewBox="0 0 80 80" fill="none" xmlns="http://www.w3.org/2000/svg">
<path fill-rule="evenodd" clip-rule="evenodd" d="M66.7457 70.6375C35.5348 70.6018 10.2128 45.2562 10.2128 14.0426C10.2128 13.1251 10.6328 12.2613 11.3566 11.6954C12.0804 11.1324 13.0217 10.9328 13.9123 11.1532C13.9123 11.1532 19.7208 12.6068 23.2267 13.4826C25.8957 14.1498 27.9778 16.2319 28.645 18.9008C29.1544 20.9412 29.8603 23.759 30.3608 25.7607C30.9952 28.2985 30.2505 30.9823 28.4008 32.8321L22.5595 38.6733C27.1497 46.8915 33.959 53.7037 42.1773 58.2909L48.0185 52.4497C49.8683 50.5999 52.5521 49.8553 55.09 50.4897C57.0917 50.9902 59.9095 51.6961 61.95 52.2055C64.6189 52.8727 66.701 54.9548 67.3682 57.6237C68.244 61.1296 69.6976 66.938 69.6976 66.938C70.0967 68.5316 69.1257 70.152 67.5291 70.5512C67.2669 70.6167 67.0018 70.6435 66.7457 70.6375Z" fill="#0F050E"/>
<g filter="url(#filter0_bi_104_1015)">
<path fill-rule="evenodd" clip-rule="evenodd" d="M59.1489 11.064C57.9738 11.064 57.0213 12.0165 57.0213 13.1916V19.5746H50.6383C49.4632 19.5746 48.5106 20.5272 48.5106 21.7023C48.5106 22.8773 49.4632 23.8299 50.6383 23.8299H57.0213V30.2129C57.0213 31.388 57.9738 32.3406 59.1489 32.3406C60.324 32.3406 61.2766 31.388 61.2766 30.2129V23.8299H67.6596C68.8346 23.8299 69.7872 22.8773 69.7872 21.7023C69.7872 20.5272 68.8346 19.5746 67.6596 19.5746H61.2766V13.1916C61.2766 12.0166 60.324 11.064 59.1489 11.064Z" fill="#0F050E"/>
</g>
<defs>
<filter id="filter0_bi_104_1015" x="39.9615" y="2.51483" width="38.3749" height="38.3746" filterUnits="userSpaceOnUse" color-interpolation-filters="sRGB">
<feFlood flood-opacity="0" result="BackgroundImageFix"/>
<feGaussianBlur in="BackgroundImageFix" stdDeviation="4.27457"/>
<feComposite in2="SourceAlpha" operator="in" result="effect1_backgroundBlur_104_1015"/>
<feBlend mode="normal" in="SourceGraphic" in2="effect1_backgroundBlur_104_1015" result="shape"/>
<feColorMatrix in="SourceAlpha" type="matrix" values="0 0 0 0 0 0 0 0 0 0 0 0 0 0 0 0 0 0 127 0" result="hardAlpha"/>
<feOffset dy="1.42486"/>
<feGaussianBlur stdDeviation="2.84971"/>
<feComposite in2="hardAlpha" operator="arithmetic" k2="-1" k3="1"/>
<feColorMatrix type="matrix" values="0 0 0 0 1 0 0 0 0 1 0 0 0 0 1 0 0 0 0.15 0"/>
<feBlend mode="normal" in2="shape" result="effect2_innerShadow_104_1015"/>
</filter>
</defs>
</svg>
