<svg width="96" height="80" viewBox="0 0 96 80" fill="none" xmlns="http://www.w3.org/2000/svg">
<g clip-path="url(#clip0_2002_3749)">
<g filter="url(#filter0_bi_2002_3749)">
<mask id="path-1-inside-1_2002_3749" fill="white">
<path fill-rule="evenodd" clip-rule="evenodd" d="M21.8836 23.8147C24.0992 22.3228 26.3436 21.1666 28.8964 20.6386C31.4247 20.1157 34.4169 20.1761 38.1673 21.3619C41.9196 22.5483 43.5612 23.7258 45.5686 25.1726L45.598 25.1938C47.776 26.7636 50.2855 28.5722 55.5064 30.6439C60.6353 32.6792 65.6258 31.7226 69.6125 30.9584C70.1281 30.8596 70.6269 30.7639 71.107 30.6784C75.4872 29.8984 78.5986 29.7886 81.6011 32.7354C82.9359 34.0455 83.6418 35.1791 84.0208 36.1834C84.3982 37.1836 84.5076 38.2038 84.4428 39.3788C84.3783 40.5492 84.1517 41.7695 83.8714 43.2787L83.8303 43.4998C83.5412 45.0586 83.2191 46.8522 83.1099 48.838C82.8748 53.1139 84.2593 56.1642 85.8022 58.1561C86.4813 59.0328 87.1768 59.6874 87.7483 60.149V68.0542L92.7541 68.0541V57.3271L91.4324 56.637C91.4218 56.6309 91.3994 56.6177 91.3669 56.5972C91.2913 56.5497 91.1626 56.4642 90.9989 56.3379C90.6698 56.084 90.2124 55.6753 89.7596 55.0907C88.882 53.9576 87.9453 52.0737 88.1081 49.1128C88.1979 47.4801 88.4638 45.9673 88.7521 44.4128L88.8111 44.0958C89.0744 42.6825 89.358 41.1601 89.441 39.6544C89.5331 37.9836 89.3895 36.2321 88.7042 34.4161C88.0204 32.6041 86.854 30.877 85.1074 29.1628C80.2324 24.3783 74.8552 24.9264 70.2293 25.7502C69.6904 25.8462 69.1628 25.9444 68.6449 26.0407C64.5378 26.805 61.0428 27.4554 57.3527 25.9911C52.7075 24.1478 50.5726 22.609 48.5703 21.1656L48.4954 21.1116C46.2937 19.5248 44.1552 18.0051 39.6763 16.589C35.1956 15.1723 31.3329 15.023 27.8825 15.7366C24.4566 16.4452 21.5985 17.9718 19.0877 19.6625C16.4671 21.4271 12.3351 25.4822 9.027 28.8847C7.33279 30.6273 5.78957 32.2675 4.67052 33.4714C4.11065 34.0737 3.65611 34.5677 3.34094 34.9117C3.18333 35.0838 3.06053 35.2184 2.97677 35.3104L2.88094 35.4158L2.8471 35.4531C2.84695 35.4533 2.84684 35.4534 4.70221 37.1333L6.55782 38.8129L6.58721 38.7805L6.67832 38.6803C6.75884 38.5919 6.8782 38.461 7.03217 38.2929C7.34015 37.9567 7.78636 37.4718 8.33694 36.8795C9.43878 35.6941 10.9552 34.0824 12.6161 32.3741C16.0181 28.8749 19.7779 25.2326 21.8836 23.8147ZM21.6099 49.2376L8.99087 36.6808L-0.475128 45.9837L3.03393 49.5545L8.96989 43.7208L18.0796 52.7856L21.6099 49.2376ZM69.8389 41.3904L75.9093 48.2155L84.5308 60.6943V68.0538H79.5251V62.2553L72.6243 52.2672H55.0861V68.0538H50.0803V43.0538H55.0861V47.2614H68.3615L66.0986 44.7172L69.8389 41.3904ZM22.2151 35.4891L18.0821 38.0854L18.1036 38.1481L18.1683 38.3344C18.2243 38.4964 18.3046 38.7302 18.4012 39.0147C18.5947 39.5849 18.8517 40.3542 19.1076 41.157C19.3651 41.9648 19.6143 42.7836 19.7966 43.4594C19.8878 43.7971 19.9555 44.0748 19.9989 44.2845C19.8933 44.4757 19.7275 44.719 19.5181 44.9877C19.308 45.2573 19.0917 45.5046 18.9247 45.6871C18.8424 45.777 18.7752 45.8479 18.7306 45.8942C18.7084 45.9172 18.6921 45.934 18.6825 45.9437L18.6751 45.9512C18.6754 45.951 18.6756 45.9507 20.4436 47.7223C22.2117 49.4939 22.2125 49.4931 22.2127 49.4928L22.2172 49.4884L22.2258 49.4797L22.2518 49.4533C22.273 49.4318 22.3017 49.4024 22.3368 49.3659C22.407 49.2931 22.5036 49.1911 22.618 49.0661C22.8442 48.8188 23.1522 48.468 23.4664 48.0648C23.7735 47.6708 24.1275 47.1747 24.4159 46.6402C24.5858 46.3254 24.8105 45.8593 24.9399 45.3045L41.4584 61.853V68.0544H46.4642V59.7822L22.2151 35.4891ZM20.0807 44.1142C20.081 44.1142 20.0795 44.119 20.0756 44.1289C20.0785 44.1193 20.0805 44.1143 20.0807 44.1142Z"/>
</mask>
<path fill-rule="evenodd" clip-rule="evenodd" d="M21.8836 23.8147C24.0992 22.3228 26.3436 21.1666 28.8964 20.6386C31.4247 20.1157 34.4169 20.1761 38.1673 21.3619C41.9196 22.5483 43.5612 23.7258 45.5686 25.1726L45.598 25.1938C47.776 26.7636 50.2855 28.5722 55.5064 30.6439C60.6353 32.6792 65.6258 31.7226 69.6125 30.9584C70.1281 30.8596 70.6269 30.7639 71.107 30.6784C75.4872 29.8984 78.5986 29.7886 81.6011 32.7354C82.9359 34.0455 83.6418 35.1791 84.0208 36.1834C84.3982 37.1836 84.5076 38.2038 84.4428 39.3788C84.3783 40.5492 84.1517 41.7695 83.8714 43.2787L83.8303 43.4998C83.5412 45.0586 83.2191 46.8522 83.1099 48.838C82.8748 53.1139 84.2593 56.1642 85.8022 58.1561C86.4813 59.0328 87.1768 59.6874 87.7483 60.149V68.0542L92.7541 68.0541V57.3271L91.4324 56.637C91.4218 56.6309 91.3994 56.6177 91.3669 56.5972C91.2913 56.5497 91.1626 56.4642 90.9989 56.3379C90.6698 56.084 90.2124 55.6753 89.7596 55.0907C88.882 53.9576 87.9453 52.0737 88.1081 49.1128C88.1979 47.4801 88.4638 45.9673 88.7521 44.4128L88.8111 44.0958C89.0744 42.6825 89.358 41.1601 89.441 39.6544C89.5331 37.9836 89.3895 36.2321 88.7042 34.4161C88.0204 32.6041 86.854 30.877 85.1074 29.1628C80.2324 24.3783 74.8552 24.9264 70.2293 25.7502C69.6904 25.8462 69.1628 25.9444 68.6449 26.0407C64.5378 26.805 61.0428 27.4554 57.3527 25.9911C52.7075 24.1478 50.5726 22.609 48.5703 21.1656L48.4954 21.1116C46.2937 19.5248 44.1552 18.0051 39.6763 16.589C35.1956 15.1723 31.3329 15.023 27.8825 15.7366C24.4566 16.4452 21.5985 17.9718 19.0877 19.6625C16.4671 21.4271 12.3351 25.4822 9.027 28.8847C7.33279 30.6273 5.78957 32.2675 4.67052 33.4714C4.11065 34.0737 3.65611 34.5677 3.34094 34.9117C3.18333 35.0838 3.06053 35.2184 2.97677 35.3104L2.88094 35.4158L2.8471 35.4531C2.84695 35.4533 2.84684 35.4534 4.70221 37.1333L6.55782 38.8129L6.58721 38.7805L6.67832 38.6803C6.75884 38.5919 6.8782 38.461 7.03217 38.2929C7.34015 37.9567 7.78636 37.4718 8.33694 36.8795C9.43878 35.6941 10.9552 34.0824 12.6161 32.3741C16.0181 28.8749 19.7779 25.2326 21.8836 23.8147ZM21.6099 49.2376L8.99087 36.6808L-0.475128 45.9837L3.03393 49.5545L8.96989 43.7208L18.0796 52.7856L21.6099 49.2376ZM69.8389 41.3904L75.9093 48.2155L84.5308 60.6943V68.0538H79.5251V62.2553L72.6243 52.2672H55.0861V68.0538H50.0803V43.0538H55.0861V47.2614H68.3615L66.0986 44.7172L69.8389 41.3904ZM22.2151 35.4891L18.0821 38.0854L18.1036 38.1481L18.1683 38.3344C18.2243 38.4964 18.3046 38.7302 18.4012 39.0147C18.5947 39.5849 18.8517 40.3542 19.1076 41.157C19.3651 41.9648 19.6143 42.7836 19.7966 43.4594C19.8878 43.7971 19.9555 44.0748 19.9989 44.2845C19.8933 44.4757 19.7275 44.719 19.5181 44.9877C19.308 45.2573 19.0917 45.5046 18.9247 45.6871C18.8424 45.777 18.7752 45.8479 18.7306 45.8942C18.7084 45.9172 18.6921 45.934 18.6825 45.9437L18.6751 45.9512C18.6754 45.951 18.6756 45.9507 20.4436 47.7223C22.2117 49.4939 22.2125 49.4931 22.2127 49.4928L22.2172 49.4884L22.2258 49.4797L22.2518 49.4533C22.273 49.4318 22.3017 49.4024 22.3368 49.3659C22.407 49.2931 22.5036 49.1911 22.618 49.0661C22.8442 48.8188 23.1522 48.468 23.4664 48.0648C23.7735 47.6708 24.1275 47.1747 24.4159 46.6402C24.5858 46.3254 24.8105 45.8593 24.9399 45.3045L41.4584 61.853V68.0544H46.4642V59.7822L22.2151 35.4891ZM20.0807 44.1142C20.081 44.1142 20.0795 44.119 20.0756 44.1289C20.0785 44.1193 20.0805 44.1143 20.0807 44.1142Z" fill="#F1F1F1" fill-opacity="0.1"/>
<path fill-rule="evenodd" clip-rule="evenodd" d="M21.8836 23.8147C24.0992 22.3228 26.3436 21.1666 28.8964 20.6386C31.4247 20.1157 34.4169 20.1761 38.1673 21.3619C41.9196 22.5483 43.5612 23.7258 45.5686 25.1726L45.598 25.1938C47.776 26.7636 50.2855 28.5722 55.5064 30.6439C60.6353 32.6792 65.6258 31.7226 69.6125 30.9584C70.1281 30.8596 70.6269 30.7639 71.107 30.6784C75.4872 29.8984 78.5986 29.7886 81.6011 32.7354C82.9359 34.0455 83.6418 35.1791 84.0208 36.1834C84.3982 37.1836 84.5076 38.2038 84.4428 39.3788C84.3783 40.5492 84.1517 41.7695 83.8714 43.2787L83.8303 43.4998C83.5412 45.0586 83.2191 46.8522 83.1099 48.838C82.8748 53.1139 84.2593 56.1642 85.8022 58.1561C86.4813 59.0328 87.1768 59.6874 87.7483 60.149V68.0542L92.7541 68.0541V57.3271L91.4324 56.637C91.4218 56.6309 91.3994 56.6177 91.3669 56.5972C91.2913 56.5497 91.1626 56.4642 90.9989 56.3379C90.6698 56.084 90.2124 55.6753 89.7596 55.0907C88.882 53.9576 87.9453 52.0737 88.1081 49.1128C88.1979 47.4801 88.4638 45.9673 88.7521 44.4128L88.8111 44.0958C89.0744 42.6825 89.358 41.1601 89.441 39.6544C89.5331 37.9836 89.3895 36.2321 88.7042 34.4161C88.0204 32.6041 86.854 30.877 85.1074 29.1628C80.2324 24.3783 74.8552 24.9264 70.2293 25.7502C69.6904 25.8462 69.1628 25.9444 68.6449 26.0407C64.5378 26.805 61.0428 27.4554 57.3527 25.9911C52.7075 24.1478 50.5726 22.609 48.5703 21.1656L48.4954 21.1116C46.2937 19.5248 44.1552 18.0051 39.6763 16.589C35.1956 15.1723 31.3329 15.023 27.8825 15.7366C24.4566 16.4452 21.5985 17.9718 19.0877 19.6625C16.4671 21.4271 12.3351 25.4822 9.027 28.8847C7.33279 30.6273 5.78957 32.2675 4.67052 33.4714C4.11065 34.0737 3.65611 34.5677 3.34094 34.9117C3.18333 35.0838 3.06053 35.2184 2.97677 35.3104L2.88094 35.4158L2.8471 35.4531C2.84695 35.4533 2.84684 35.4534 4.70221 37.1333L6.55782 38.8129L6.58721 38.7805L6.67832 38.6803C6.75884 38.5919 6.8782 38.461 7.03217 38.2929C7.34015 37.9567 7.78636 37.4718 8.33694 36.8795C9.43878 35.6941 10.9552 34.0824 12.6161 32.3741C16.0181 28.8749 19.7779 25.2326 21.8836 23.8147ZM21.6099 49.2376L8.99087 36.6808L-0.475128 45.9837L3.03393 49.5545L8.96989 43.7208L18.0796 52.7856L21.6099 49.2376ZM69.8389 41.3904L75.9093 48.2155L84.5308 60.6943V68.0538H79.5251V62.2553L72.6243 52.2672H55.0861V68.0538H50.0803V43.0538H55.0861V47.2614H68.3615L66.0986 44.7172L69.8389 41.3904ZM22.2151 35.4891L18.0821 38.0854L18.1036 38.1481L18.1683 38.3344C18.2243 38.4964 18.3046 38.7302 18.4012 39.0147C18.5947 39.5849 18.8517 40.3542 19.1076 41.157C19.3651 41.9648 19.6143 42.7836 19.7966 43.4594C19.8878 43.7971 19.9555 44.0748 19.9989 44.2845C19.8933 44.4757 19.7275 44.719 19.5181 44.9877C19.308 45.2573 19.0917 45.5046 18.9247 45.6871C18.8424 45.777 18.7752 45.8479 18.7306 45.8942C18.7084 45.9172 18.6921 45.934 18.6825 45.9437L18.6751 45.9512C18.6754 45.951 18.6756 45.9507 20.4436 47.7223C22.2117 49.4939 22.2125 49.4931 22.2127 49.4928L22.2172 49.4884L22.2258 49.4797L22.2518 49.4533C22.273 49.4318 22.3017 49.4024 22.3368 49.3659C22.407 49.2931 22.5036 49.1911 22.618 49.0661C22.8442 48.8188 23.1522 48.468 23.4664 48.0648C23.7735 47.6708 24.1275 47.1747 24.4159 46.6402C24.5858 46.3254 24.8105 45.8593 24.9399 45.3045L41.4584 61.853V68.0544H46.4642V59.7822L22.2151 35.4891ZM20.0807 44.1142C20.081 44.1142 20.0795 44.119 20.0756 44.1289C20.0785 44.1193 20.0805 44.1143 20.0807 44.1142Z" fill="url(#paint0_linear_2002_3749)" fill-opacity="0.2"/>
<path d="M28.8964 20.6386L28.781 20.0805L28.8964 20.6386ZM21.8836 23.8147L21.5653 23.3419L21.8836 23.8147ZM38.1673 21.3619L38.3391 20.8185L38.1673 21.3619ZM45.5686 25.1726L45.9019 24.7103L45.9018 24.7103L45.5686 25.1726ZM45.598 25.1938L45.2648 25.6562L45.2648 25.6562L45.598 25.1938ZM55.5064 30.6439L55.7166 30.1142L55.5064 30.6439ZM69.6125 30.9584L69.7198 31.5181L69.7198 31.5181L69.6125 30.9584ZM71.107 30.6784L71.2069 31.2396L71.107 30.6784ZM81.6011 32.7354L82.0003 32.3286L81.6011 32.7354ZM84.0208 36.1834L84.554 35.9822V35.9822L84.0208 36.1834ZM84.4428 39.3788L83.8738 39.3474L84.4428 39.3788ZM83.8714 43.2787L83.311 43.1747L83.311 43.1747L83.8714 43.2787ZM83.8303 43.4998L83.27 43.3958L83.2699 43.3959L83.8303 43.4998ZM83.1099 48.838L82.5408 48.8067V48.8067L83.1099 48.838ZM85.8022 58.1561L85.3516 58.5051L85.8022 58.1561ZM87.7483 60.149H88.3183V59.8767L88.1064 59.7056L87.7483 60.149ZM87.7483 68.0542H87.1784V68.6241L87.7483 68.6241L87.7483 68.0542ZM92.7541 68.0541L92.7541 68.624L93.324 68.624V68.0541H92.7541ZM92.7541 57.3271H93.324V56.9817L93.0179 56.8219L92.7541 57.3271ZM91.4324 56.637L91.1469 57.1303L91.1577 57.1365L91.1686 57.1422L91.4324 56.637ZM91.3669 56.5972L91.0637 57.0798L91.0637 57.0798L91.3669 56.5972ZM90.9989 56.3379L91.3471 55.8867L91.3471 55.8867L90.9989 56.3379ZM89.7596 55.0907L89.309 55.4397L89.309 55.4397L89.7596 55.0907ZM88.1081 49.1128L88.6772 49.1441V49.1441L88.1081 49.1128ZM88.7521 44.4128L88.1918 44.3085L88.1917 44.3088L88.7521 44.4128ZM88.8111 44.0958L88.2508 43.9915L88.2508 43.9916L88.8111 44.0958ZM89.441 39.6544L90.0101 39.6858V39.6858L89.441 39.6544ZM88.7042 34.4161L89.2374 34.2149V34.2149L88.7042 34.4161ZM85.1074 29.1628L84.7082 29.5696L85.1074 29.1628ZM70.2293 25.7502L70.1294 25.1891L70.2293 25.7502ZM68.6449 26.0407L68.7492 26.6011L68.6449 26.0407ZM57.3527 25.9911L57.5629 25.4613L57.3527 25.9911ZM48.5703 21.1656L48.9036 20.7033L48.9036 20.7033L48.5703 21.1656ZM48.4954 21.1116L48.8287 20.6493L48.8286 20.6493L48.4954 21.1116ZM39.6763 16.589L39.8481 16.0456L39.6763 16.589ZM27.8825 15.7366L27.7671 15.1785L27.8825 15.7366ZM19.0877 19.6625L19.406 20.1352L19.0877 19.6625ZM9.027 28.8847L9.43564 29.282L9.027 28.8847ZM4.67052 33.4714L4.25307 33.0833H4.25307L4.67052 33.4714ZM3.34094 34.9117L2.92067 34.5267L2.92066 34.5268L3.34094 34.9117ZM2.97677 35.3104L2.55533 34.9267L2.55508 34.927L2.97677 35.3104ZM2.88094 35.4158L2.45925 35.0324L2.45878 35.0329L2.88094 35.4158ZM2.8471 35.4531L3.26883 35.8365L3.26926 35.836L2.8471 35.4531ZM4.70221 37.1333L4.31968 37.5558L4.31974 37.5558L4.70221 37.1333ZM6.55782 38.8129L6.17535 39.2355L6.59746 39.6175L6.97998 39.1958L6.55782 38.8129ZM6.58721 38.7805L6.16553 38.3971L6.16506 38.3976L6.58721 38.7805ZM6.67832 38.6803L6.25687 38.2966L6.25663 38.2969L6.67832 38.6803ZM7.03217 38.2929L6.6119 37.908H6.6119L7.03217 38.2929ZM8.33694 36.8795L7.91949 36.4914L8.33694 36.8795ZM12.6161 32.3741L12.2074 31.9768L12.6161 32.3741ZM8.99087 36.6808L9.39288 36.2768L8.99336 35.8793L8.59138 36.2743L8.99087 36.6808ZM21.6099 49.2376L22.0139 49.6396L22.4159 49.2356L22.0119 48.8336L21.6099 49.2376ZM-0.475128 45.9837L-0.87462 45.5772L-1.28111 45.9767L-0.881638 46.3832L-0.475128 45.9837ZM3.03393 49.5545L2.62743 49.954L3.02692 50.3605L3.43343 49.961L3.03393 49.5545ZM8.96989 43.7208L9.3719 43.3168L8.97238 42.9193L8.57039 43.3144L8.96989 43.7208ZM18.0796 52.7856L17.6776 53.1897L18.0816 53.5917L18.4836 53.1876L18.0796 52.7856ZM75.9093 48.2155L76.3783 47.8915L76.3584 47.8628L76.3352 47.8367L75.9093 48.2155ZM69.8389 41.3904L70.2648 41.0116L69.886 40.5858L69.4601 40.9645L69.8389 41.3904ZM84.5308 60.6943H85.1008V60.5166L84.9997 60.3703L84.5308 60.6943ZM84.5308 68.0538V68.6237H85.1008V68.0538H84.5308ZM79.5251 68.0538H78.9551V68.6237H79.5251V68.0538ZM79.5251 62.2553H80.095V62.0776L79.994 61.9314L79.5251 62.2553ZM72.6243 52.2672L73.0933 51.9432L72.9233 51.6973H72.6243V52.2672ZM55.0861 52.2672V51.6973H54.5161V52.2672H55.0861ZM55.0861 68.0538V68.6237H55.656V68.0538H55.0861ZM50.0803 68.0538H49.5104V68.6237H50.0803V68.0538ZM50.0803 43.0538V42.4839H49.5104V43.0538H50.0803ZM55.0861 43.0538H55.656V42.4839H55.0861V43.0538ZM55.0861 47.2614H54.5161V47.8314H55.0861V47.2614ZM68.3615 47.2614V47.8314H69.6312L68.7873 46.8826L68.3615 47.2614ZM66.0986 44.7172L65.7198 44.2913L65.2939 44.6701L65.6727 45.096L66.0986 44.7172ZM18.0821 38.0854L17.7789 37.6027L17.3964 37.8431L17.543 38.2704L18.0821 38.0854ZM22.2151 35.4891L22.6184 35.0864L22.2971 34.7645L21.9119 35.0064L22.2151 35.4891ZM18.1036 38.1481L17.5645 38.3331L17.5652 38.3349L18.1036 38.1481ZM18.1683 38.3344L18.7069 38.1482L18.7067 38.1476L18.1683 38.3344ZM18.4012 39.0147L17.8615 39.1979V39.1979L18.4012 39.0147ZM19.1076 41.157L18.5646 41.3302L19.1076 41.157ZM19.7966 43.4594L20.3469 43.3109V43.3109L19.7966 43.4594ZM19.9989 44.2845L20.4978 44.5599L20.5997 44.3755L20.557 44.1691L19.9989 44.2845ZM19.5181 44.9877L19.0685 44.6374L19.5181 44.9877ZM18.9247 45.6871L18.5042 45.3024L18.9247 45.6871ZM18.7306 45.8942L19.1412 46.2894L19.1412 46.2894L18.7306 45.8942ZM18.6825 45.9437L19.0888 46.3434L19.0889 46.3433L18.6825 45.9437ZM18.6751 45.9512L18.2689 45.5514L19.0781 46.3542L18.6751 45.9512ZM20.4436 47.7223L20.847 47.3197L20.4436 47.7223ZM22.2127 49.4928L22.6158 49.8958L22.6159 49.8956L22.2127 49.4928ZM22.2172 49.4884L22.6204 49.8912L22.6212 49.8903L22.2172 49.4884ZM22.2258 49.4797L22.6298 49.8817L22.6312 49.8803L22.2258 49.4797ZM22.2518 49.4533L22.6573 49.8539L22.6583 49.8529L22.2518 49.4533ZM22.3368 49.3659L22.7474 49.7612L22.7474 49.7612L22.3368 49.3659ZM22.618 49.0661L22.1975 48.6813L22.618 49.0661ZM23.4664 48.0648L23.9159 48.4152L23.4664 48.0648ZM24.4159 46.6402L23.9143 46.3696V46.3696L24.4159 46.6402ZM24.9399 45.3045L25.3433 44.9019L24.618 44.1753L24.3849 45.1751L24.9399 45.3045ZM41.4584 61.853H42.0284V61.6172L41.8618 61.4504L41.4584 61.853ZM41.4584 68.0544H40.8885V68.6244H41.4584V68.0544ZM46.4642 68.0544V68.6244H47.0342V68.0544H46.4642ZM46.4642 59.7822H47.0342V59.5464L46.8676 59.3795L46.4642 59.7822ZM20.0756 44.1289L19.531 43.9606L20.6053 44.339L20.0756 44.1289ZM28.781 20.0805C26.1288 20.629 23.8145 21.8274 21.5653 23.3419L22.202 24.2874C24.384 22.8181 26.5585 21.7042 29.0118 21.1968L28.781 20.0805ZM38.3391 20.8185C34.5055 19.6064 31.4142 19.5359 28.781 20.0805L29.0118 21.1968C31.4352 20.6955 34.3283 20.7459 37.9955 21.9053L38.3391 20.8185ZM45.9018 24.7103C43.8723 23.2476 42.1742 22.031 38.3391 20.8185L37.9955 21.9053C41.665 23.0655 43.25 24.2041 45.2354 25.635L45.9018 24.7103ZM45.9313 24.7315L45.9019 24.7103L45.2354 25.635L45.2648 25.6562L45.9313 24.7315ZM55.7166 30.1142C50.5569 28.0668 48.0904 26.2876 45.9313 24.7315L45.2648 25.6562C47.4616 27.2395 50.0141 29.0777 55.2961 31.1737L55.7166 30.1142ZM69.5052 30.3986C65.5042 31.1656 60.6715 32.0804 55.7166 30.1142L55.2961 31.1737C60.599 33.278 65.7474 32.2796 69.7198 31.5181L69.5052 30.3986ZM71.007 30.1173C70.5226 30.2036 70.02 30.2999 69.5052 30.3986L69.7198 31.5181C70.2361 31.4192 70.7311 31.3243 71.2069 31.2396L71.007 30.1173ZM82.0003 32.3286C80.4154 30.7732 78.7765 30.0064 76.9514 29.7452C75.1535 29.4878 73.2026 29.7263 71.007 30.1173L71.2069 31.2396C73.3915 30.8505 75.1865 30.6441 76.7899 30.8735C78.3662 31.0991 79.7842 31.7508 81.2019 33.1422L82.0003 32.3286ZM84.554 35.9822C84.1403 34.886 83.3821 33.6847 82.0003 32.3286L81.2019 33.1422C82.4898 34.4062 83.1432 35.4722 83.4875 36.3846L84.554 35.9822ZM85.0119 39.4102C85.0798 38.1786 84.9665 37.0752 84.554 35.9822L83.4875 36.3846C83.8299 37.292 83.9354 38.2289 83.8738 39.3474L85.0119 39.4102ZM84.4317 43.3828C84.7102 41.8832 84.945 40.6244 85.0119 39.4102L83.8738 39.3474C83.8116 40.4739 83.5931 41.6558 83.311 43.1747L84.4317 43.3828ZM84.3907 43.6039L84.4317 43.3828L83.311 43.1747L83.27 43.3958L84.3907 43.6039ZM83.679 48.8693C83.786 46.9237 84.1017 45.162 84.3907 43.6038L83.2699 43.3959C82.9807 44.9553 82.6522 46.7808 82.5408 48.8067L83.679 48.8693ZM86.2528 57.8071C84.7855 55.9128 83.4521 52.9953 83.679 48.8693L82.5408 48.8067C82.2975 53.2324 83.733 56.4155 85.3516 58.5051L86.2528 57.8071ZM88.1064 59.7056C87.5637 59.2673 86.9007 58.6436 86.2528 57.8071L85.3516 58.5051C86.0619 59.422 86.7899 60.1076 87.3902 60.5924L88.1064 59.7056ZM88.3183 68.0542V60.149H87.1784V68.0542H88.3183ZM92.7541 67.4841L87.7483 67.4843L87.7483 68.6241L92.7541 68.624L92.7541 67.4841ZM92.1842 57.3271V68.0541H93.324V57.3271H92.1842ZM91.1686 57.1422L92.4903 57.8323L93.0179 56.8219L91.6962 56.1318L91.1686 57.1422ZM91.0637 57.0798C91.1023 57.1041 91.1306 57.1208 91.1469 57.1303L91.7179 56.1437C91.713 56.1409 91.6965 56.1312 91.6701 56.1146L91.0637 57.0798ZM90.6507 56.7892C90.8302 56.9277 90.9741 57.0235 91.0637 57.0798L91.6701 56.1146C91.6084 56.0759 91.4949 56.0008 91.3471 55.8867L90.6507 56.7892ZM89.309 55.4397C89.7965 56.0691 90.2904 56.5112 90.6507 56.7892L91.3471 55.8867C91.0492 55.6569 90.6283 55.2815 90.2102 54.7417L89.309 55.4397ZM87.539 49.0815C87.368 52.192 88.3555 54.2087 89.309 55.4397L90.2102 54.7417C89.4084 53.7065 88.5226 51.9555 88.6772 49.1441L87.539 49.0815ZM88.1917 44.3088C87.9034 45.8637 87.631 47.4086 87.539 49.0815L88.6772 49.1441C88.7648 47.5517 89.0242 46.0709 89.3125 44.5167L88.1917 44.3088ZM88.2508 43.9916L88.1918 44.3085L89.3125 44.517L89.3714 44.2001L88.2508 43.9916ZM88.8719 39.623C88.7913 41.0858 88.5152 42.572 88.2508 43.9915L89.3714 44.2002C89.6335 42.7931 89.9247 41.2344 90.0101 39.6858L88.8719 39.623ZM88.1709 34.6173C88.8212 36.3404 88.961 38.0086 88.8719 39.623L90.0101 39.6858C90.1053 37.9585 89.9578 36.1238 89.2374 34.2149L88.1709 34.6173ZM84.7082 29.5696C86.4079 31.2378 87.5219 32.8973 88.1709 34.6173L89.2374 34.2149C88.519 32.3109 87.3001 30.5162 85.5066 28.756L84.7082 29.5696ZM70.3292 26.3113C74.9279 25.4924 80.0466 24.9945 84.7082 29.5696L85.5066 28.756C80.4181 23.762 74.7825 24.3604 70.1294 25.1891L70.3292 26.3113ZM68.7492 26.6011C69.2674 26.5046 69.7928 26.4069 70.3292 26.3113L70.1294 25.1891C69.5879 25.2855 69.0582 25.3841 68.5407 25.4804L68.7492 26.6011ZM57.1425 26.5209C61.0091 28.0552 64.6685 27.3604 68.7492 26.6011L68.5407 25.4804C64.4071 26.2496 61.0764 26.8556 57.5629 25.4613L57.1425 26.5209ZM48.2371 21.628C50.2591 23.0855 52.4367 24.6535 57.1425 26.5209L57.5629 25.4613C52.9783 23.6421 50.8861 22.1324 48.9036 20.7033L48.2371 21.628ZM48.1621 21.574L48.2371 21.628L48.9036 20.7033L48.8287 20.6493L48.1621 21.574ZM39.5045 17.1324C43.9007 18.5223 45.9826 20.0032 48.1622 21.574L48.8286 20.6493C46.6047 19.0465 44.4097 17.4878 39.8481 16.0456L39.5045 17.1324ZM27.998 16.2947C31.3433 15.6028 35.1069 15.742 39.5045 17.1324L39.8481 16.0456C35.2842 14.6026 31.3225 14.4431 27.7671 15.1785L27.998 16.2947ZM19.406 20.1352C21.8832 18.4672 24.6715 16.9827 27.998 16.2947L27.7671 15.1785C24.2418 15.9076 21.3138 17.4764 18.7694 19.1897L19.406 20.1352ZM9.43564 29.282C12.7542 25.8687 16.844 21.8605 19.406 20.1352L18.7694 19.1897C16.0902 20.9938 11.916 25.0956 8.61836 28.4874L9.43564 29.282ZM5.08797 33.8594C6.20506 32.6576 7.74523 31.0207 9.43564 29.282L8.61836 28.4874C6.92035 30.2339 5.37408 31.8774 4.25307 33.0833L5.08797 33.8594ZM3.76121 35.2967C4.07556 34.9535 4.52915 34.4606 5.08797 33.8594L4.25307 33.0833C3.69214 33.6868 3.23665 34.1818 2.92067 34.5267L3.76121 35.2967ZM3.39822 35.6941C3.48161 35.6025 3.60402 35.4683 3.76121 35.2967L2.92066 34.5268C2.76265 34.6993 2.63945 34.8343 2.55533 34.9267L3.39822 35.6941ZM3.30263 35.7992L3.39847 35.6938L2.55508 34.927L2.45925 35.0324L3.30263 35.7992ZM3.26926 35.836L3.3031 35.7987L2.45878 35.0329L2.42495 35.0702L3.26926 35.836ZM5.08475 36.7108C4.15705 35.8708 3.69328 35.4509 3.46146 35.2409C3.34549 35.1358 3.28775 35.0835 3.25903 35.0574C3.24443 35.0442 3.23806 35.0384 3.23547 35.036C3.23318 35.0339 3.23579 35.0363 3.23942 35.0397C3.2406 35.0408 3.24319 35.0433 3.24646 35.0465C3.24861 35.0486 3.25667 35.0565 3.26648 35.0672C3.27134 35.0725 3.28112 35.0833 3.29261 35.0977C3.30109 35.1083 3.3272 35.1413 3.35208 35.1889C3.37234 35.2276 3.43654 35.3578 3.41127 35.534C3.39779 35.628 3.36307 35.7044 3.32676 35.7609C3.31357 35.7806 3.29218 35.8091 3.2846 35.8184C3.27681 35.8275 3.26883 35.8365 3.26883 35.8365L2.42538 35.0697C2.42538 35.0697 2.41739 35.0787 2.4096 35.0878C2.40202 35.0971 2.38064 35.1256 2.36744 35.1453C2.33113 35.2019 2.29641 35.2782 2.28293 35.3722C2.25766 35.5484 2.32186 35.6786 2.34212 35.7174C2.36701 35.7649 2.39312 35.798 2.40162 35.8086C2.41312 35.823 2.42292 35.8339 2.42781 35.8392C2.43767 35.8499 2.44581 35.8579 2.44809 35.8601C2.45148 35.8634 2.45423 35.866 2.45564 35.8674C2.46015 35.8716 2.46456 35.8757 2.46587 35.8769C2.47049 35.8811 2.47859 35.8885 2.49294 35.9015C2.52214 35.928 2.5803 35.9807 2.69621 36.0857C2.92814 36.2958 3.392 36.7158 4.31968 37.5558L5.08475 36.7108ZM6.9403 38.3904L5.08469 36.7107L4.31974 37.5558L6.17535 39.2355L6.9403 38.3904ZM6.16506 38.3976L6.13566 38.43L6.97998 39.1958L7.00937 39.1634L6.16506 38.3976ZM6.25663 38.2969L6.16553 38.3971L7.0089 39.1639L7.1 39.0637L6.25663 38.2969ZM6.6119 37.908C6.45751 38.0765 6.33776 38.2078 6.25687 38.2966L7.09976 39.064C7.17991 38.976 7.29889 38.8455 7.45244 38.6779L6.6119 37.908ZM7.91949 36.4914C7.36785 37.0849 6.92069 37.5708 6.6119 37.908L7.45244 38.6779C7.7596 38.3426 8.20486 37.8587 8.75438 37.2675L7.91949 36.4914ZM12.2074 31.9768C10.5428 33.689 9.02329 35.304 7.91949 36.4914L8.75438 37.2675C9.85427 36.0842 11.3677 34.4758 13.0247 32.7714L12.2074 31.9768ZM21.5653 23.3419C19.4008 24.7994 15.5985 28.4889 12.2074 31.9768L13.0247 32.7714C16.4377 29.261 20.1549 25.6658 22.202 24.2874L21.5653 23.3419ZM8.58886 37.0848L21.2079 49.6416L22.0119 48.8336L9.39288 36.2768L8.58886 37.0848ZM-0.0756364 46.3902L9.39036 37.0873L8.59138 36.2743L-0.87462 45.5772L-0.0756364 46.3902ZM3.44044 49.155L-0.0686187 45.5842L-0.881638 46.3832L2.62743 49.954L3.44044 49.155ZM8.57039 43.3144L2.63444 49.148L3.43343 49.961L9.36938 44.1273L8.57039 43.3144ZM18.4816 52.3816L9.3719 43.3168L8.56787 44.1249L17.6776 53.1897L18.4816 52.3816ZM21.2059 48.8356L17.6756 52.3836L18.4836 53.1876L22.0139 49.6396L21.2059 48.8356ZM76.3352 47.8367L70.2648 41.0116L69.4131 41.7692L75.4835 48.5943L76.3352 47.8367ZM84.9997 60.3703L76.3783 47.8915L75.4404 48.5394L84.0619 61.0183L84.9997 60.3703ZM85.1008 68.0538V60.6943H83.9609V68.0538H85.1008ZM79.5251 68.6237H84.5308V67.4838H79.5251V68.6237ZM78.9551 62.2553V68.0538H80.095V62.2553H78.9551ZM72.1554 52.5912L79.0562 62.5793L79.994 61.9314L73.0933 51.9432L72.1554 52.5912ZM55.0861 52.8371H72.6243V51.6973H55.0861V52.8371ZM55.656 68.0538V52.2672H54.5161V68.0538H55.656ZM50.0803 68.6237H55.0861V67.4838H50.0803V68.6237ZM49.5104 43.0538V68.0538H50.6502V43.0538H49.5104ZM55.0861 42.4839H50.0803V43.6237H55.0861V42.4839ZM55.656 47.2614V43.0538H54.5161V47.2614H55.656ZM68.3615 46.6915H55.0861V47.8314H68.3615V46.6915ZM65.6727 45.096L67.9356 47.6402L68.7873 46.8826L66.5244 44.3384L65.6727 45.096ZM69.4601 40.9645L65.7198 44.2913L66.4773 45.1431L70.2177 41.8163L69.4601 40.9645ZM18.3853 38.568L22.5182 35.9717L21.9119 35.0064L17.7789 37.6027L18.3853 38.568ZM18.6427 37.9631L18.6212 37.9004L17.543 38.2704L17.5646 38.3331L18.6427 37.9631ZM18.7067 38.1476L18.6421 37.9613L17.5652 38.3349L17.6298 38.5212L18.7067 38.1476ZM18.9409 38.8315C18.844 38.5458 18.7632 38.3111 18.7069 38.1482L17.6296 38.5207C17.6853 38.6818 17.7653 38.9145 17.8615 39.1979L18.9409 38.8315ZM19.6506 40.9839C19.3933 40.1767 19.1351 39.4038 18.9409 38.8315L17.8615 39.1979C18.0543 39.766 18.31 40.5317 18.5646 41.3302L19.6506 40.9839ZM20.3469 43.3109C20.1613 42.623 19.9092 41.795 19.6506 40.9839L18.5646 41.3302C18.8211 42.1346 19.0673 42.9441 19.2464 43.6078L20.3469 43.3109ZM20.557 44.1691C20.5105 43.9441 20.4396 43.6544 20.3469 43.3109L19.2464 43.6078C19.3359 43.9398 19.4006 44.2056 19.4407 44.3999L20.557 44.1691ZM19.9676 45.3381C20.1872 45.0564 20.3725 44.787 20.4978 44.5599L19.4999 44.009C19.4141 44.1644 19.2678 44.3817 19.0685 44.6374L19.9676 45.3381ZM19.3452 46.0718C19.5189 45.8819 19.7457 45.6229 19.9676 45.3381L19.0685 44.6374C18.8703 44.8917 18.6644 45.1272 18.5042 45.3024L19.3452 46.0718ZM19.1412 46.2894C19.1887 46.2401 19.2593 46.1657 19.3452 46.0718L18.5042 45.3024C18.4256 45.3883 18.3617 45.4556 18.3201 45.4989L19.1412 46.2894ZM19.0889 46.3433C19.0998 46.3322 19.1176 46.314 19.1412 46.2894L18.3201 45.4989C18.2993 45.5204 18.2843 45.5357 18.2761 45.5441L19.0889 46.3433ZM19.0814 46.3509L19.0888 46.3434L18.2763 45.5439L18.2689 45.5514L19.0814 46.3509ZM20.847 47.3197C19.963 46.4339 19.5209 45.991 19.2997 45.7695C19.1892 45.6589 19.1336 45.6033 19.1055 45.5753C19.0919 45.5616 19.0837 45.5535 19.0787 45.5486C19.0777 45.5476 19.0718 45.5418 19.0654 45.5357C19.0633 45.5338 19.0593 45.5301 19.0542 45.5255C19.0507 45.5224 19.0384 45.5115 19.0217 45.4987C19.0133 45.4923 18.9967 45.4799 18.9745 45.4662C18.9566 45.4551 18.9087 45.4265 18.841 45.4059C18.7662 45.3832 18.633 45.3602 18.4809 45.4153C18.4101 45.441 18.357 45.4761 18.3217 45.5041C18.3089 45.5145 18.2902 45.5309 18.2841 45.5366C18.2781 45.5423 18.2721 45.5482 18.2721 45.5482L19.0781 46.3542C19.0883 46.344 19.0054 46.4377 18.8693 46.487C18.7173 46.5421 18.5841 46.5192 18.5093 46.4965C18.4416 46.4759 18.3937 46.4472 18.3758 46.4362C18.3536 46.4225 18.337 46.4101 18.3287 46.4038C18.3121 46.391 18.2999 46.3802 18.2965 46.3772C18.2915 46.3727 18.2877 46.3691 18.2859 46.3674C18.2803 46.3622 18.2762 46.3581 18.2786 46.3605C18.2806 46.3625 18.2863 46.3681 18.3003 46.3821C18.3276 46.4094 18.3826 46.4644 18.4932 46.5751C18.7142 46.7963 19.1562 47.2391 20.0402 48.1249L20.847 47.3197ZM21.8097 49.0898C21.8011 49.0984 21.8726 49.0188 21.9871 48.9694C22.1199 48.9122 22.245 48.9169 22.3318 48.9354C22.4073 48.9516 22.4618 48.9795 22.4848 48.992C22.5116 49.0065 22.5316 49.0203 22.5421 49.0277C22.5628 49.0423 22.5779 49.0552 22.5824 49.059C22.5888 49.0645 22.5937 49.069 22.5961 49.0712C22.6037 49.0781 22.6093 49.0836 22.607 49.0813C22.6057 49.0801 22.6006 49.075 22.5866 49.0611C22.5595 49.0342 22.5047 48.9796 22.3941 48.869C22.1731 48.648 21.7311 48.2055 20.847 47.3197L20.0402 48.1249C20.9242 49.0107 21.3666 49.4536 21.5881 49.675C21.6987 49.7856 21.7547 49.8414 21.7831 49.8697C21.7969 49.8833 21.8056 49.892 21.8114 49.8976C21.8125 49.8987 21.8199 49.9059 21.8284 49.9137C21.831 49.9161 21.8361 49.9207 21.8427 49.9263C21.8473 49.9303 21.8625 49.9432 21.8833 49.9579C21.8937 49.9653 21.9138 49.979 21.9407 49.9936C21.9637 50.0061 22.0181 50.034 22.0937 50.0502C22.1805 50.0687 22.3055 50.0735 22.4384 50.0162C22.4987 49.9902 22.5436 49.9585 22.5732 49.9342C22.5842 49.9251 22.6001 49.9108 22.6054 49.9059C22.6106 49.9009 22.6158 49.8958 22.6158 49.8958L21.8097 49.0898ZM21.814 49.0855L21.8096 49.09L22.6159 49.8956L22.6204 49.8912L21.814 49.0855ZM21.8218 49.0777L21.8132 49.0864L22.6212 49.8903L22.6298 49.8817L21.8218 49.0777ZM21.8464 49.0528L21.8203 49.0792L22.6312 49.8803L22.6573 49.8539L21.8464 49.0528ZM21.9263 48.9706C21.8926 49.0056 21.8653 49.0335 21.8454 49.0538L22.6583 49.8529C22.6807 49.83 22.7108 49.7992 22.7474 49.7612L21.9263 48.9706ZM22.1975 48.6813C22.0867 48.8024 21.9935 48.9008 21.9263 48.9706L22.7474 49.7612C22.8205 49.6853 22.9204 49.5798 23.0385 49.4508L22.1975 48.6813ZM23.0169 47.7145C22.7145 48.1025 22.417 48.4414 22.1975 48.6813L23.0385 49.4508C23.2715 49.1961 23.5899 48.8336 23.9159 48.4152L23.0169 47.7145ZM23.9143 46.3696C23.6468 46.8654 23.3137 47.3337 23.0169 47.7145L23.9159 48.4152C24.2333 48.008 24.6082 47.484 24.9175 46.9109L23.9143 46.3696ZM24.3849 45.1751C24.2718 45.6596 24.0732 46.0751 23.9143 46.3696L24.9175 46.9109C25.0984 46.5756 25.3492 46.0589 25.495 45.4339L24.3849 45.1751ZM41.8618 61.4504L25.3433 44.9019L24.5365 45.7071L41.0551 62.2556L41.8618 61.4504ZM42.0284 68.0544V61.853H40.8885V68.0544H42.0284ZM46.4642 67.4845H41.4584V68.6244H46.4642V67.4845ZM45.8943 59.7822V68.0544H47.0342V59.7822H45.8943ZM21.8117 35.8917L46.0608 60.1848L46.8676 59.3795L22.6184 35.0864L21.8117 35.8917ZM20.2493 44.6587C20.154 44.6882 20.0122 44.7033 19.8609 44.6401C19.7135 44.5785 19.6291 44.4724 19.5863 44.3976C19.5144 44.2722 19.512 44.1547 19.5113 44.1379C19.5086 44.0725 19.5184 44.0213 19.5194 44.0158C19.5245 43.9871 19.5307 43.9651 19.5318 43.9613C19.5359 43.9468 19.5395 43.9361 19.5405 43.9331C19.5435 43.9246 19.5455 43.9194 19.5458 43.9187L20.6053 44.339C20.6096 44.3284 20.6143 44.3159 20.6189 44.3025C20.6208 44.2971 20.625 44.2846 20.6294 44.2689C20.6306 44.2645 20.637 44.2421 20.6421 44.2131C20.6431 44.2075 20.6529 44.1561 20.6502 44.0907C20.6495 44.0738 20.6472 43.9563 20.5753 43.8309C20.5324 43.7561 20.448 43.65 20.3006 43.5884C20.1493 43.5252 20.0075 43.5403 19.9122 43.5698L20.2493 44.6587ZM20.6201 44.2971C20.6195 44.2991 20.6177 44.3047 20.6147 44.3131C20.6134 44.3165 20.6101 44.3255 20.6051 44.3373C20.6032 44.3418 20.5971 44.3562 20.5879 44.3742C20.5842 44.3815 20.5729 44.4033 20.5556 44.4294C20.5475 44.4416 20.529 44.4687 20.5007 44.4995C20.4864 44.5152 20.4622 44.5398 20.4286 44.5657C20.398 44.5893 20.3372 44.6315 20.2493 44.6587L19.9122 43.5698C19.7583 43.6174 19.6716 43.7171 19.6607 43.729C19.6325 43.7598 19.6139 43.787 19.6058 43.7992C19.5884 43.8254 19.577 43.8474 19.5732 43.8548C19.5639 43.8731 19.5575 43.888 19.5554 43.8931C19.5499 43.9061 19.5458 43.917 19.5437 43.9228C19.5388 43.9361 19.5346 43.949 19.531 43.9606L20.6201 44.2971Z" fill="url(#paint1_linear_2002_3749)" fill-opacity="0.1" mask="url(#path-1-inside-1_2002_3749)"/>
</g>
</g>
<defs>
<filter id="filter0_bi_2002_3749" x="-9.02426" y="6.76996" width="110.327" height="69.8336" filterUnits="userSpaceOnUse" color-interpolation-filters="sRGB">
<feFlood flood-opacity="0" result="BackgroundImageFix"/>
<feGaussianBlur in="BackgroundImageFix" stdDeviation="4.27457"/>
<feComposite in2="SourceAlpha" operator="in" result="effect1_backgroundBlur_2002_3749"/>
<feBlend mode="normal" in="SourceGraphic" in2="effect1_backgroundBlur_2002_3749" result="shape"/>
<feColorMatrix in="SourceAlpha" type="matrix" values="0 0 0 0 0 0 0 0 0 0 0 0 0 0 0 0 0 0 127 0" result="hardAlpha"/>
<feOffset dy="1.42486"/>
<feGaussianBlur stdDeviation="2.84971"/>
<feComposite in2="hardAlpha" operator="arithmetic" k2="-1" k3="1"/>
<feColorMatrix type="matrix" values="0 0 0 0 1 0 0 0 0 1 0 0 0 0 1 0 0 0 0.15 0"/>
<feBlend mode="normal" in2="shape" result="effect2_innerShadow_2002_3749"/>
</filter>
<linearGradient id="paint0_linear_2002_3749" x1="18.0823" y1="35.4891" x2="52.0096" y2="42.9972" gradientUnits="userSpaceOnUse">
<stop stop-color="#D082F0"/>
<stop offset="1" stop-color="#DE7ACC"/>
</linearGradient>
<linearGradient id="paint1_linear_2002_3749" x1="18.9692" y1="36.9693" x2="46.4644" y2="36.9693" gradientUnits="userSpaceOnUse">
<stop stop-color="#7EE5FF"/>
<stop offset="1" stop-color="#41A9FF"/>
</linearGradient>
<clipPath id="clip0_2002_3749">
<rect width="95.3191" height="80" fill="white"/>
</clipPath>
</defs>
</svg>
