<svg width="24" height="24" viewBox="0 0 24 24" fill="none" xmlns="http://www.w3.org/2000/svg">
<circle cx="14.8281" cy="8.82837" r="4.12128" transform="rotate(45 14.8281 8.82837)" fill="url(#paint0_linear_4262_2440)"/>
<g filter="url(#filter0_bi_4262_2440)">
<path d="M10.9814 2.73515C11.302 1.75495 12.698 1.75495 13.0186 2.73514L14.8134 8.22221C14.8564 8.35372 14.9797 8.44276 15.1189 8.44276H20.9269C21.9644 8.44276 22.3958 9.7616 21.5565 10.3674L16.8577 13.7586C16.7451 13.8399 16.698 13.9839 16.741 14.1154L18.5357 19.6025C18.8564 20.5827 17.727 21.3978 16.8876 20.792L12.1889 17.4008C12.0762 17.3195 11.9238 17.3195 11.8111 17.4008L7.11238 20.792C6.27301 21.3978 5.14364 20.5827 5.46426 19.6025L7.25902 14.1154C7.30203 13.9839 7.25491 13.8399 7.1423 13.7586L2.44354 10.3674C1.60417 9.7616 2.03555 8.44276 3.07307 8.44276H8.88105C9.02025 8.44276 9.14362 8.35372 9.18663 8.22221L10.9814 2.73515Z" fill="#F1F1F1" fill-opacity="0.1"/>
<path d="M10.9814 2.73515C11.302 1.75495 12.698 1.75495 13.0186 2.73514L14.8134 8.22221C14.8564 8.35372 14.9797 8.44276 15.1189 8.44276H20.9269C21.9644 8.44276 22.3958 9.7616 21.5565 10.3674L16.8577 13.7586C16.7451 13.8399 16.698 13.9839 16.741 14.1154L18.5357 19.6025C18.8564 20.5827 17.727 21.3978 16.8876 20.792L12.1889 17.4008C12.0762 17.3195 11.9238 17.3195 11.8111 17.4008L7.11238 20.792C6.27301 21.3978 5.14364 20.5827 5.46426 19.6025L7.25902 14.1154C7.30203 13.9839 7.25491 13.8399 7.1423 13.7586L2.44354 10.3674C1.60417 9.7616 2.03555 8.44276 3.07307 8.44276H8.88105C9.02025 8.44276 9.14362 8.35372 9.18663 8.22221L10.9814 2.73515Z" fill="url(#paint1_linear_4262_2440)" fill-opacity="0.2"/>
<path d="M11.0764 2.76623C11.367 1.87792 12.633 1.87792 12.9236 2.76623L14.7183 8.2533C14.7749 8.42625 14.9369 8.54276 15.1189 8.54276H20.9269C21.869 8.54276 22.2574 9.73819 21.4979 10.2863L16.7992 13.6775C16.6515 13.7841 16.5893 13.9734 16.6459 14.1465L18.4407 19.6336C18.7304 20.5194 17.709 21.2615 16.9461 20.7109L12.2474 17.3197C12.0998 17.2132 11.9002 17.2132 11.7526 17.3197L7.05386 20.7109C6.29099 21.2615 5.26955 20.5194 5.5593 19.6336L7.35406 14.1465C7.41068 13.9734 7.34854 13.7841 7.20082 13.6775L2.50206 10.2863C1.74262 9.73819 2.13105 8.54276 3.07307 8.54276H8.88105C9.06314 8.54276 9.22511 8.42626 9.28168 8.2533L11.0764 2.76623Z" stroke="url(#paint2_linear_4262_2440)" stroke-opacity="0.1" stroke-width="0.2"/>
</g>
<defs>
<filter id="filter0_bi_4262_2440" x="-1" y="-1" width="26" height="25" filterUnits="userSpaceOnUse" color-interpolation-filters="sRGB">
<feFlood flood-opacity="0" result="BackgroundImageFix"/>
<feGaussianBlur in="BackgroundImageFix" stdDeviation="1.5"/>
<feComposite in2="SourceAlpha" operator="in" result="effect1_backgroundBlur_4262_2440"/>
<feBlend mode="normal" in="SourceGraphic" in2="effect1_backgroundBlur_4262_2440" result="shape"/>
<feColorMatrix in="SourceAlpha" type="matrix" values="0 0 0 0 0 0 0 0 0 0 0 0 0 0 0 0 0 0 127 0" result="hardAlpha"/>
<feOffset dy="0.5"/>
<feGaussianBlur stdDeviation="1"/>
<feComposite in2="hardAlpha" operator="arithmetic" k2="-1" k3="1"/>
<feColorMatrix type="matrix" values="0 0 0 0 1 0 0 0 0 1 0 0 0 0 1 0 0 0 0.15 0"/>
<feBlend mode="normal" in2="shape" result="effect2_innerShadow_4262_2440"/>
</filter>
<linearGradient id="paint0_linear_4262_2440" x1="14.8281" y1="4.70709" x2="14.8281" y2="12.9496" gradientUnits="userSpaceOnUse">
<stop stop-color="#AAC1ED"/>
<stop offset="1" stop-color="#5374B6"/>
</linearGradient>
<linearGradient id="paint1_linear_4262_2440" x1="2" y1="2" x2="25.4062" y2="8.25608" gradientUnits="userSpaceOnUse">
<stop stop-color="#82E8FF"/>
<stop offset="1" stop-color="#379FFF"/>
</linearGradient>
<linearGradient id="paint2_linear_4262_2440" x1="2.625" y1="2.86364" x2="22" y2="2.86364" gradientUnits="userSpaceOnUse">
<stop stop-color="#7EE5FF"/>
<stop offset="1" stop-color="#41A9FF"/>
</linearGradient>
</defs>
</svg>
