<svg width="40" height="40" viewBox="0 0 40 40" fill="none" xmlns="http://www.w3.org/2000/svg">
<g filter="url(#filter0_bi_2002_3768)">
<path d="M9 23.6836V28.2728C9 30.3152 13.8665 31.9542 19.893 31.9542C25.9194 31.9542 30.786 30.3152 30.786 28.2728V23.6836C28.1888 25.3226 23.8266 25.9782 19.893 25.9782C15.9594 25.9782 11.5972 25.3226 9 23.6836Z" fill="#F1F1F1" fill-opacity="0.1"/>
<path d="M9 23.6836V28.2728C9 30.3152 13.8665 31.9542 19.893 31.9542C25.9194 31.9542 30.786 30.3152 30.786 28.2728V23.6836C28.1888 25.3226 23.8266 25.9782 19.893 25.9782C15.9594 25.9782 11.5972 25.3226 9 23.6836Z" fill="url(#paint0_linear_2002_3768)" fill-opacity="0.2"/>
<path d="M9.21667 28.2728V24.0661C11.8941 25.5921 16.1104 26.1948 19.893 26.1948C23.6756 26.1948 27.8919 25.5921 30.5693 24.0661V28.2728C30.5693 28.6903 30.321 29.12 29.796 29.5405C29.2728 29.9596 28.5022 30.3459 27.5301 30.6741C25.588 31.3298 22.8893 31.7375 19.893 31.7375C16.8967 31.7375 14.1979 31.3298 12.2559 30.6741C11.2838 30.3459 10.5132 29.9596 9.99001 29.5405C9.46495 29.12 9.21667 28.6903 9.21667 28.2728Z" stroke="url(#paint1_linear_2002_3768)" stroke-opacity="0.1" stroke-width="0.433333"/>
<path d="M19.893 17.6831C15.9594 17.6831 11.5972 17.0275 9 15.3633V19.9777C9 21.9949 13.8665 23.6339 19.893 23.6339C25.9194 23.6339 30.786 21.9949 30.786 19.9525V15.3633C28.1888 17.0275 23.8266 17.6831 19.893 17.6831Z" fill="#F1F1F1" fill-opacity="0.1"/>
<path d="M19.893 17.6831C15.9594 17.6831 11.5972 17.0275 9 15.3633V19.9777C9 21.9949 13.8665 23.6339 19.893 23.6339C25.9194 23.6339 30.786 21.9949 30.786 19.9525V15.3633C28.1888 17.0275 23.8266 17.6831 19.893 17.6831Z" fill="url(#paint2_linear_2002_3768)" fill-opacity="0.2"/>
<path d="M9.21667 15.7487C11.8947 17.2973 16.1111 17.8998 19.893 17.8998C23.6749 17.8998 27.8913 17.2973 30.5693 15.7487V19.9525C30.5693 20.37 30.321 20.7996 29.796 21.2202C29.2728 21.6393 28.5022 22.0256 27.5301 22.3538C25.588 23.0094 22.8893 23.4172 19.893 23.4172C16.8967 23.4172 14.1978 23.0094 12.2556 22.3569C11.2833 22.0302 10.5126 21.6461 9.98935 21.2303C9.46383 20.8128 9.21667 20.3879 9.21667 19.9777V15.7487Z" stroke="url(#paint3_linear_2002_3768)" stroke-opacity="0.1" stroke-width="0.433333"/>
<path d="M19.893 15.3629C25.909 15.3629 30.786 13.7146 30.786 11.6814C30.786 9.64823 25.909 8 19.893 8C13.877 8 9 9.64823 9 11.6814C9 13.7146 13.877 15.3629 19.893 15.3629Z" fill="#F1F1F1" fill-opacity="0.1"/>
<path d="M19.893 15.3629C25.909 15.3629 30.786 13.7146 30.786 11.6814C30.786 9.64823 25.909 8 19.893 8C13.877 8 9 9.64823 9 11.6814C9 13.7146 13.877 15.3629 19.893 15.3629Z" fill="url(#paint4_linear_2002_3768)" fill-opacity="0.2"/>
<path d="M30.5693 11.6814C30.5693 12.0962 30.3209 12.5247 29.7947 12.9451C29.2706 13.3639 28.4989 13.7505 27.5261 14.0793C25.5827 14.7361 22.8839 15.1462 19.893 15.1462C16.902 15.1462 14.2033 14.7361 12.2599 14.0793C11.287 13.7505 10.5154 13.3639 9.99128 12.9451C9.46508 12.5247 9.21667 12.0962 9.21667 11.6814C9.21667 11.2667 9.46508 10.8382 9.99128 10.4177C10.5154 9.99896 11.287 9.6123 12.2599 9.28353C14.2033 8.62671 16.902 8.21667 19.893 8.21667C22.8839 8.21667 25.5827 8.62671 27.5261 9.28353C28.4989 9.6123 29.2706 9.99896 29.7947 10.4177C30.3209 10.8382 30.5693 11.2667 30.5693 11.6814Z" stroke="url(#paint5_linear_2002_3768)" stroke-opacity="0.1" stroke-width="0.433333"/>
</g>
<defs>
<filter id="filter0_bi_2002_3768" x="2.5" y="1.5" width="34.786" height="36.9541" filterUnits="userSpaceOnUse" color-interpolation-filters="sRGB">
<feFlood flood-opacity="0" result="BackgroundImageFix"/>
<feGaussianBlur in="BackgroundImageFix" stdDeviation="3.25"/>
<feComposite in2="SourceAlpha" operator="in" result="effect1_backgroundBlur_2002_3768"/>
<feBlend mode="normal" in="SourceGraphic" in2="effect1_backgroundBlur_2002_3768" result="shape"/>
<feColorMatrix in="SourceAlpha" type="matrix" values="0 0 0 0 0 0 0 0 0 0 0 0 0 0 0 0 0 0 127 0" result="hardAlpha"/>
<feOffset dy="1.08333"/>
<feGaussianBlur stdDeviation="2.16667"/>
<feComposite in2="hardAlpha" operator="arithmetic" k2="-1" k3="1"/>
<feColorMatrix type="matrix" values="0 0 0 0 1 0 0 0 0 1 0 0 0 0 1 0 0 0 0.15 0"/>
<feBlend mode="normal" in2="shape" result="effect2_innerShadow_2002_3768"/>
</filter>
<linearGradient id="paint0_linear_2002_3768" x1="9" y1="23.6836" x2="27.8741" y2="36.3077" gradientUnits="userSpaceOnUse">
<stop stop-color="#82E8FF"/>
<stop offset="1" stop-color="#379FFF"/>
</linearGradient>
<linearGradient id="paint1_linear_2002_3768" x1="9.68081" y1="24.0595" x2="30.786" y2="24.0595" gradientUnits="userSpaceOnUse">
<stop stop-color="#7EE5FF"/>
<stop offset="1" stop-color="#41A9FF"/>
</linearGradient>
<linearGradient id="paint2_linear_2002_3768" x1="9" y1="15.3633" x2="27.8741" y2="27.9874" gradientUnits="userSpaceOnUse">
<stop stop-color="#82E8FF"/>
<stop offset="1" stop-color="#379FFF"/>
</linearGradient>
<linearGradient id="paint3_linear_2002_3768" x1="9.68081" y1="15.7392" x2="30.786" y2="15.7392" gradientUnits="userSpaceOnUse">
<stop stop-color="#7EE5FF"/>
<stop offset="1" stop-color="#41A9FF"/>
</linearGradient>
<linearGradient id="paint4_linear_2002_3768" x1="9" y1="8" x2="26.4613" y2="21.119" gradientUnits="userSpaceOnUse">
<stop stop-color="#82E8FF"/>
<stop offset="1" stop-color="#379FFF"/>
</linearGradient>
<linearGradient id="paint5_linear_2002_3768" x1="9.68081" y1="8.33468" x2="30.786" y2="8.33468" gradientUnits="userSpaceOnUse">
<stop stop-color="#7EE5FF"/>
<stop offset="1" stop-color="#41A9FF"/>
</linearGradient>
</defs>
</svg>
