<svg width="40" height="41" viewBox="0 0 40 41" fill="none" xmlns="http://www.w3.org/2000/svg">
<path d="M33.8714 22.4694C32.992 21.958 32.4816 21.0295 32.4816 20.0086C32.4816 18.9876 32.992 18.0592 33.8714 17.5478C34.7509 16.991 35.169 15.9229 34.845 14.9945C34.6134 14.3453 34.3347 13.6942 34.0579 13.0451C33.5946 12.1166 32.5758 11.6995 31.557 11.9316C30.5834 12.1638 29.5646 11.8845 28.8245 11.1428C28.0825 10.3993 27.8056 9.37835 28.0373 8.40457C28.2689 7.38363 27.8056 6.36269 26.9262 5.89845C26.3236 5.57385 25.6287 5.29458 24.9808 5.10963C24.0072 4.78503 22.9884 5.20211 22.4329 6.08526C21.9226 6.96656 20.996 7.47796 19.9772 7.47796C18.9584 7.47796 18.0319 6.96656 17.5215 6.08526C16.966 5.20396 15.9001 4.78503 14.9736 5.10963C14.3258 5.34174 13.6761 5.62103 13.0283 5.89845C12.1017 6.36269 11.6855 7.38363 11.9172 8.40457C12.1488 9.38021 11.8701 10.4012 11.13 11.1428C10.388 11.8863 9.36921 12.1638 8.39746 11.9316C7.37865 11.6995 6.35984 12.1638 5.89658 13.0451C5.57265 13.6489 5.29396 14.3453 5.1094 14.9945C4.78547 15.9701 5.20169 16.991 6.08299 17.5478C6.96246 18.0592 7.47279 18.9876 7.47279 20.0086C7.47279 21.0295 6.96246 21.958 6.08299 22.4694C5.20353 23.0261 4.78548 24.0942 5.1094 25.0227C5.34103 25.6719 5.61973 26.3229 5.89658 26.9721C6.35984 27.9005 7.37865 28.3176 8.39746 28.0855C9.37106 27.8534 10.3899 28.1326 11.13 28.8743C11.8719 29.6178 12.1488 30.6388 11.9172 31.6126C11.6855 32.6335 12.1488 33.6545 13.0283 34.1187C13.6309 34.4433 14.3258 34.7226 14.9736 34.9075C15.2052 35 15.4369 35 15.6685 35C16.4105 35 17.1506 34.5829 17.5686 33.8866C18.0789 33.0053 19.0055 32.4939 20.0243 32.4939C21.0431 32.4939 21.9696 33.0053 22.48 33.8866C23.0355 34.7679 24.1014 35.1868 25.0279 34.8622C25.6757 34.6301 26.3254 34.3508 26.9732 34.0734C27.8998 33.6092 28.316 32.5882 28.0843 31.5673C27.8527 30.5916 28.1314 29.5707 28.8715 28.829C29.6135 28.0855 30.6323 27.8081 31.604 28.0402C32.6229 28.2723 33.6417 27.8081 34.1049 26.9268C34.4289 26.3229 34.7075 25.6266 34.8921 24.9774C35.2142 24.0943 34.798 23.0261 33.8714 22.4694ZM19.9735 25.9965C16.6836 25.9965 13.9983 23.3036 13.9983 20.0088C13.9983 16.712 16.6856 14.0211 19.9735 14.0211C23.2634 14.0211 25.9487 16.714 25.9487 20.0088C25.9487 23.3056 23.2632 25.9965 19.9735 25.9965Z" fill="#F1F1F1" fill-opacity="0.1"/>
<path d="M33.8714 22.4694C32.992 21.958 32.4816 21.0295 32.4816 20.0086C32.4816 18.9876 32.992 18.0592 33.8714 17.5478C34.7509 16.991 35.169 15.9229 34.845 14.9945C34.6134 14.3453 34.3347 13.6942 34.0579 13.0451C33.5946 12.1166 32.5758 11.6995 31.557 11.9316C30.5834 12.1638 29.5646 11.8845 28.8245 11.1428C28.0825 10.3993 27.8056 9.37835 28.0373 8.40457C28.2689 7.38363 27.8056 6.36269 26.9262 5.89845C26.3236 5.57385 25.6287 5.29458 24.9808 5.10963C24.0072 4.78503 22.9884 5.20211 22.4329 6.08526C21.9226 6.96656 20.996 7.47796 19.9772 7.47796C18.9584 7.47796 18.0319 6.96656 17.5215 6.08526C16.966 5.20396 15.9001 4.78503 14.9736 5.10963C14.3258 5.34174 13.6761 5.62103 13.0283 5.89845C12.1017 6.36269 11.6855 7.38363 11.9172 8.40457C12.1488 9.38021 11.8701 10.4012 11.13 11.1428C10.388 11.8863 9.36921 12.1638 8.39746 11.9316C7.37865 11.6995 6.35984 12.1638 5.89658 13.0451C5.57265 13.6489 5.29396 14.3453 5.1094 14.9945C4.78547 15.9701 5.20169 16.991 6.08299 17.5478C6.96246 18.0592 7.47279 18.9876 7.47279 20.0086C7.47279 21.0295 6.96246 21.958 6.08299 22.4694C5.20353 23.0261 4.78548 24.0942 5.1094 25.0227C5.34103 25.6719 5.61973 26.3229 5.89658 26.9721C6.35984 27.9005 7.37865 28.3176 8.39746 28.0855C9.37106 27.8534 10.3899 28.1326 11.13 28.8743C11.8719 29.6178 12.1488 30.6388 11.9172 31.6126C11.6855 32.6335 12.1488 33.6545 13.0283 34.1187C13.6309 34.4433 14.3258 34.7226 14.9736 34.9075C15.2052 35 15.4369 35 15.6685 35C16.4105 35 17.1506 34.5829 17.5686 33.8866C18.0789 33.0053 19.0055 32.4939 20.0243 32.4939C21.0431 32.4939 21.9696 33.0053 22.48 33.8866C23.0355 34.7679 24.1014 35.1868 25.0279 34.8622C25.6757 34.6301 26.3254 34.3508 26.9732 34.0734C27.8998 33.6092 28.316 32.5882 28.0843 31.5673C27.8527 30.5916 28.1314 29.5707 28.8715 28.829C29.6135 28.0855 30.6323 27.8081 31.604 28.0402C32.6229 28.2723 33.6417 27.8081 34.1049 26.9268C34.4289 26.3229 34.7075 25.6266 34.8921 24.9774C35.2142 24.0943 34.798 23.0261 33.8714 22.4694ZM19.9735 25.9965C16.6836 25.9965 13.9983 23.3036 13.9983 20.0088C13.9983 16.712 16.6856 14.0211 19.9735 14.0211C23.2634 14.0211 25.9487 16.714 25.9487 20.0088C25.9487 23.3056 23.2632 25.9965 19.9735 25.9965Z" fill="url(#paint0_linear_2018_359)" fill-opacity="0.2"/>
<path d="M11.13 11.1428C10.388 11.8863 9.36921 12.1638 8.39746 11.9316C7.37865 11.6995 6.35984 12.1638 5.89658 13.0451C5.57265 13.6489 5.29396 14.3453 5.1094 14.9945C4.78547 15.9701 5.20169 16.991 6.08299 17.5478M11.13 11.1428L17.5686 33.8866C17.1506 34.5829 16.4105 35 15.6685 35C15.4369 35 15.2052 35 14.9736 34.9075C14.3258 34.7226 13.6309 34.4433 13.0283 34.1187C12.1488 33.6545 11.6855 32.6335 11.9172 31.6126M11.13 11.1428C11.8701 10.4012 12.1488 9.38021 11.9172 8.40457M11.13 11.1428L11.9172 8.40457M6.08299 17.5478C6.96246 18.0592 7.47279 18.9876 7.47279 20.0086C7.47279 21.0295 6.96246 21.958 6.08299 22.4694M6.08299 17.5478L6.19191 17.3605C6.19315 17.3612 6.19439 17.3619 6.19562 17.3626M6.08299 17.5478L6.19871 17.3646C6.19768 17.3639 6.19665 17.3633 6.19562 17.3626M6.08299 22.4694C5.20353 23.0261 4.78548 24.0942 5.1094 25.0227M6.08299 22.4694L6.19888 22.6525C6.19783 22.6531 6.19679 22.6538 6.19574 22.6545M6.08299 22.4694L6.19191 22.6567C6.19319 22.6559 6.19446 22.6552 6.19574 22.6545M5.1094 25.0227C5.33584 25.6573 5.60727 26.2937 5.87798 26.9285L5.89658 26.9721M5.1094 25.0227L5.31346 24.9499C5.31355 24.9501 5.31364 24.9503 5.31373 24.9506M5.1094 25.0227L5.31397 24.9513C5.31389 24.9511 5.31381 24.9508 5.31373 24.9506M5.89658 26.9721C6.35984 27.9005 7.37865 28.3176 8.39746 28.0855M5.89658 26.9721L6.09045 26.8753C6.09139 26.8772 6.09233 26.8791 6.09327 26.881M5.89658 26.9721L6.09588 26.8871L6.09327 26.881M8.39746 28.0855C9.37106 27.8534 10.3899 28.1326 11.13 28.8743C11.8719 29.6178 12.1488 30.6388 11.9172 31.6126M8.39746 28.0855L8.34721 27.8747C8.34759 27.8747 8.34797 27.8746 8.34834 27.8745M8.39746 28.0855L8.34933 27.8742C8.349 27.8743 8.34867 27.8744 8.34834 27.8745M11.9172 31.6126L12.1285 31.6605C12.1284 31.6609 12.1283 31.6612 12.1282 31.6616M11.9172 31.6126L12.1279 31.6627C12.128 31.6623 12.1281 31.662 12.1282 31.6616M6.19562 17.3626C5.39201 16.8532 5.02597 15.9334 5.31503 15.0627L5.31522 15.0628L5.31781 15.0537C5.49825 14.419 5.77118 13.7372 6.08751 13.1475L6.08752 13.1475L6.08836 13.1459C6.50408 12.355 7.42198 11.9321 8.34825 12.1426C9.39327 12.3919 10.4886 12.0922 11.2833 11.2959C12.0761 10.5015 12.3768 9.40421 12.1282 8.35561C11.9169 7.42235 12.2971 6.51045 13.1197 6.09501L13.1544 6.08011C13.7896 5.80811 14.4191 5.53848 15.0459 5.31386C15.8647 5.02741 16.8275 5.39378 17.3362 6.19752C17.8874 7.14638 18.8859 7.69463 19.9772 7.69463C21.0685 7.69463 22.067 7.14637 22.6182 6.19751C23.1267 5.39202 24.0443 5.02578 24.9123 5.31517L24.9123 5.31537L24.9214 5.31797C25.5546 5.49877 26.235 5.77224 26.8234 6.08921L26.825 6.09006C27.614 6.5065 28.0365 7.42656 27.8262 8.35557C27.5777 9.40224 27.8764 10.4995 28.6711 11.2959C29.4639 12.0903 30.5592 12.3919 31.6061 12.1427C32.5367 11.9311 33.4465 12.3115 33.8612 13.1362L33.876 13.171C34.1474 13.8074 34.4165 14.4383 34.6407 15.0665C34.9269 15.8879 34.5606 16.8531 33.7587 17.3627C32.8117 17.9152 32.265 18.9157 32.265 20.0086C32.265 21.1024 32.8126 22.1036 33.7611 22.6558C34.6116 23.1676 34.9697 24.1323 34.6886 24.9031L34.6859 24.9105L34.6837 24.9181C34.5033 25.5528 34.2303 26.2346 33.914 26.8244L33.9131 26.826C33.4974 27.6169 32.5794 28.0398 31.6531 27.8292C30.6081 27.58 29.5128 27.8797 28.7182 28.676C27.9254 29.4704 27.6247 30.5676 27.8733 31.6161C28.0846 32.5494 27.7044 33.4614 26.8818 33.8768L26.8469 33.8918C26.2118 34.1638 25.5822 34.4334 24.9554 34.658C24.1366 34.9444 23.1739 34.578 22.6653 33.7742C22.114 32.8254 21.1155 32.2772 20.0243 32.2772C18.9322 32.2772 17.933 32.8263 17.382 33.7765C17.0012 34.4097 16.3305 34.7833 15.6685 34.7833C15.4315 34.7833 15.2411 34.781 15.0539 34.7063L15.0437 34.7022L15.0331 34.6992C14.3998 34.5184 13.7194 34.2449 13.131 33.9279L13.1294 33.9271C12.3405 33.5106 11.9179 32.5906 12.1282 31.6616M6.19562 17.3626C7.14267 17.9151 7.68945 18.9156 7.68945 20.0086C7.68945 21.1015 7.14272 22.102 6.19574 22.6545M6.19574 22.6545C5.39381 23.164 5.02758 24.1292 5.31373 24.9506M5.31373 24.9506C5.53789 25.5788 5.80698 26.2097 6.07842 26.8462L6.09327 26.881M6.09327 26.881C6.50798 27.7056 7.41779 28.0861 8.34834 27.8745M8.34834 27.8745C9.39527 27.6253 10.4906 27.9268 11.2833 28.7213C12.078 29.5176 12.3768 30.6149 12.1282 31.6616M11.9172 8.40457C11.6855 7.38363 12.1017 6.36269 13.0283 5.89845L13.0718 5.8798C13.7052 5.60853 14.3403 5.33654 14.9736 5.10963L11.9172 8.40457ZM13.7817 20.0088C13.7817 23.4228 16.5635 26.2132 19.9735 26.2132C23.3833 26.2132 26.1654 23.4248 26.1654 20.0088C26.1654 16.5949 23.3836 13.8044 19.9735 13.8044C16.5656 13.8044 13.7817 16.5927 13.7817 20.0088Z" stroke="url(#paint1_linear_2018_359)" stroke-opacity="0.1" stroke-width="0.433333"/>
<defs>
<linearGradient id="paint0_linear_2018_359" x1="5" y1="5" x2="40.3391" y2="13.9732" gradientUnits="userSpaceOnUse">
<stop stop-color="#90A9AF"/>
<stop offset="1" stop-color="#4E6070"/>
</linearGradient>
<linearGradient id="paint1_linear_2018_359" x1="5" y1="5" x2="40.3391" y2="13.9732" gradientUnits="userSpaceOnUse">
<stop stop-color="#90A9AF"/>
<stop offset="1" stop-color="#4E6070"/>
</linearGradient>
</defs>
</svg>
