<svg width="40" height="41" viewBox="0 0 40 41" fill="none" xmlns="http://www.w3.org/2000/svg">
<path d="M13.0503 6.0001C10.8072 6.0001 9 7.67516 9 9.75718V29.2429C9 31.3249 10.8052 33 13.0503 33H27.9497C30.1928 33 32 31.3249 32 29.2429V16.4964C32 15.154 31.4614 13.8645 30.5046 12.9135L25.0297 7.48324V7.4852C24.0709 6.53421 22.7727 6 21.4173 6L13.0503 6.0001ZM23.8637 9.33844C24.0038 9.33648 24.136 9.39128 24.2346 9.48912L28.3323 13.5534C28.6598 13.8783 28.427 14.434 27.9654 14.434H26.1582C24.6016 14.434 23.3508 13.2716 23.3508 11.8275V9.85505C23.3508 9.57132 23.5816 9.34239 23.8657 9.33848L23.8637 9.33844ZM14.7312 18.4767H26.2708C26.8667 18.4767 27.35 18.9815 27.35 19.6057C27.35 20.23 26.8666 20.7348 26.2708 20.7348H14.7312C14.1354 20.7348 13.652 20.23 13.652 19.6057C13.652 18.9815 14.1354 18.4767 14.7312 18.4767ZM14.7312 24.3277H22.1672C22.763 24.3277 23.2464 24.8326 23.2464 25.4568C23.2464 26.081 22.763 26.5859 22.1672 26.5859H14.7312C14.1354 26.5859 13.652 26.081 13.652 25.4568C13.652 24.8326 14.1354 24.3277 14.7312 24.3277Z" fill="#F1F1F1" fill-opacity="0.1"/>
<path d="M13.0503 6.0001C10.8072 6.0001 9 7.67516 9 9.75718V29.2429C9 31.3249 10.8052 33 13.0503 33H27.9497C30.1928 33 32 31.3249 32 29.2429V16.4964C32 15.154 31.4614 13.8645 30.5046 12.9135L25.0297 7.48324V7.4852C24.0709 6.53421 22.7727 6 21.4173 6L13.0503 6.0001ZM23.8637 9.33844C24.0038 9.33648 24.136 9.39128 24.2346 9.48912L28.3323 13.5534C28.6598 13.8783 28.427 14.434 27.9654 14.434H26.1582C24.6016 14.434 23.3508 13.2716 23.3508 11.8275V9.85505C23.3508 9.57132 23.5816 9.34239 23.8657 9.33848L23.8637 9.33844ZM14.7312 18.4767H26.2708C26.8667 18.4767 27.35 18.9815 27.35 19.6057C27.35 20.23 26.8666 20.7348 26.2708 20.7348H14.7312C14.1354 20.7348 13.652 20.23 13.652 19.6057C13.652 18.9815 14.1354 18.4767 14.7312 18.4767ZM14.7312 24.3277H22.1672C22.763 24.3277 23.2464 24.8326 23.2464 25.4568C23.2464 26.081 22.763 26.5859 22.1672 26.5859H14.7312C14.1354 26.5859 13.652 26.081 13.652 25.4568C13.652 24.8326 14.1354 24.3277 14.7312 24.3277Z" fill="url(#paint0_linear_2018_666)" fill-opacity="0.2"/>
<path d="M25.2464 8.00527V8.00331L30.3518 13.0672C31.268 13.9778 31.7833 15.2121 31.7833 16.4964V29.2429C31.7833 31.1902 30.0888 32.7833 27.9497 32.7833H13.0503C10.9093 32.7833 9.21667 31.1903 9.21667 29.2429V9.75718C9.21667 7.80991 10.9112 6.21676 13.0503 6.21676L21.4173 6.21667C22.7157 6.21667 23.959 6.7284 24.8771 7.63903L25.2464 8.00527ZM23.8607 9.1218L23.8607 9.12187C23.4619 9.12842 23.1341 9.45066 23.1341 9.85505V11.8275C23.1341 13.4061 24.4973 14.6507 26.1582 14.6507H27.9654C28.6168 14.6507 28.9524 13.8633 28.4849 13.3996L24.3872 9.33528L24.2346 9.48912L24.3872 9.33528C24.2481 9.19736 24.0602 9.11901 23.8607 9.1218ZM26.2708 18.26H14.7312C14.0067 18.26 13.4354 18.8711 13.4354 19.6057C13.4354 20.3404 14.0067 20.9515 14.7312 20.9515H26.2708C26.9953 20.9515 27.5667 20.3404 27.5667 19.6057C27.5667 18.8711 26.9953 18.26 26.2708 18.26ZM22.1672 24.111H14.7312C14.0067 24.111 13.4354 24.7221 13.4354 25.4568C13.4354 26.1914 14.0067 26.8025 14.7312 26.8025H22.1672C22.8917 26.8025 23.463 26.1914 23.463 25.4568C23.463 24.7221 22.8917 24.111 22.1672 24.111Z" stroke="url(#paint1_linear_2018_666)" stroke-opacity="0.1" stroke-width="0.433333"/>
<defs>
<linearGradient id="paint0_linear_2018_666" x1="9" y1="6" x2="36.5511" y2="11.9593" gradientUnits="userSpaceOnUse">
<stop stop-color="#90A9AF"/>
<stop offset="1" stop-color="#4E6070"/>
</linearGradient>
<linearGradient id="paint1_linear_2018_666" x1="9" y1="6" x2="36.5511" y2="11.9593" gradientUnits="userSpaceOnUse">
<stop stop-color="#90A9AF"/>
<stop offset="1" stop-color="#4E6070"/>
</linearGradient>
</defs>
</svg>
