<svg width="24" height="24" viewBox="0 0 24 24" fill="none" xmlns="http://www.w3.org/2000/svg">
<circle cx="9" cy="15" r="5" fill="url(#paint0_linear_4271_1088)"/>
<g filter="url(#filter0_bi_4271_1088)">
<path d="M7.57934 17.2688C5.30202 14.9915 3.95412 12.6737 3.2517 10.8835C2.56813 9.14132 3.35431 7.35169 4.67765 6.02834L5.26661 5.43939C5.92203 4.78396 7.00912 4.87393 7.54787 5.62819L9.43146 8.26521C9.80399 8.78676 9.80399 9.48738 9.43146 10.0089L8.87841 10.7832C8.50649 11.3039 8.44839 11.9553 8.81458 12.48C9.25541 13.1117 9.88888 13.9215 10.4078 14.4404C10.9267 14.9593 11.7364 15.5927 12.3681 16.0336C12.8928 16.3997 13.5443 16.3416 14.0649 15.9697L14.8392 15.4167C15.3608 15.0441 16.0614 15.0441 16.5829 15.4167L19.2199 17.3003C19.9742 17.839 20.0642 18.9261 19.4087 19.5815L18.8198 20.1705C17.4964 21.4938 15.7068 22.28 13.9646 21.5964C12.1744 20.894 9.85666 19.5461 7.57934 17.2688Z" fill="#F1F1F1" fill-opacity="0.1"/>
<path d="M7.57934 17.2688C5.30202 14.9915 3.95412 12.6737 3.2517 10.8835C2.56813 9.14132 3.35431 7.35169 4.67765 6.02834L5.26661 5.43939C5.92203 4.78396 7.00912 4.87393 7.54787 5.62819L9.43146 8.26521C9.80399 8.78676 9.80399 9.48738 9.43146 10.0089L8.87841 10.7832C8.50649 11.3039 8.44839 11.9553 8.81458 12.48C9.25541 13.1117 9.88888 13.9215 10.4078 14.4404C10.9267 14.9593 11.7364 15.5927 12.3681 16.0336C12.8928 16.3997 13.5443 16.3416 14.0649 15.9697L14.8392 15.4167C15.3608 15.0441 16.0614 15.0441 16.5829 15.4167L19.2199 17.3003C19.9742 17.839 20.0642 18.9261 19.4087 19.5815L18.8198 20.1705C17.4964 21.4938 15.7068 22.28 13.9646 21.5964C12.1744 20.894 9.85666 19.5461 7.57934 17.2688Z" fill="url(#paint1_linear_4271_1088)" fill-opacity="0.2"/>
<path d="M7.65005 17.1981C5.38263 14.9307 4.04227 12.6246 3.34479 10.847C2.68187 9.15741 3.43899 7.40843 4.74836 6.09905L5.33732 5.5101C5.94905 4.89837 6.96366 4.98234 7.4665 5.68631L9.35008 8.32333C9.69778 8.81011 9.69778 9.46402 9.35008 9.9508L8.79703 10.7251C8.40506 11.2738 8.33798 11.9718 8.73257 12.5373C9.17503 13.1713 9.81231 13.9863 10.3371 14.5111C10.8618 15.0358 11.6768 15.6731 12.3109 16.1156C12.8763 16.5102 13.5743 16.4431 14.1231 16.0511L14.8973 15.498C15.3841 15.1504 16.038 15.1504 16.5248 15.498L19.1618 17.3816C19.8658 17.8845 19.9498 18.8991 19.338 19.5108L18.7491 20.0998C17.4397 21.4091 15.6907 22.1663 14.0011 21.5033C12.2235 20.8059 9.91746 19.4655 7.65005 17.1981Z" stroke="url(#paint2_linear_4271_1088)" stroke-opacity="0.1" stroke-width="0.2"/>
</g>
<g filter="url(#filter1_bi_4271_1088)">
<path fill-rule="evenodd" clip-rule="evenodd" d="M16 13.0005C15.4477 13.0005 15.0128 12.5458 14.8766 12.0106C14.5167 10.5968 13.4037 9.48384 11.9899 9.12392C11.4547 8.98766 11 8.55277 11 8.00049C11 7.4482 11.4511 6.99175 11.9958 7.08275C14.5117 7.503 16.4975 9.48879 16.9177 12.0047C17.0087 12.5494 16.5523 13.0005 16 13.0005Z" fill="#F1F1F1" fill-opacity="0.1"/>
<path fill-rule="evenodd" clip-rule="evenodd" d="M16 13.0005C15.4477 13.0005 15.0128 12.5458 14.8766 12.0106C14.5167 10.5968 13.4037 9.48384 11.9899 9.12392C11.4547 8.98766 11 8.55277 11 8.00049C11 7.4482 11.4511 6.99175 11.9958 7.08275C14.5117 7.503 16.4975 9.48879 16.9177 12.0047C17.0087 12.5494 16.5523 13.0005 16 13.0005Z" fill="url(#paint3_linear_4271_1088)" fill-opacity="0.2"/>
<path d="M16 12.9005C15.5073 12.9005 15.1023 12.4918 14.9735 11.9859C14.6045 10.5367 13.4638 9.39596 12.0146 9.02701C11.5087 8.89822 11.1 8.49323 11.1 8.00049C11.1 7.49798 11.5069 7.10246 11.9793 7.18138C14.4531 7.59459 16.4059 9.54738 16.8191 12.0212C16.898 12.4936 16.5025 12.9005 16 12.9005Z" stroke="url(#paint4_linear_4271_1088)" stroke-opacity="0.1" stroke-width="0.2"/>
</g>
<g filter="url(#filter2_bi_4271_1088)">
<path fill-rule="evenodd" clip-rule="evenodd" d="M20.001 13C19.4487 13 19.0075 12.55 18.9393 12.002C18.4888 8.38167 15.6193 5.51217 11.999 5.06165C11.4509 4.99344 11.001 4.55228 11.001 4C11.001 3.44772 11.45 2.99475 11.9996 3.04924C16.7251 3.51775 20.4832 7.27586 20.9517 12.0014C21.0062 12.551 20.5533 13 20.001 13Z" fill="#F1F1F1" fill-opacity="0.1"/>
<path fill-rule="evenodd" clip-rule="evenodd" d="M20.001 13C19.4487 13 19.0075 12.55 18.9393 12.002C18.4888 8.38167 15.6193 5.51217 11.999 5.06165C11.4509 4.99344 11.001 4.55228 11.001 4C11.001 3.44772 11.45 2.99475 11.9996 3.04924C16.7251 3.51775 20.4832 7.27586 20.9517 12.0014C21.0062 12.551 20.5533 13 20.001 13Z" fill="url(#paint5_linear_4271_1088)" fill-opacity="0.2"/>
<path d="M20.001 12.9C19.5067 12.9 19.1015 12.4955 19.0386 11.9896C18.5824 8.32388 15.6771 5.41859 12.0113 4.96241C11.5055 4.89946 11.101 4.49432 11.101 4C11.101 3.49998 11.5056 3.10075 11.9897 3.14875C16.6678 3.61256 20.3884 7.33315 20.8522 12.0113C20.9002 12.4954 20.501 12.9 20.001 12.9Z" stroke="url(#paint6_linear_4271_1088)" stroke-opacity="0.1" stroke-width="0.2"/>
</g>
<defs>
<filter id="filter0_bi_4271_1088" x="0" y="2" width="22.8477" height="22.8481" filterUnits="userSpaceOnUse" color-interpolation-filters="sRGB">
<feFlood flood-opacity="0" result="BackgroundImageFix"/>
<feGaussianBlur in="BackgroundImageFix" stdDeviation="1.5"/>
<feComposite in2="SourceAlpha" operator="in" result="effect1_backgroundBlur_4271_1088"/>
<feBlend mode="normal" in="SourceGraphic" in2="effect1_backgroundBlur_4271_1088" result="shape"/>
<feColorMatrix in="SourceAlpha" type="matrix" values="0 0 0 0 0 0 0 0 0 0 0 0 0 0 0 0 0 0 127 0" result="hardAlpha"/>
<feOffset dy="0.5"/>
<feGaussianBlur stdDeviation="1"/>
<feComposite in2="hardAlpha" operator="arithmetic" k2="-1" k3="1"/>
<feColorMatrix type="matrix" values="0 0 0 0 1 0 0 0 0 1 0 0 0 0 1 0 0 0 0.15 0"/>
<feBlend mode="normal" in2="shape" result="effect2_innerShadow_4271_1088"/>
</filter>
<filter id="filter1_bi_4271_1088" x="8" y="4.07117" width="11.9297" height="11.9293" filterUnits="userSpaceOnUse" color-interpolation-filters="sRGB">
<feFlood flood-opacity="0" result="BackgroundImageFix"/>
<feGaussianBlur in="BackgroundImageFix" stdDeviation="1.5"/>
<feComposite in2="SourceAlpha" operator="in" result="effect1_backgroundBlur_4271_1088"/>
<feBlend mode="normal" in="SourceGraphic" in2="effect1_backgroundBlur_4271_1088" result="shape"/>
<feColorMatrix in="SourceAlpha" type="matrix" values="0 0 0 0 0 0 0 0 0 0 0 0 0 0 0 0 0 0 127 0" result="hardAlpha"/>
<feOffset dy="0.5"/>
<feGaussianBlur stdDeviation="1"/>
<feComposite in2="hardAlpha" operator="arithmetic" k2="-1" k3="1"/>
<feColorMatrix type="matrix" values="0 0 0 0 1 0 0 0 0 1 0 0 0 0 1 0 0 0 0.15 0"/>
<feBlend mode="normal" in2="shape" result="effect2_innerShadow_4271_1088"/>
</filter>
<filter id="filter2_bi_4271_1088" x="8.00098" y="0.0447998" width="15.9551" height="15.9552" filterUnits="userSpaceOnUse" color-interpolation-filters="sRGB">
<feFlood flood-opacity="0" result="BackgroundImageFix"/>
<feGaussianBlur in="BackgroundImageFix" stdDeviation="1.5"/>
<feComposite in2="SourceAlpha" operator="in" result="effect1_backgroundBlur_4271_1088"/>
<feBlend mode="normal" in="SourceGraphic" in2="effect1_backgroundBlur_4271_1088" result="shape"/>
<feColorMatrix in="SourceAlpha" type="matrix" values="0 0 0 0 0 0 0 0 0 0 0 0 0 0 0 0 0 0 127 0" result="hardAlpha"/>
<feOffset dy="0.5"/>
<feGaussianBlur stdDeviation="1"/>
<feComposite in2="hardAlpha" operator="arithmetic" k2="-1" k3="1"/>
<feColorMatrix type="matrix" values="0 0 0 0 1 0 0 0 0 1 0 0 0 0 1 0 0 0 0.15 0"/>
<feBlend mode="normal" in2="shape" result="effect2_innerShadow_4271_1088"/>
</filter>
<linearGradient id="paint0_linear_4271_1088" x1="9" y1="10" x2="9" y2="20" gradientUnits="userSpaceOnUse">
<stop stop-color="#AAC1ED"/>
<stop offset="1" stop-color="#5374B6"/>
</linearGradient>
<linearGradient id="paint1_linear_4271_1088" x1="3" y1="5" x2="22.8466" y2="10.0394" gradientUnits="userSpaceOnUse">
<stop stop-color="#82E8FF"/>
<stop offset="1" stop-color="#379FFF"/>
</linearGradient>
<linearGradient id="paint2_linear_4271_1088" x1="3.5265" y1="5.76582" x2="19.8481" y2="5.76582" gradientUnits="userSpaceOnUse">
<stop stop-color="#7EE5FF"/>
<stop offset="1" stop-color="#41A9FF"/>
</linearGradient>
<linearGradient id="paint3_linear_4271_1088" x1="11" y1="7.00049" x2="18.0678" y2="8.79514" gradientUnits="userSpaceOnUse">
<stop stop-color="#82E8FF"/>
<stop offset="1" stop-color="#379FFF"/>
</linearGradient>
<linearGradient id="paint4_linear_4271_1088" x1="11.1875" y1="7.27322" x2="17" y2="7.27322" gradientUnits="userSpaceOnUse">
<stop stop-color="#7EE5FF"/>
<stop offset="1" stop-color="#41A9FF"/>
</linearGradient>
<linearGradient id="paint5_linear_4271_1088" x1="11.001" y1="3" x2="22.7807" y2="5.99108" gradientUnits="userSpaceOnUse">
<stop stop-color="#82E8FF"/>
<stop offset="1" stop-color="#379FFF"/>
</linearGradient>
<linearGradient id="paint6_linear_4271_1088" x1="11.3135" y1="3.45455" x2="21.001" y2="3.45455" gradientUnits="userSpaceOnUse">
<stop stop-color="#7EE5FF"/>
<stop offset="1" stop-color="#41A9FF"/>
</linearGradient>
</defs>
</svg>
