<svg width="80" height="80" viewBox="0 0 80 80" fill="none" xmlns="http://www.w3.org/2000/svg">
<g filter="url(#filter0_bi_25_908)">
<path d="M35.108 8.08572V17.2332C35.108 17.821 34.6305 18.2958 34.0427 18.2958C32.6015 18.2958 31.2988 18.8807 30.3549 19.8246L30.3041 19.8726C29.3913 20.8108 28.8261 22.0937 28.8261 23.5122C28.8261 24.9506 29.4111 26.2561 30.3549 27.2L30.403 27.2508C31.3412 28.1635 32.6269 28.7259 34.0426 28.7259C34.6304 28.7259 35.108 29.2035 35.108 29.7913V38.9359H43.2658C43.5004 37.3393 44.2493 35.9038 45.34 34.8102C46.6681 33.4793 48.5049 32.6569 50.5311 32.6569C52.5572 32.6569 54.3939 33.4821 55.7221 34.8102C56.8157 35.901 57.5645 37.3365 57.7991 38.9359H65.957V15.3911C65.957 13.3791 65.1375 11.5536 63.815 10.2312C62.4897 8.90868 60.6614 8.08638 58.6494 8.08638L35.108 8.08572ZM32.9774 50.2099V41.0653H24.8195C24.5906 42.6336 23.8644 44.0465 22.8046 45.1288L22.7453 45.191C21.4172 46.5219 19.5804 47.3443 17.5542 47.3443C15.5338 47.3443 13.697 46.522 12.3632 45.1881C11.2696 44.0946 10.5207 42.6619 10.2862 41.0653H2.12832V64.6072C2.12832 66.6192 2.95062 68.4475 4.27309 69.7728C5.59555 71.0953 7.4239 71.9147 9.43303 71.9147H32.9779V62.7672C32.9779 62.1794 33.4554 61.7047 34.0432 61.7047C35.4618 61.7047 36.7447 61.1395 37.6828 60.2267L37.7309 60.1759C38.6747 59.2321 39.2597 57.9293 39.2597 56.4882C39.2597 55.0498 38.6747 53.7443 37.7337 52.8004C36.7899 51.8566 35.4843 51.2745 34.0431 51.2745C33.4554 51.2745 32.9778 50.7969 32.9778 50.2091L32.9774 50.2099ZM58.6497 74.0426H9.43254C6.84129 74.0426 4.48167 72.9801 2.76929 71.2677C1.05965 69.5581 0 67.2013 0 64.6073V15.3901C0 12.796 1.05965 10.4364 2.76929 8.72681C4.47892 7.01724 6.83847 5.95752 9.43254 5.95752H58.6497C61.2438 5.95752 63.6006 7.01717 65.3102 8.72681C67.0226 10.4393 68.0851 12.7988 68.0851 15.3901V64.6073C68.0851 67.1985 67.0226 69.5581 65.3102 71.2733C63.5977 72.983 61.2382 74.0426 58.6497 74.0426Z" fill="#F1F1F1" fill-opacity="0.1"/>
<path d="M35.108 8.08572V17.2332C35.108 17.821 34.6305 18.2958 34.0427 18.2958C32.6015 18.2958 31.2988 18.8807 30.3549 19.8246L30.3041 19.8726C29.3913 20.8108 28.8261 22.0937 28.8261 23.5122C28.8261 24.9506 29.4111 26.2561 30.3549 27.2L30.403 27.2508C31.3412 28.1635 32.6269 28.7259 34.0426 28.7259C34.6304 28.7259 35.108 29.2035 35.108 29.7913V38.9359H43.2658C43.5004 37.3393 44.2493 35.9038 45.34 34.8102C46.6681 33.4793 48.5049 32.6569 50.5311 32.6569C52.5572 32.6569 54.3939 33.4821 55.7221 34.8102C56.8157 35.901 57.5645 37.3365 57.7991 38.9359H65.957V15.3911C65.957 13.3791 65.1375 11.5536 63.815 10.2312C62.4897 8.90868 60.6614 8.08638 58.6494 8.08638L35.108 8.08572ZM32.9774 50.2099V41.0653H24.8195C24.5906 42.6336 23.8644 44.0465 22.8046 45.1288L22.7453 45.191C21.4172 46.5219 19.5804 47.3443 17.5542 47.3443C15.5338 47.3443 13.697 46.522 12.3632 45.1881C11.2696 44.0946 10.5207 42.6619 10.2862 41.0653H2.12832V64.6072C2.12832 66.6192 2.95062 68.4475 4.27309 69.7728C5.59555 71.0953 7.4239 71.9147 9.43303 71.9147H32.9779V62.7672C32.9779 62.1794 33.4554 61.7047 34.0432 61.7047C35.4618 61.7047 36.7447 61.1395 37.6828 60.2267L37.7309 60.1759C38.6747 59.2321 39.2597 57.9293 39.2597 56.4882C39.2597 55.0498 38.6747 53.7443 37.7337 52.8004C36.7899 51.8566 35.4843 51.2745 34.0431 51.2745C33.4554 51.2745 32.9778 50.7969 32.9778 50.2091L32.9774 50.2099ZM58.6497 74.0426H9.43254C6.84129 74.0426 4.48167 72.9801 2.76929 71.2677C1.05965 69.5581 0 67.2013 0 64.6073V15.3901C0 12.796 1.05965 10.4364 2.76929 8.72681C4.47892 7.01724 6.83847 5.95752 9.43254 5.95752H58.6497C61.2438 5.95752 63.6006 7.01717 65.3102 8.72681C67.0226 10.4393 68.0851 12.7988 68.0851 15.3901V64.6073C68.0851 67.1985 67.0226 69.5581 65.3102 71.2733C63.5977 72.983 61.2382 74.0426 58.6497 74.0426Z" fill="url(#paint0_linear_25_908)" fill-opacity="0.2"/>
<path d="M35.108 7.84319L34.8655 7.84318V8.08572V17.2332C34.8655 17.6862 34.4974 18.0533 34.0427 18.0533C32.5357 18.0533 31.1731 18.6647 30.1859 19.6506L30.1376 19.6963L30.1374 19.6961L30.1302 19.7035C29.1753 20.685 28.5836 22.0279 28.5836 23.5122C28.5836 25.0163 29.195 26.3818 30.1809 27.369L30.2266 27.4173L30.2265 27.4175L30.2338 27.4247C31.2157 28.3799 32.5615 28.9685 34.0426 28.9685C34.4964 28.9685 34.8654 29.3374 34.8654 29.7913V38.9359V39.1784H35.108H43.2658H43.4753L43.5058 38.9712C43.7325 37.4277 44.4566 36.0394 45.5117 34.9815C46.7961 33.6944 48.5719 32.8995 50.5311 32.8995C52.49 32.8995 54.2659 33.697 55.5506 34.9817L55.5508 34.9819C56.6084 36.0368 57.3324 37.4248 57.5591 38.9711L57.5895 39.1784H57.7991H65.957H66.1995V38.9359V15.3911C66.1995 13.312 65.3524 11.4255 63.9865 10.0597L63.9863 10.0595C62.6179 8.6939 60.7288 7.84385 58.6494 7.84385L35.108 7.84319ZM37.8592 60.3933L37.9048 60.3449C38.8907 59.3578 39.5022 57.9952 39.5022 56.4882C39.5022 54.9828 38.8898 53.6165 37.9054 52.6292L37.9052 52.6289C36.9175 51.6413 35.5509 51.0319 34.0431 51.0319C33.5893 51.0319 33.2203 50.663 33.2203 50.2091L33.2199 50.209V41.0653V40.8227H32.9774H24.8195H24.6098L24.5795 41.0302C24.3582 42.5464 23.6561 43.9125 22.6313 44.9591L22.6292 44.9613L22.5717 45.0216C21.2874 46.3076 19.5125 47.1017 17.5542 47.1017C15.6009 47.1017 13.8251 46.307 12.5347 45.0167C11.4768 43.9587 10.7529 42.5734 10.5262 41.03L10.4957 40.8228H10.2862H2.12832H1.88579V41.0653V64.6072C1.88579 66.6865 2.73584 68.5756 4.10141 69.9441L4.10159 69.9443C5.46751 71.3102 7.35676 72.1573 9.43303 72.1573H32.9779H33.2204V71.9147V62.7672C33.2204 62.3142 33.5885 61.9472 34.0432 61.9472C35.5275 61.9472 36.8705 61.3555 37.852 60.4006L37.8521 60.4007L37.8592 60.3933ZM65.1387 8.8983L65.3102 8.72681L65.1387 8.8983C66.808 10.5676 67.8426 12.8664 67.8426 15.3901V64.6073C67.8426 67.1308 66.808 69.4297 65.1387 71.1018C63.4694 72.7683 61.1707 73.8001 58.6497 73.8001H9.43254C6.90887 73.8001 4.61004 72.7655 2.94078 71.0962C1.27441 69.4298 0.242529 67.1339 0.242529 64.6073V15.3901C0.242529 12.8633 1.27447 10.5645 2.94078 8.8983C4.60709 7.23206 6.90578 6.20005 9.43254 6.20005H58.6497C61.1764 6.20005 63.4724 7.23193 65.1387 8.8983Z" stroke="url(#paint1_linear_25_908)" stroke-opacity="0.1" stroke-width="0.485057"/>
</g>
<defs>
<filter id="filter0_bi_25_908" x="-7.27586" y="-1.31834" width="82.6368" height="82.6367" filterUnits="userSpaceOnUse" color-interpolation-filters="sRGB">
<feFlood flood-opacity="0" result="BackgroundImageFix"/>
<feGaussianBlur in="BackgroundImageFix" stdDeviation="3.63793"/>
<feComposite in2="SourceAlpha" operator="in" result="effect1_backgroundBlur_25_908"/>
<feBlend mode="normal" in="SourceGraphic" in2="effect1_backgroundBlur_25_908" result="shape"/>
<feColorMatrix in="SourceAlpha" type="matrix" values="0 0 0 0 0 0 0 0 0 0 0 0 0 0 0 0 0 0 127 0" result="hardAlpha"/>
<feOffset dy="1.21264"/>
<feGaussianBlur stdDeviation="2.42529"/>
<feComposite in2="hardAlpha" operator="arithmetic" k2="-1" k3="1"/>
<feColorMatrix type="matrix" values="0 0 0 0 1 0 0 0 0 1 0 0 0 0 1 0 0 0 0.15 0"/>
<feBlend mode="normal" in2="shape" result="effect2_innerShadow_25_908"/>
</filter>
<linearGradient id="paint0_linear_25_908" x1="0" y1="5.95752" x2="80.2022" y2="26.3223" gradientUnits="userSpaceOnUse">
<stop stop-color="#54B9D3"/>
<stop offset="1" stop-color="#4ADB9C"/>
</linearGradient>
<linearGradient id="paint1_linear_25_908" x1="2.12766" y1="9.0523" x2="68.0851" y2="9.0523" gradientUnits="userSpaceOnUse">
<stop stop-color="#7EE5FF"/>
<stop offset="1" stop-color="#41A9FF"/>
</linearGradient>
</defs>
</svg>
