<svg width="163" height="1322" viewBox="0 0 163 1322" fill="none" xmlns="http://www.w3.org/2000/svg">
<path opacity="0.3" d="M162.5 355C141.423 355 120.552 350.849 101.079 342.783C81.6065 334.717 63.9132 322.894 49.0094 307.991C34.1056 293.087 22.2832 275.393 14.2173 255.921C6.15145 236.448 1.99998 215.577 1.99998 194.5C1.99999 173.423 6.15145 152.552 14.2173 133.079C22.2832 113.607 34.1055 95.9132 49.0094 81.0094C63.9132 66.1056 81.6065 54.2832 101.079 46.2173C120.552 38.1515 141.423 34 162.5 34" stroke="#898989" stroke-dasharray="2 2"/>
<path opacity="0.3" d="M161.5 677C140.423 677 119.552 672.849 100.079 664.783C80.6065 656.717 62.9132 644.894 48.0094 629.991C33.1056 615.087 21.2832 597.393 13.2173 577.921C5.15145 558.448 0.999984 537.577 0.999985 516.5C0.999986 495.423 5.15145 474.552 13.2173 455.079C21.2832 435.607 33.1055 417.913 48.0094 403.009C62.9132 388.106 80.6065 376.283 100.079 368.217C119.552 360.151 140.423 356 161.5 356" stroke="#898989" stroke-dasharray="2 2"/>
<path opacity="0.3" d="M161.5 999C140.423 999 119.552 994.849 100.079 986.783C80.6065 978.717 62.9132 966.894 48.0094 951.991C33.1056 937.087 21.2832 919.393 13.2173 899.921C5.15145 880.448 0.999984 859.577 0.999985 838.5C0.999986 817.423 5.15145 796.552 13.2173 777.079C21.2832 757.607 33.1055 739.913 48.0094 725.009C62.9132 710.106 80.6065 698.283 100.079 690.217C119.552 682.151 140.423 678 161.5 678" stroke="#898989" stroke-dasharray="2 2"/>
<path opacity="0.3" d="M161.5 1321C140.423 1321 119.552 1316.85 100.079 1308.78C80.6065 1300.72 62.9132 1288.89 48.0094 1273.99C33.1056 1259.09 21.2832 1241.39 13.2173 1221.92C5.15145 1202.45 0.999984 1181.58 0.999985 1160.5C0.999986 1139.42 5.15145 1118.55 13.2173 1099.08C21.2832 1079.61 33.1055 1061.91 48.0094 1047.01C62.9132 1032.11 80.6065 1020.28 100.079 1012.22C119.552 1004.15 140.423 1000 161.5 1000" stroke="#898989" stroke-dasharray="2 2"/>
</svg>
