<svg width="56" height="39" viewBox="0 0 56 39" fill="none" xmlns="http://www.w3.org/2000/svg">
<g clip-path="url(#clip0_303_4064)">
<path d="M26.9457 38.4824H53.6515V31.6719L35.7279 31.7081C33.4777 34.7185 30.4408 37.0611 26.9457 38.4824Z" fill="url(#paint0_linear_303_4064)"/>
<path d="M52.9269 3.38138C50.8781 1.46032 48.0048 0.499859 44.3069 0.5H26.8648C30.3829 1.91336 33.442 4.2588 35.708 7.2802L43.4576 7.25832C44.923 7.25832 46.0473 7.61632 46.8306 8.33233C47.6129 9.04764 48.0044 10.2089 48.0049 11.8162C48.0049 13.4221 47.6134 14.5834 46.8306 15.3C46.0475 16.0155 44.9231 16.3735 43.4576 16.374H26.9318C23.2339 16.374 20.3605 17.3083 18.3118 19.1769C16.2629 21.0449 15.2385 23.7953 15.2385 27.4282C15.2385 27.8542 15.254 28.267 15.2827 28.6683C17.8885 29.5988 20.7468 29.5542 23.3217 28.5428C23.2616 28.1743 23.2323 27.8015 23.2339 27.4282C23.2339 25.926 23.6336 24.8346 24.4332 24.1539C25.2327 23.4728 26.3487 23.1323 27.7812 23.1323H44.3069C48.0049 23.1323 50.8782 22.1805 52.9269 20.277C54.9758 18.3731 56.0002 15.5528 56 11.8162C56 8.11375 54.9757 5.30215 52.9269 3.38138Z" fill="url(#paint1_linear_303_4064)"/>
<path d="M19.137 30.7683C17.0906 30.7682 15.0824 30.2189 13.325 29.1788C11.5675 28.1387 10.1261 26.6463 9.15345 24.8598C8.18079 23.0732 7.71303 21.0589 7.7997 19.0301C7.88636 17.0013 8.52422 15.0335 9.64575 13.335C10.7673 11.6365 12.3307 10.2706 14.1706 9.38176C16.0105 8.49295 18.0583 8.11433 20.0973 8.28601C22.1363 8.45769 24.0906 9.17328 25.7533 10.357C27.4159 11.5407 28.7251 13.1486 29.5422 15.0103H37.7329C35.6976 6.69177 28.1448 0.514648 19.137 0.514648C8.56791 0.514648 0 9.01784 0 19.5071C0 29.9963 8.56791 38.4995 19.137 38.4995C27.9373 38.4995 35.3491 32.6037 37.5838 24.5752H29.2719C28.3263 26.4377 26.878 28.0029 25.0885 29.0964C23.299 30.1899 21.2386 30.7687 19.137 30.7683Z" fill="url(#paint2_linear_303_4064)"/>
</g>
<defs>
<linearGradient id="paint0_linear_303_4064" x1="26.9457" y1="35.0771" x2="53.6515" y2="35.0771" gradientUnits="userSpaceOnUse">
<stop stop-color="#3891D6"/>
<stop offset="1" stop-color="#04D2E3"/>
</linearGradient>
<linearGradient id="paint1_linear_303_4064" x1="37511.2" y1="16420.4" x2="54445.5" y2="16420.4" gradientUnits="userSpaceOnUse">
<stop stop-color="#3891D6"/>
<stop offset="1" stop-color="#04D2E3"/>
</linearGradient>
<linearGradient id="paint2_linear_303_4064" x1="28849.4" y1="23421.4" x2="43568.9" y2="23421.4" gradientUnits="userSpaceOnUse">
<stop stop-color="#3891D6"/>
<stop offset="1" stop-color="#04D2E3"/>
</linearGradient>
<clipPath id="clip0_303_4064">
<rect width="56" height="38" fill="white" transform="translate(0 0.5)"/>
</clipPath>
</defs>
</svg>
