<svg width="24" height="24" viewBox="0 0 24 24" fill="none" xmlns="http://www.w3.org/2000/svg">
<circle cx="12" cy="18" r="4" fill="url(#paint0_linear_4262_2434)"/>
<g filter="url(#filter0_bi_4262_2434)">
<mask id="path-3-inside-1_4262_2434" fill="white">
<path fill-rule="evenodd" clip-rule="evenodd" d="M11.9999 10.5556C14.0863 10.5556 15.7777 8.86419 15.7777 6.77778C15.7777 4.69137 14.0863 3 11.9999 3C9.91348 3 8.22211 4.69137 8.22211 6.77778C8.22211 8.86419 9.91348 10.5556 11.9999 10.5556ZM19.5554 17.1667C19.5554 19.5001 15.3579 20 11.9999 20C8.64187 20 4.44434 19.5001 4.44434 17.1667C4.44434 14.8332 7.82707 11.5 11.9999 11.5C16.1727 11.5 19.5554 14.8332 19.5554 17.1667Z"/>
</mask>
<path fill-rule="evenodd" clip-rule="evenodd" d="M11.9999 10.5556C14.0863 10.5556 15.7777 8.86419 15.7777 6.77778C15.7777 4.69137 14.0863 3 11.9999 3C9.91348 3 8.22211 4.69137 8.22211 6.77778C8.22211 8.86419 9.91348 10.5556 11.9999 10.5556ZM19.5554 17.1667C19.5554 19.5001 15.3579 20 11.9999 20C8.64187 20 4.44434 19.5001 4.44434 17.1667C4.44434 14.8332 7.82707 11.5 11.9999 11.5C16.1727 11.5 19.5554 14.8332 19.5554 17.1667Z" fill="#F1F1F1" fill-opacity="0.1"/>
<path fill-rule="evenodd" clip-rule="evenodd" d="M11.9999 10.5556C14.0863 10.5556 15.7777 8.86419 15.7777 6.77778C15.7777 4.69137 14.0863 3 11.9999 3C9.91348 3 8.22211 4.69137 8.22211 6.77778C8.22211 8.86419 9.91348 10.5556 11.9999 10.5556ZM19.5554 17.1667C19.5554 19.5001 15.3579 20 11.9999 20C8.64187 20 4.44434 19.5001 4.44434 17.1667C4.44434 14.8332 7.82707 11.5 11.9999 11.5C16.1727 11.5 19.5554 14.8332 19.5554 17.1667Z" fill="url(#paint1_linear_4262_2434)" fill-opacity="0.2"/>
<path d="M15.5777 6.77778C15.5777 8.75373 13.9758 10.3556 11.9999 10.3556V10.7556C14.1968 10.7556 15.9777 8.97464 15.9777 6.77778H15.5777ZM11.9999 3.2C13.9758 3.2 15.5777 4.80183 15.5777 6.77778H15.9777C15.9777 4.58091 14.1968 2.8 11.9999 2.8V3.2ZM8.42211 6.77778C8.42211 4.80183 10.0239 3.2 11.9999 3.2V2.8C9.80303 2.8 8.02211 4.58091 8.02211 6.77778H8.42211ZM11.9999 10.3556C10.0239 10.3556 8.42211 8.75373 8.42211 6.77778H8.02211C8.02211 8.97464 9.80303 10.7556 11.9999 10.7556V10.3556ZM11.9999 20.2C13.6843 20.2 15.5953 20.0751 17.0915 19.6508C17.8391 19.4388 18.4992 19.1477 18.9758 18.7469C19.4583 18.3412 19.7554 17.8196 19.7554 17.1667H19.3554C19.3554 17.6804 19.1279 18.0964 18.7184 18.4407C18.3031 18.79 17.7039 19.0613 16.9824 19.266C15.5402 19.675 13.6735 19.8 11.9999 19.8V20.2ZM4.24434 17.1667C4.24434 17.8196 4.54152 18.3412 5.02395 18.7469C5.5006 19.1477 6.16072 19.4388 6.90829 19.6508C8.40445 20.0751 10.3155 20.2 11.9999 20.2V19.8C10.3262 19.8 8.45953 19.675 7.01742 19.266C6.29585 19.0613 5.69671 18.79 5.28138 18.4407C4.87184 18.0964 4.64434 17.6804 4.64434 17.1667H4.24434ZM11.9999 11.3C9.86051 11.3 7.92785 12.1539 6.53023 13.3038C5.14107 14.4468 4.24434 15.9145 4.24434 17.1667H4.64434C4.64434 16.0853 5.43897 14.7197 6.78438 13.6127C8.12133 12.5127 9.96645 11.7 11.9999 11.7V11.3ZM19.7554 17.1667C19.7554 15.9145 18.8587 14.4468 17.4695 13.3038C16.0719 12.1539 14.1393 11.3 11.9999 11.3V11.7C14.0333 11.7 15.8784 12.5127 17.2154 13.6127C18.5608 14.7197 19.3554 16.0853 19.3554 17.1667H19.7554Z" fill="url(#paint2_linear_4262_2434)" fill-opacity="0.1" mask="url(#path-3-inside-1_4262_2434)"/>
</g>
<defs>
<filter id="filter0_bi_4262_2434" x="1.44434" y="0" width="21.1113" height="23" filterUnits="userSpaceOnUse" color-interpolation-filters="sRGB">
<feFlood flood-opacity="0" result="BackgroundImageFix"/>
<feGaussianBlur in="BackgroundImageFix" stdDeviation="1.5"/>
<feComposite in2="SourceAlpha" operator="in" result="effect1_backgroundBlur_4262_2434"/>
<feBlend mode="normal" in="SourceGraphic" in2="effect1_backgroundBlur_4262_2434" result="shape"/>
<feColorMatrix in="SourceAlpha" type="matrix" values="0 0 0 0 0 0 0 0 0 0 0 0 0 0 0 0 0 0 127 0" result="hardAlpha"/>
<feOffset dy="0.5"/>
<feGaussianBlur stdDeviation="1"/>
<feComposite in2="hardAlpha" operator="arithmetic" k2="-1" k3="1"/>
<feColorMatrix type="matrix" values="0 0 0 0 1 0 0 0 0 1 0 0 0 0 1 0 0 0 0.15 0"/>
<feBlend mode="normal" in2="shape" result="effect2_innerShadow_4262_2434"/>
</filter>
<linearGradient id="paint0_linear_4262_2434" x1="12" y1="14" x2="12" y2="22" gradientUnits="userSpaceOnUse">
<stop stop-color="#AAC1ED"/>
<stop offset="1" stop-color="#5374B6"/>
</linearGradient>
<linearGradient id="paint1_linear_4262_2434" x1="4.44434" y1="3" x2="22.474" y2="7.06938" gradientUnits="userSpaceOnUse">
<stop stop-color="#82E8FF"/>
<stop offset="1" stop-color="#379FFF"/>
</linearGradient>
<linearGradient id="paint2_linear_4262_2434" x1="4.91656" y1="3.77273" x2="19.5554" y2="3.77273" gradientUnits="userSpaceOnUse">
<stop stop-color="#7EE5FF"/>
<stop offset="1" stop-color="#41A9FF"/>
</linearGradient>
</defs>
</svg>
