<svg width="52" height="52" viewBox="0 0 52 52" fill="none" xmlns="http://www.w3.org/2000/svg">
<path fill-rule="evenodd" clip-rule="evenodd" d="M26.0004 21.6666C26.7873 21.6666 27.5123 22.0932 27.8944 22.7811L38.7277 42.2811C39.3089 43.3271 38.932 44.6462 37.886 45.2273C36.8399 45.8084 35.5209 45.4316 34.9397 44.3855L26.0004 28.2947L17.0611 44.3855C16.4799 45.4316 15.1609 45.8084 14.1148 45.2273C13.0688 44.6462 12.6919 43.3271 13.2731 42.2811L24.1064 22.7811C24.4885 22.0932 25.2135 21.6666 26.0004 21.6666Z" fill="url(#paint0_linear_4262_2185)"/>
<g filter="url(#filter0_bi_4262_2185)">
<rect x="6.5" y="6.5" width="39" height="30.3333" rx="4.33333" fill="#F1F1F1" fill-opacity="0.1"/>
<rect x="6.5" y="6.5" width="39" height="30.3333" rx="4.33333" fill="url(#paint1_linear_4262_2185)" fill-opacity="0.2"/>
<rect x="6.71667" y="6.71667" width="38.5667" height="29.9" rx="4.11667" stroke="url(#paint2_linear_4262_2185)" stroke-opacity="0.1" stroke-width="0.433333"/>
</g>
<g filter="url(#filter1_i_4262_2185)">
<rect x="8.6665" y="30.3334" width="34.6667" height="4.33333" rx="2.16667" fill="white" fill-opacity="0.1"/>
</g>
<defs>
<filter id="filter0_bi_4262_2185" x="3.5" y="3.5" width="45" height="36.3334" filterUnits="userSpaceOnUse" color-interpolation-filters="sRGB">
<feFlood flood-opacity="0" result="BackgroundImageFix"/>
<feGaussianBlur in="BackgroundImageFix" stdDeviation="1.5"/>
<feComposite in2="SourceAlpha" operator="in" result="effect1_backgroundBlur_4262_2185"/>
<feBlend mode="normal" in="SourceGraphic" in2="effect1_backgroundBlur_4262_2185" result="shape"/>
<feColorMatrix in="SourceAlpha" type="matrix" values="0 0 0 0 0 0 0 0 0 0 0 0 0 0 0 0 0 0 127 0" result="hardAlpha"/>
<feOffset dy="0.5"/>
<feGaussianBlur stdDeviation="1"/>
<feComposite in2="hardAlpha" operator="arithmetic" k2="-1" k3="1"/>
<feColorMatrix type="matrix" values="0 0 0 0 1 0 0 0 0 1 0 0 0 0 1 0 0 0 0.15 0"/>
<feBlend mode="normal" in2="shape" result="effect2_innerShadow_4262_2185"/>
</filter>
<filter id="filter1_i_4262_2185" x="8.6665" y="30.3334" width="34.6665" height="4.83337" filterUnits="userSpaceOnUse" color-interpolation-filters="sRGB">
<feFlood flood-opacity="0" result="BackgroundImageFix"/>
<feBlend mode="normal" in="SourceGraphic" in2="BackgroundImageFix" result="shape"/>
<feColorMatrix in="SourceAlpha" type="matrix" values="0 0 0 0 0 0 0 0 0 0 0 0 0 0 0 0 0 0 127 0" result="hardAlpha"/>
<feOffset dy="0.5"/>
<feGaussianBlur stdDeviation="0.25"/>
<feComposite in2="hardAlpha" operator="arithmetic" k2="-1" k3="1"/>
<feColorMatrix type="matrix" values="0 0 0 0 1 0 0 0 0 1 0 0 0 0 1 0 0 0 0.1 0"/>
<feBlend mode="normal" in2="shape" result="effect1_innerShadow_4262_2185"/>
</filter>
<linearGradient id="paint0_linear_4262_2185" x1="26.0004" y1="21.6666" x2="26.0004" y2="45.5004" gradientUnits="userSpaceOnUse">
<stop stop-color="#AAC1ED"/>
<stop offset="1" stop-color="#5374B6"/>
</linearGradient>
<linearGradient id="paint1_linear_4262_2185" x1="6.5" y1="6.5" x2="50.6927" y2="20.9275" gradientUnits="userSpaceOnUse">
<stop stop-color="#82E8FF"/>
<stop offset="1" stop-color="#379FFF"/>
</linearGradient>
<linearGradient id="paint2_linear_4262_2185" x1="7.71875" y1="7.87879" x2="45.5" y2="7.87879" gradientUnits="userSpaceOnUse">
<stop stop-color="#7EE5FF"/>
<stop offset="1" stop-color="#41A9FF"/>
</linearGradient>
</defs>
</svg>
