<svg width="52" height="52" viewBox="0 0 52 52" fill="none" xmlns="http://www.w3.org/2000/svg">
<rect x="31.7573" y="6.5" width="16.6352" height="17.3333" rx="4.33333" transform="rotate(45 31.7573 6.5)" fill="url(#paint0_linear_4262_2179)"/>
<g filter="url(#filter0_bi_4262_2179)">
<path d="M10.8335 13C10.8335 10.6067 12.7736 8.66663 15.1668 8.66663H26.3719C27.5212 8.66663 28.6234 9.12317 29.436 9.93583L39.8976 20.3974C40.7103 21.2101 41.1668 22.3123 41.1668 23.4616V39C41.1668 41.3932 39.2267 43.3333 36.8335 43.3333H15.1668C12.7736 43.3333 10.8335 41.3932 10.8335 39V13Z" fill="#F1F1F1" fill-opacity="0.1"/>
<path d="M10.8335 13C10.8335 10.6067 12.7736 8.66663 15.1668 8.66663H26.3719C27.5212 8.66663 28.6234 9.12317 29.436 9.93583L39.8976 20.3974C40.7103 21.2101 41.1668 22.3123 41.1668 23.4616V39C41.1668 41.3932 39.2267 43.3333 36.8335 43.3333H15.1668C12.7736 43.3333 10.8335 41.3932 10.8335 39V13Z" fill="url(#paint1_linear_4262_2179)" fill-opacity="0.2"/>
<path d="M15.1668 8.88329H26.3719C27.4637 8.88329 28.5108 9.31701 29.2828 10.089L39.7444 20.5506C40.5164 21.3227 40.9502 22.3697 40.9502 23.4616V39C40.9502 41.2735 39.1071 43.1166 36.8335 43.1166H15.1668C12.8933 43.1166 11.0502 41.2735 11.0502 39V13C11.0502 10.7264 12.8933 8.88329 15.1668 8.88329Z" stroke="url(#paint2_linear_4262_2179)" stroke-opacity="0.1" stroke-width="0.433333"/>
</g>
<g filter="url(#filter1_i_4262_2179)">
<rect x="15.1665" y="17.3334" width="13" height="4.33333" rx="2.16667" fill="white" fill-opacity="0.1"/>
</g>
<g filter="url(#filter2_i_4262_2179)">
<rect x="15.1665" y="26" width="19.5" height="4.33333" rx="2.16667" fill="white" fill-opacity="0.1"/>
</g>
<g filter="url(#filter3_i_4262_2179)">
<rect x="15.1665" y="34.6666" width="19.5" height="4.33333" rx="2.16667" fill="white" fill-opacity="0.1"/>
</g>
<defs>
<filter id="filter0_bi_4262_2179" x="4.3335" y="2.16663" width="43.3335" height="47.6666" filterUnits="userSpaceOnUse" color-interpolation-filters="sRGB">
<feFlood flood-opacity="0" result="BackgroundImageFix"/>
<feGaussianBlur in="BackgroundImageFix" stdDeviation="3.25"/>
<feComposite in2="SourceAlpha" operator="in" result="effect1_backgroundBlur_4262_2179"/>
<feBlend mode="normal" in="SourceGraphic" in2="effect1_backgroundBlur_4262_2179" result="shape"/>
<feColorMatrix in="SourceAlpha" type="matrix" values="0 0 0 0 0 0 0 0 0 0 0 0 0 0 0 0 0 0 127 0" result="hardAlpha"/>
<feOffset dy="1.08333"/>
<feGaussianBlur stdDeviation="2.16667"/>
<feComposite in2="hardAlpha" operator="arithmetic" k2="-1" k3="1"/>
<feColorMatrix type="matrix" values="0 0 0 0 1 0 0 0 0 1 0 0 0 0 1 0 0 0 0.15 0"/>
<feBlend mode="normal" in2="shape" result="effect2_innerShadow_4262_2179"/>
</filter>
<filter id="filter1_i_4262_2179" x="15.1665" y="17.3334" width="13" height="5.41671" filterUnits="userSpaceOnUse" color-interpolation-filters="sRGB">
<feFlood flood-opacity="0" result="BackgroundImageFix"/>
<feBlend mode="normal" in="SourceGraphic" in2="BackgroundImageFix" result="shape"/>
<feColorMatrix in="SourceAlpha" type="matrix" values="0 0 0 0 0 0 0 0 0 0 0 0 0 0 0 0 0 0 127 0" result="hardAlpha"/>
<feOffset dy="1.08333"/>
<feGaussianBlur stdDeviation="0.541667"/>
<feComposite in2="hardAlpha" operator="arithmetic" k2="-1" k3="1"/>
<feColorMatrix type="matrix" values="0 0 0 0 1 0 0 0 0 1 0 0 0 0 1 0 0 0 0.1 0"/>
<feBlend mode="normal" in2="shape" result="effect1_innerShadow_4262_2179"/>
</filter>
<filter id="filter2_i_4262_2179" x="15.1665" y="26" width="19.5" height="5.41671" filterUnits="userSpaceOnUse" color-interpolation-filters="sRGB">
<feFlood flood-opacity="0" result="BackgroundImageFix"/>
<feBlend mode="normal" in="SourceGraphic" in2="BackgroundImageFix" result="shape"/>
<feColorMatrix in="SourceAlpha" type="matrix" values="0 0 0 0 0 0 0 0 0 0 0 0 0 0 0 0 0 0 127 0" result="hardAlpha"/>
<feOffset dy="1.08333"/>
<feGaussianBlur stdDeviation="0.541667"/>
<feComposite in2="hardAlpha" operator="arithmetic" k2="-1" k3="1"/>
<feColorMatrix type="matrix" values="0 0 0 0 1 0 0 0 0 1 0 0 0 0 1 0 0 0 0.1 0"/>
<feBlend mode="normal" in2="shape" result="effect1_innerShadow_4262_2179"/>
</filter>
<filter id="filter3_i_4262_2179" x="15.1665" y="34.6666" width="19.5" height="5.41671" filterUnits="userSpaceOnUse" color-interpolation-filters="sRGB">
<feFlood flood-opacity="0" result="BackgroundImageFix"/>
<feBlend mode="normal" in="SourceGraphic" in2="BackgroundImageFix" result="shape"/>
<feColorMatrix in="SourceAlpha" type="matrix" values="0 0 0 0 0 0 0 0 0 0 0 0 0 0 0 0 0 0 127 0" result="hardAlpha"/>
<feOffset dy="1.08333"/>
<feGaussianBlur stdDeviation="0.541667"/>
<feComposite in2="hardAlpha" operator="arithmetic" k2="-1" k3="1"/>
<feColorMatrix type="matrix" values="0 0 0 0 1 0 0 0 0 1 0 0 0 0 1 0 0 0 0.1 0"/>
<feBlend mode="normal" in2="shape" result="effect1_innerShadow_4262_2179"/>
</filter>
<linearGradient id="paint0_linear_4262_2179" x1="40.0749" y1="6.5" x2="40.0749" y2="23.8333" gradientUnits="userSpaceOnUse">
<stop stop-color="#AAC1ED"/>
<stop offset="1" stop-color="#5374B6"/>
</linearGradient>
<linearGradient id="paint1_linear_4262_2179" x1="10.8335" y1="8.66663" x2="47.0798" y2="16.7198" gradientUnits="userSpaceOnUse">
<stop stop-color="#82E8FF"/>
<stop offset="1" stop-color="#379FFF"/>
</linearGradient>
<linearGradient id="paint2_linear_4262_2179" x1="11.7814" y1="10.2424" x2="41.1668" y2="10.2424" gradientUnits="userSpaceOnUse">
<stop stop-color="#7EE5FF"/>
<stop offset="1" stop-color="#41A9FF"/>
</linearGradient>
</defs>
</svg>
