<svg width="396" height="363" viewBox="0 0 396 363" fill="none" xmlns="http://www.w3.org/2000/svg">
<ellipse cx="198" cy="111.5" rx="111" ry="111.5" fill="url(#paint0_linear_4262_2152)"/>
<ellipse cx="111" cy="251.5" rx="111" ry="111.5" fill="url(#paint1_linear_4262_2152)"/>
<ellipse cx="285" cy="251.5" rx="111" ry="111.5" fill="url(#paint2_linear_4262_2152)"/>
<path d="M231.353 245.21C230.345 245.21 229.428 244.979 228.602 244.517C227.776 244.041 227.118 243.376 226.628 242.522C226.152 241.654 225.914 240.667 225.914 239.561C225.914 238.399 226.166 237.391 226.67 236.537C227.188 235.683 227.86 235.039 228.686 234.605C229.512 234.157 230.401 233.933 231.353 233.933C232.151 233.933 232.879 234.073 233.537 234.353C234.195 234.619 234.713 234.997 235.091 235.487C235.483 235.977 235.679 236.53 235.679 237.146C235.679 237.608 235.56 237.965 235.322 238.217C235.084 238.455 234.769 238.574 234.377 238.574C233.999 238.574 233.684 238.448 233.432 238.196C233.18 237.944 233.054 237.629 233.054 237.251C233.264 237.111 233.411 236.957 233.495 236.789C233.579 236.621 233.621 236.411 233.621 236.159C233.621 235.641 233.411 235.221 232.991 234.899C232.585 234.563 232.039 234.395 231.353 234.395C230.345 234.395 229.568 234.759 229.022 235.487C228.49 236.201 228.224 237.209 228.224 238.511V240.611C228.224 241.857 228.483 242.858 229.001 243.614C229.533 244.37 230.317 244.748 231.353 244.748C232.305 244.748 233.131 244.482 233.831 243.95C234.545 243.404 234.986 242.69 235.154 241.808H235.637C235.441 242.844 234.951 243.67 234.167 244.286C233.397 244.902 232.459 245.21 231.353 245.21ZM236.916 245V244.58L238.491 244.37V228.83L236.916 228.62V228.2H240.591V244.37L242.061 244.58V245H236.916ZM245.318 231.686C244.926 231.686 244.59 231.553 244.31 231.287C244.03 231.007 243.89 230.671 243.89 230.279C243.89 229.887 244.023 229.558 244.289 229.292C244.569 229.026 244.912 228.893 245.318 228.893C245.696 228.893 246.018 229.026 246.284 229.292C246.55 229.558 246.683 229.887 246.683 230.279C246.683 230.671 246.55 231.007 246.284 231.287C246.018 231.553 245.696 231.686 245.318 231.686ZM243.092 245V244.58L244.562 244.37V234.773L243.092 234.563V234.143H246.662V244.37L248.132 244.58V245H243.092ZM255.022 245.21C253.986 245.21 253.048 244.979 252.208 244.517C251.368 244.041 250.703 243.376 250.213 242.522C249.723 241.668 249.478 240.681 249.478 239.561C249.478 238.441 249.716 237.461 250.192 236.621C250.682 235.767 251.333 235.109 252.145 234.647C252.971 234.171 253.888 233.933 254.896 233.933C255.778 233.933 256.569 234.129 257.269 234.521C257.969 234.913 258.515 235.459 258.907 236.159C259.299 236.845 259.502 237.636 259.516 238.532H251.788V240.611C251.788 241.843 252.061 242.844 252.607 243.614C253.167 244.37 253.972 244.748 255.022 244.748C255.988 244.748 256.842 244.475 257.584 243.929C258.326 243.383 258.781 242.676 258.949 241.808H259.432C259.236 242.844 258.739 243.67 257.941 244.286C257.143 244.902 256.17 245.21 255.022 245.21ZM257.206 238.007C257.206 236.789 257.017 235.886 256.639 235.298C256.261 234.696 255.673 234.395 254.875 234.395C253.937 234.395 253.209 234.724 252.691 235.382C252.173 236.04 251.879 236.915 251.809 238.007H257.206ZM260.913 244.58L262.383 244.37V234.752L260.913 234.542V234.122H264.483V236.39C265.001 235.634 265.61 235.039 266.31 234.605C267.01 234.157 267.766 233.933 268.578 233.933C269.586 233.933 270.377 234.185 270.951 234.689C271.539 235.193 271.833 235.942 271.833 236.936V244.37L273.303 244.58V245H268.473V244.58L269.733 244.37V236.978C269.733 236.25 269.586 235.69 269.292 235.298C268.998 234.892 268.543 234.689 267.927 234.689C267.283 234.689 266.66 234.927 266.058 235.403C265.47 235.865 264.945 236.439 264.483 237.125V244.37L265.743 244.58V245H260.913V244.58ZM278.59 245.21C277.666 245.21 276.924 244.979 276.364 244.517C275.818 244.055 275.545 243.32 275.545 242.312V234.752L274.054 234.542V234.122H275.545V232.379L277.645 231.854V234.122H280.375V234.542L277.645 234.752V242.27C277.645 243.754 278.177 244.496 279.241 244.496C279.465 244.496 279.675 244.461 279.871 244.391C280.081 244.321 280.242 244.251 280.354 244.181C280.48 244.111 280.557 244.062 280.585 244.034L280.858 244.37C280.228 244.93 279.472 245.21 278.59 245.21ZM282.322 239.603V238.91H286.921V239.603H282.322ZM294.62 245.21C293.612 245.21 292.695 244.979 291.869 244.517C291.043 244.041 290.385 243.376 289.895 242.522C289.419 241.654 289.181 240.667 289.181 239.561C289.181 238.399 289.433 237.391 289.937 236.537C290.455 235.683 291.127 235.039 291.953 234.605C292.779 234.157 293.668 233.933 294.62 233.933C295.418 233.933 296.146 234.073 296.804 234.353C297.462 234.619 297.98 234.997 298.358 235.487C298.75 235.977 298.946 236.53 298.946 237.146C298.946 237.608 298.827 237.965 298.589 238.217C298.351 238.455 298.036 238.574 297.644 238.574C297.266 238.574 296.951 238.448 296.699 238.196C296.447 237.944 296.321 237.629 296.321 237.251C296.531 237.111 296.678 236.957 296.762 236.789C296.846 236.621 296.888 236.411 296.888 236.159C296.888 235.641 296.678 235.221 296.258 234.899C295.852 234.563 295.306 234.395 294.62 234.395C293.612 234.395 292.835 234.759 292.289 235.487C291.757 236.201 291.491 237.209 291.491 238.511V240.611C291.491 241.857 291.75 242.858 292.268 243.614C292.8 244.37 293.584 244.748 294.62 244.748C295.572 244.748 296.398 244.482 297.098 243.95C297.812 243.404 298.253 242.69 298.421 241.808H298.904C298.708 242.844 298.218 243.67 297.434 244.286C296.664 244.902 295.726 245.21 294.62 245.21ZM306.209 245.21C305.173 245.21 304.235 244.979 303.395 244.517C302.555 244.041 301.89 243.376 301.4 242.522C300.91 241.668 300.665 240.681 300.665 239.561C300.665 238.441 300.903 237.461 301.379 236.621C301.869 235.767 302.52 235.109 303.332 234.647C304.158 234.171 305.075 233.933 306.083 233.933C306.965 233.933 307.756 234.129 308.456 234.521C309.156 234.913 309.702 235.459 310.094 236.159C310.486 236.845 310.689 237.636 310.703 238.532H302.975V240.611C302.975 241.843 303.248 242.844 303.794 243.614C304.354 244.37 305.159 244.748 306.209 244.748C307.175 244.748 308.029 244.475 308.771 243.929C309.513 243.383 309.968 242.676 310.136 241.808H310.619C310.423 242.844 309.926 243.67 309.128 244.286C308.33 244.902 307.357 245.21 306.209 245.21ZM308.393 238.007C308.393 236.789 308.204 235.886 307.826 235.298C307.448 234.696 306.86 234.395 306.062 234.395C305.124 234.395 304.396 234.724 303.878 235.382C303.36 236.04 303.066 236.915 302.996 238.007H308.393ZM312.101 244.58L313.571 244.37V234.752L312.101 234.542V234.122H315.671V236.39C316.189 235.634 316.798 235.039 317.498 234.605C318.198 234.157 318.954 233.933 319.766 233.933C320.774 233.933 321.565 234.185 322.139 234.689C322.727 235.193 323.021 235.942 323.021 236.936V244.37L324.491 244.58V245H319.661V244.58L320.921 244.37V236.978C320.921 236.25 320.774 235.69 320.48 235.298C320.186 234.892 319.731 234.689 319.115 234.689C318.471 234.689 317.848 234.927 317.246 235.403C316.658 235.865 316.133 236.439 315.671 237.125V244.37L316.931 244.58V245H312.101V244.58ZM329.778 245.21C328.854 245.21 328.112 244.979 327.552 244.517C327.006 244.055 326.733 243.32 326.733 242.312V234.752L325.242 234.542V234.122H326.733V232.379L328.833 231.854V234.122H331.563V234.542L328.833 234.752V242.27C328.833 243.754 329.365 244.496 330.429 244.496C330.653 244.496 330.863 244.461 331.059 244.391C331.269 244.321 331.43 244.251 331.542 244.181C331.668 244.111 331.745 244.062 331.773 244.034L332.046 244.37C331.416 244.93 330.66 245.21 329.778 245.21ZM332.711 244.58L334.181 244.37V234.752L332.711 234.542V234.122H336.281V235.739C337.163 234.535 338.157 233.933 339.263 233.933C339.795 233.933 340.264 234.073 340.67 234.353C341.076 234.619 341.279 235.004 341.279 235.508C341.279 235.872 341.16 236.18 340.922 236.432C340.684 236.67 340.369 236.789 339.977 236.789C339.529 236.789 339.165 236.614 338.885 236.264C339.039 236.068 339.116 235.858 339.116 235.634C339.116 235.396 339.032 235.207 338.864 235.067C338.71 234.913 338.5 234.836 338.234 234.836C337.94 234.836 337.639 234.976 337.331 235.256C337.023 235.522 336.673 235.942 336.281 236.516V244.37L337.961 244.58V245H332.711V244.58ZM344.248 231.686C343.856 231.686 343.52 231.553 343.24 231.287C342.96 231.007 342.82 230.671 342.82 230.279C342.82 229.887 342.953 229.558 343.219 229.292C343.499 229.026 343.842 228.893 344.248 228.893C344.626 228.893 344.948 229.026 345.214 229.292C345.48 229.558 345.613 229.887 345.613 230.279C345.613 230.671 345.48 231.007 345.214 231.287C344.948 231.553 344.626 231.686 344.248 231.686ZM342.022 245V244.58L343.492 244.37V234.773L342.022 234.563V234.143H345.592V244.37L347.062 244.58V245H342.022ZM353.846 245.21C352.838 245.21 351.921 244.979 351.095 244.517C350.269 244.041 349.611 243.376 349.121 242.522C348.645 241.654 348.407 240.667 348.407 239.561C348.407 238.399 348.659 237.391 349.163 236.537C349.681 235.683 350.353 235.039 351.179 234.605C352.005 234.157 352.894 233.933 353.846 233.933C354.644 233.933 355.372 234.073 356.03 234.353C356.688 234.619 357.206 234.997 357.584 235.487C357.976 235.977 358.172 236.53 358.172 237.146C358.172 237.608 358.053 237.965 357.815 238.217C357.577 238.455 357.262 238.574 356.87 238.574C356.492 238.574 356.177 238.448 355.925 238.196C355.673 237.944 355.547 237.629 355.547 237.251C355.757 237.111 355.904 236.957 355.988 236.789C356.072 236.621 356.114 236.411 356.114 236.159C356.114 235.641 355.904 235.221 355.484 234.899C355.078 234.563 354.532 234.395 353.846 234.395C352.838 234.395 352.061 234.759 351.515 235.487C350.983 236.201 350.717 237.209 350.717 238.511V240.611C350.717 241.857 350.976 242.858 351.494 243.614C352.026 244.37 352.81 244.748 353.846 244.748C354.798 244.748 355.624 244.482 356.324 243.95C357.038 243.404 357.479 242.69 357.647 241.808H358.13C357.934 242.844 357.444 243.67 356.66 244.286C355.89 244.902 354.952 245.21 353.846 245.21ZM247.418 273.21C246.522 273.21 245.787 272.979 245.213 272.517C244.639 272.041 244.352 271.341 244.352 270.417C244.352 269.101 244.905 268.17 246.011 267.624C247.117 267.064 248.398 266.784 249.854 266.784H251.261V265.167C251.261 264.439 251.177 263.879 251.009 263.487C250.855 263.081 250.61 262.801 250.274 262.647C249.938 262.479 249.483 262.395 248.909 262.395C248.251 262.395 247.761 262.528 247.439 262.794C247.117 263.046 246.956 263.389 246.956 263.823C246.956 264.229 247.152 264.495 247.544 264.621C247.544 264.971 247.411 265.279 247.145 265.545C246.879 265.811 246.564 265.944 246.2 265.944C245.808 265.944 245.493 265.839 245.255 265.629C245.017 265.405 244.898 265.069 244.898 264.621C244.898 263.809 245.304 263.158 246.116 262.668C246.928 262.178 247.943 261.933 249.161 261.933C251.961 261.933 253.361 263.151 253.361 265.587V271.593C253.361 271.901 253.424 272.139 253.55 272.307C253.69 272.461 253.886 272.538 254.138 272.538C254.376 272.538 254.565 272.461 254.705 272.307C254.845 272.139 254.915 271.915 254.915 271.635H255.356C255.356 272.125 255.195 272.51 254.873 272.79C254.565 273.07 254.131 273.21 253.571 273.21C252.927 273.21 252.381 273.028 251.933 272.664C251.499 272.286 251.275 271.705 251.261 270.921C250.925 271.635 250.407 272.195 249.707 272.601C249.021 273.007 248.258 273.21 247.418 273.21ZM248.573 272.286C248.951 272.286 249.336 272.174 249.728 271.95C250.134 271.726 250.477 271.404 250.757 270.984C251.037 270.55 251.205 270.032 251.261 269.43V267.246H249.854C248.706 267.246 247.845 267.505 247.271 268.023C246.711 268.527 246.431 269.241 246.431 270.165C246.431 270.935 246.613 271.481 246.977 271.803C247.341 272.125 247.873 272.286 248.573 272.286ZM255.742 278.523L257.212 278.313V262.773L255.742 262.563V262.143H259.312V264.348C259.662 263.592 260.131 263.004 260.719 262.584C261.321 262.15 262.035 261.933 262.861 261.933C263.855 261.933 264.73 262.171 265.486 262.647C266.242 263.109 266.83 263.767 267.25 264.621C267.67 265.461 267.88 266.448 267.88 267.582C267.88 268.716 267.67 269.71 267.25 270.564C266.83 271.404 266.242 272.055 265.486 272.517C264.73 272.979 263.855 273.21 262.861 273.21C262.035 273.21 261.321 273 260.719 272.58C260.131 272.146 259.662 271.558 259.312 270.816V278.313L261.286 278.523V278.943H255.742V278.523ZM262.651 272.685C264.597 272.685 265.57 271.334 265.57 268.632V266.532C265.57 263.816 264.597 262.458 262.651 262.458C262.035 262.458 261.475 262.64 260.971 263.004C260.467 263.354 260.068 263.83 259.774 264.432C259.48 265.034 259.326 265.685 259.312 266.385V268.632C259.312 269.346 259.452 270.018 259.732 270.648C260.026 271.264 260.425 271.761 260.929 272.139C261.447 272.503 262.021 272.685 262.651 272.685ZM269.216 278.523L270.686 278.313V262.773L269.216 262.563V262.143H272.786V264.348C273.136 263.592 273.605 263.004 274.193 262.584C274.795 262.15 275.509 261.933 276.335 261.933C277.329 261.933 278.204 262.171 278.96 262.647C279.716 263.109 280.304 263.767 280.724 264.621C281.144 265.461 281.354 266.448 281.354 267.582C281.354 268.716 281.144 269.71 280.724 270.564C280.304 271.404 279.716 272.055 278.96 272.517C278.204 272.979 277.329 273.21 276.335 273.21C275.509 273.21 274.795 273 274.193 272.58C273.605 272.146 273.136 271.558 272.786 270.816V278.313L274.76 278.523V278.943H269.216V278.523ZM276.125 272.685C278.071 272.685 279.044 271.334 279.044 268.632V266.532C279.044 263.816 278.071 262.458 276.125 262.458C275.509 262.458 274.949 262.64 274.445 263.004C273.941 263.354 273.542 263.83 273.248 264.432C272.954 265.034 272.8 265.685 272.786 266.385V268.632C272.786 269.346 272.926 270.018 273.206 270.648C273.5 271.264 273.899 271.761 274.403 272.139C274.921 272.503 275.495 272.685 276.125 272.685ZM282.816 272.58L284.286 272.37V262.752L282.816 262.542V262.122H286.386V263.739C287.268 262.535 288.262 261.933 289.368 261.933C289.9 261.933 290.369 262.073 290.775 262.353C291.181 262.619 291.384 263.004 291.384 263.508C291.384 263.872 291.265 264.18 291.027 264.432C290.789 264.67 290.474 264.789 290.082 264.789C289.634 264.789 289.27 264.614 288.99 264.264C289.144 264.068 289.221 263.858 289.221 263.634C289.221 263.396 289.137 263.207 288.969 263.067C288.815 262.913 288.605 262.836 288.339 262.836C288.045 262.836 287.744 262.976 287.436 263.256C287.128 263.522 286.778 263.942 286.386 264.516V272.37L288.066 272.58V273H282.816V272.58ZM297.675 273.21C296.667 273.21 295.75 272.979 294.924 272.517C294.098 272.041 293.44 271.376 292.95 270.522C292.474 269.654 292.236 268.667 292.236 267.561C292.236 266.455 292.474 265.475 292.95 264.621C293.44 263.767 294.098 263.109 294.924 262.647C295.75 262.171 296.667 261.933 297.675 261.933C298.683 261.933 299.6 262.171 300.426 262.647C301.252 263.109 301.903 263.767 302.379 264.621C302.869 265.475 303.114 266.455 303.114 267.561C303.114 268.667 302.869 269.654 302.379 270.522C301.903 271.376 301.252 272.041 300.426 272.517C299.6 272.979 298.683 273.21 297.675 273.21ZM297.675 272.748C298.711 272.748 299.488 272.37 300.006 271.614C300.538 270.858 300.804 269.857 300.804 268.611V266.511C300.804 265.265 300.538 264.271 300.006 263.529C299.488 262.773 298.711 262.395 297.675 262.395C296.639 262.395 295.855 262.773 295.323 263.529C294.805 264.271 294.546 265.265 294.546 266.511V268.611C294.546 269.857 294.805 270.858 295.323 271.614C295.855 272.37 296.639 272.748 297.675 272.748ZM308.039 273.21C307.143 273.21 306.408 272.979 305.834 272.517C305.26 272.041 304.973 271.341 304.973 270.417C304.973 269.101 305.526 268.17 306.632 267.624C307.738 267.064 309.019 266.784 310.475 266.784H311.882V265.167C311.882 264.439 311.798 263.879 311.63 263.487C311.476 263.081 311.231 262.801 310.895 262.647C310.559 262.479 310.104 262.395 309.53 262.395C308.872 262.395 308.382 262.528 308.06 262.794C307.738 263.046 307.577 263.389 307.577 263.823C307.577 264.229 307.773 264.495 308.165 264.621C308.165 264.971 308.032 265.279 307.766 265.545C307.5 265.811 307.185 265.944 306.821 265.944C306.429 265.944 306.114 265.839 305.876 265.629C305.638 265.405 305.519 265.069 305.519 264.621C305.519 263.809 305.925 263.158 306.737 262.668C307.549 262.178 308.564 261.933 309.782 261.933C312.582 261.933 313.982 263.151 313.982 265.587V271.593C313.982 271.901 314.045 272.139 314.171 272.307C314.311 272.461 314.507 272.538 314.759 272.538C314.997 272.538 315.186 272.461 315.326 272.307C315.466 272.139 315.536 271.915 315.536 271.635H315.977C315.977 272.125 315.816 272.51 315.494 272.79C315.186 273.07 314.752 273.21 314.192 273.21C313.548 273.21 313.002 273.028 312.554 272.664C312.12 272.286 311.896 271.705 311.882 270.921C311.546 271.635 311.028 272.195 310.328 272.601C309.642 273.007 308.879 273.21 308.039 273.21ZM309.194 272.286C309.572 272.286 309.957 272.174 310.349 271.95C310.755 271.726 311.098 271.404 311.378 270.984C311.658 270.55 311.826 270.032 311.882 269.43V267.246H310.475C309.327 267.246 308.466 267.505 307.892 268.023C307.332 268.527 307.052 269.241 307.052 270.165C307.052 270.935 307.234 271.481 307.598 271.803C307.962 272.125 308.494 272.286 309.194 272.286ZM322.264 273.21C321.256 273.21 320.339 272.979 319.513 272.517C318.687 272.041 318.029 271.376 317.539 270.522C317.063 269.654 316.825 268.667 316.825 267.561C316.825 266.399 317.077 265.391 317.581 264.537C318.099 263.683 318.771 263.039 319.597 262.605C320.423 262.157 321.312 261.933 322.264 261.933C323.062 261.933 323.79 262.073 324.448 262.353C325.106 262.619 325.624 262.997 326.002 263.487C326.394 263.977 326.59 264.53 326.59 265.146C326.59 265.608 326.471 265.965 326.233 266.217C325.995 266.455 325.68 266.574 325.288 266.574C324.91 266.574 324.595 266.448 324.343 266.196C324.091 265.944 323.965 265.629 323.965 265.251C324.175 265.111 324.322 264.957 324.406 264.789C324.49 264.621 324.532 264.411 324.532 264.159C324.532 263.641 324.322 263.221 323.902 262.899C323.496 262.563 322.95 262.395 322.264 262.395C321.256 262.395 320.479 262.759 319.933 263.487C319.401 264.201 319.135 265.209 319.135 266.511V268.611C319.135 269.857 319.394 270.858 319.912 271.614C320.444 272.37 321.228 272.748 322.264 272.748C323.216 272.748 324.042 272.482 324.742 271.95C325.456 271.404 325.897 270.69 326.065 269.808H326.548C326.352 270.844 325.862 271.67 325.078 272.286C324.308 272.902 323.37 273.21 322.264 273.21ZM327.848 272.58L329.318 272.37V256.83L327.848 256.62V256.2H331.418V264.39C331.936 263.634 332.545 263.039 333.245 262.605C333.945 262.157 334.701 261.933 335.513 261.933C336.521 261.933 337.312 262.185 337.886 262.689C338.474 263.193 338.768 263.942 338.768 264.936V272.37L340.238 272.58V273H335.408V272.58L336.668 272.37V264.978C336.668 264.25 336.521 263.69 336.227 263.298C335.933 262.892 335.478 262.689 334.862 262.689C334.218 262.689 333.595 262.927 332.993 263.403C332.405 263.865 331.88 264.439 331.418 265.125V272.37L332.678 272.58V273H327.848V272.58Z" fill="url(#paint3_linear_4262_2152)"/>
<path d="M79.7171 245.21C78.8211 245.21 78.0861 244.979 77.5121 244.517C76.9381 244.041 76.6511 243.341 76.6511 242.417C76.6511 241.101 77.2041 240.17 78.3101 239.624C79.4161 239.064 80.6971 238.784 82.1531 238.784H83.5601V237.167C83.5601 236.439 83.4761 235.879 83.3081 235.487C83.1541 235.081 82.9091 234.801 82.5731 234.647C82.2371 234.479 81.7821 234.395 81.2081 234.395C80.5501 234.395 80.0601 234.528 79.7381 234.794C79.4161 235.046 79.2551 235.389 79.2551 235.823C79.2551 236.229 79.4511 236.495 79.8431 236.621C79.8431 236.971 79.7101 237.279 79.4441 237.545C79.1781 237.811 78.8631 237.944 78.4991 237.944C78.1071 237.944 77.7921 237.839 77.5541 237.629C77.3161 237.405 77.1971 237.069 77.1971 236.621C77.1971 235.809 77.6031 235.158 78.4151 234.668C79.2271 234.178 80.2421 233.933 81.4601 233.933C84.2601 233.933 85.6601 235.151 85.6601 237.587V243.593C85.6601 243.901 85.7231 244.139 85.8491 244.307C85.9891 244.461 86.1851 244.538 86.4371 244.538C86.6751 244.538 86.8641 244.461 87.0041 244.307C87.1441 244.139 87.2141 243.915 87.2141 243.635H87.6551C87.6551 244.125 87.4941 244.51 87.1721 244.79C86.8641 245.07 86.4301 245.21 85.8701 245.21C85.2261 245.21 84.6801 245.028 84.2321 244.664C83.7981 244.286 83.5741 243.705 83.5601 242.921C83.2241 243.635 82.7061 244.195 82.0061 244.601C81.3201 245.007 80.5571 245.21 79.7171 245.21ZM80.8721 244.286C81.2501 244.286 81.6351 244.174 82.0271 243.95C82.4331 243.726 82.7761 243.404 83.0561 242.984C83.3361 242.55 83.5041 242.032 83.5601 241.43V239.246H82.1531C81.0051 239.246 80.1441 239.505 79.5701 240.023C79.0101 240.527 78.7301 241.241 78.7301 242.165C78.7301 242.935 78.9121 243.481 79.2761 243.803C79.6401 244.125 80.1721 244.286 80.8721 244.286ZM93.9421 245.21C92.9341 245.21 92.0171 244.979 91.1911 244.517C90.3651 244.041 89.7071 243.376 89.2171 242.522C88.7411 241.654 88.5031 240.667 88.5031 239.561C88.5031 238.399 88.7551 237.391 89.2591 236.537C89.7771 235.683 90.4491 235.039 91.2751 234.605C92.1011 234.157 92.9901 233.933 93.9421 233.933C94.7401 233.933 95.4681 234.073 96.1261 234.353C96.7841 234.619 97.3021 234.997 97.6801 235.487C98.0721 235.977 98.2681 236.53 98.2681 237.146C98.2681 237.608 98.1491 237.965 97.9111 238.217C97.6731 238.455 97.3581 238.574 96.9661 238.574C96.5881 238.574 96.2731 238.448 96.0211 238.196C95.7691 237.944 95.6431 237.629 95.6431 237.251C95.8531 237.111 96.0001 236.957 96.0841 236.789C96.1681 236.621 96.2101 236.411 96.2101 236.159C96.2101 235.641 96.0001 235.221 95.5801 234.899C95.1741 234.563 94.6281 234.395 93.9421 234.395C92.9341 234.395 92.1571 234.759 91.6111 235.487C91.0791 236.201 90.8131 237.209 90.8131 238.511V240.611C90.8131 241.857 91.0721 242.858 91.5901 243.614C92.1221 244.37 92.9061 244.748 93.9421 244.748C94.8941 244.748 95.7201 244.482 96.4201 243.95C97.1341 243.404 97.5751 242.69 97.7431 241.808H98.2261C98.0301 242.844 97.5401 243.67 96.7561 244.286C95.9861 244.902 95.0481 245.21 93.9421 245.21ZM105.426 245.21C104.418 245.21 103.501 244.979 102.675 244.517C101.849 244.041 101.191 243.376 100.701 242.522C100.225 241.654 99.9875 240.667 99.9875 239.561C99.9875 238.399 100.239 237.391 100.743 236.537C101.261 235.683 101.933 235.039 102.759 234.605C103.585 234.157 104.474 233.933 105.426 233.933C106.224 233.933 106.952 234.073 107.61 234.353C108.268 234.619 108.786 234.997 109.164 235.487C109.556 235.977 109.752 236.53 109.752 237.146C109.752 237.608 109.633 237.965 109.395 238.217C109.157 238.455 108.842 238.574 108.45 238.574C108.072 238.574 107.757 238.448 107.505 238.196C107.253 237.944 107.127 237.629 107.127 237.251C107.337 237.111 107.484 236.957 107.568 236.789C107.652 236.621 107.694 236.411 107.694 236.159C107.694 235.641 107.484 235.221 107.064 234.899C106.658 234.563 106.112 234.395 105.426 234.395C104.418 234.395 103.641 234.759 103.095 235.487C102.563 236.201 102.297 237.209 102.297 238.511V240.611C102.297 241.857 102.556 242.858 103.074 243.614C103.606 244.37 104.39 244.748 105.426 244.748C106.378 244.748 107.204 244.482 107.904 243.95C108.618 243.404 109.059 242.69 109.227 241.808H109.71C109.514 242.844 109.024 243.67 108.24 244.286C107.47 244.902 106.532 245.21 105.426 245.21ZM117.016 245.21C115.98 245.21 115.042 244.979 114.202 244.517C113.362 244.041 112.697 243.376 112.207 242.522C111.717 241.668 111.472 240.681 111.472 239.561C111.472 238.441 111.71 237.461 112.186 236.621C112.676 235.767 113.327 235.109 114.139 234.647C114.965 234.171 115.882 233.933 116.89 233.933C117.772 233.933 118.563 234.129 119.263 234.521C119.963 234.913 120.509 235.459 120.901 236.159C121.293 236.845 121.496 237.636 121.51 238.532H113.782V240.611C113.782 241.843 114.055 242.844 114.601 243.614C115.161 244.37 115.966 244.748 117.016 244.748C117.982 244.748 118.836 244.475 119.578 243.929C120.32 243.383 120.775 242.676 120.943 241.808H121.426C121.23 242.844 120.733 243.67 119.935 244.286C119.137 244.902 118.164 245.21 117.016 245.21ZM119.2 238.007C119.2 236.789 119.011 235.886 118.633 235.298C118.255 234.696 117.667 234.395 116.869 234.395C115.931 234.395 115.203 234.724 114.685 235.382C114.167 236.04 113.873 236.915 113.803 238.007H119.2ZM127.38 245.21C126.232 245.21 125.273 244.965 124.503 244.475C123.733 243.985 123.348 243.348 123.348 242.564C123.348 242.158 123.453 241.843 123.663 241.619C123.887 241.381 124.181 241.262 124.545 241.262C124.825 241.262 125.063 241.332 125.259 241.472C125.455 241.612 125.595 241.808 125.679 242.06C125.371 242.396 125.217 242.753 125.217 243.131C125.217 243.565 125.413 243.943 125.805 244.265C126.197 244.587 126.722 244.748 127.38 244.748C128.262 244.748 128.983 244.552 129.543 244.16C130.103 243.754 130.383 243.215 130.383 242.543C130.383 242.151 130.264 241.857 130.026 241.661C129.788 241.465 129.326 241.241 128.64 240.989L125.469 239.834C124.223 239.386 123.6 238.553 123.6 237.335C123.6 236.341 123.943 235.529 124.629 234.899C125.315 234.255 126.26 233.933 127.464 233.933C128.458 233.933 129.305 234.164 130.005 234.626C130.719 235.074 131.076 235.718 131.076 236.558C131.076 236.894 130.985 237.167 130.803 237.377C130.621 237.573 130.383 237.671 130.089 237.671C129.795 237.671 129.55 237.594 129.354 237.44C129.172 237.272 129.081 237.048 129.081 236.768C129.263 236.628 129.389 236.481 129.459 236.327C129.529 236.159 129.564 235.963 129.564 235.739C129.564 235.347 129.389 235.025 129.039 234.773C128.703 234.521 128.178 234.395 127.464 234.395C126.848 234.395 126.316 234.493 125.868 234.689C125.434 234.871 125.105 235.116 124.881 235.424C124.657 235.732 124.545 236.047 124.545 236.369C124.545 236.705 124.664 236.971 124.902 237.167C125.154 237.363 125.609 237.58 126.267 237.818L129.207 238.868C129.893 239.12 130.411 239.47 130.761 239.918C131.111 240.366 131.286 240.947 131.286 241.661C131.286 242.683 130.964 243.53 130.32 244.202C129.676 244.874 128.696 245.21 127.38 245.21ZM137.368 245.21C136.22 245.21 135.261 244.965 134.491 244.475C133.721 243.985 133.336 243.348 133.336 242.564C133.336 242.158 133.441 241.843 133.651 241.619C133.875 241.381 134.169 241.262 134.533 241.262C134.813 241.262 135.051 241.332 135.247 241.472C135.443 241.612 135.583 241.808 135.667 242.06C135.359 242.396 135.205 242.753 135.205 243.131C135.205 243.565 135.401 243.943 135.793 244.265C136.185 244.587 136.71 244.748 137.368 244.748C138.25 244.748 138.971 244.552 139.531 244.16C140.091 243.754 140.371 243.215 140.371 242.543C140.371 242.151 140.252 241.857 140.014 241.661C139.776 241.465 139.314 241.241 138.628 240.989L135.457 239.834C134.211 239.386 133.588 238.553 133.588 237.335C133.588 236.341 133.931 235.529 134.617 234.899C135.303 234.255 136.248 233.933 137.452 233.933C138.446 233.933 139.293 234.164 139.993 234.626C140.707 235.074 141.064 235.718 141.064 236.558C141.064 236.894 140.973 237.167 140.791 237.377C140.609 237.573 140.371 237.671 140.077 237.671C139.783 237.671 139.538 237.594 139.342 237.44C139.16 237.272 139.069 237.048 139.069 236.768C139.251 236.628 139.377 236.481 139.447 236.327C139.517 236.159 139.552 235.963 139.552 235.739C139.552 235.347 139.377 235.025 139.027 234.773C138.691 234.521 138.166 234.395 137.452 234.395C136.836 234.395 136.304 234.493 135.856 234.689C135.422 234.871 135.093 235.116 134.869 235.424C134.645 235.732 134.533 236.047 134.533 236.369C134.533 236.705 134.652 236.971 134.89 237.167C135.142 237.363 135.597 237.58 136.255 237.818L139.195 238.868C139.881 239.12 140.399 239.47 140.749 239.918C141.099 240.366 141.274 240.947 141.274 241.661C141.274 242.683 140.952 243.53 140.308 244.202C139.664 244.874 138.684 245.21 137.368 245.21ZM61.2704 273.21C60.3464 273.21 59.6044 272.979 59.0444 272.517C58.4984 272.055 58.2254 271.32 58.2254 270.312V262.752L56.7344 262.542V262.122H58.2254V260.379L60.3254 259.854V262.122H63.0554V262.542L60.3254 262.752V270.27C60.3254 271.754 60.8574 272.496 61.9214 272.496C62.1454 272.496 62.3554 272.461 62.5514 272.391C62.7614 272.321 62.9224 272.251 63.0344 272.181C63.1604 272.111 63.2374 272.062 63.2654 272.034L63.5384 272.37C62.9084 272.93 62.1524 273.21 61.2704 273.21ZM69.343 273.21C68.335 273.21 67.418 272.979 66.592 272.517C65.766 272.041 65.108 271.376 64.618 270.522C64.142 269.654 63.904 268.667 63.904 267.561C63.904 266.455 64.142 265.475 64.618 264.621C65.108 263.767 65.766 263.109 66.592 262.647C67.418 262.171 68.335 261.933 69.343 261.933C70.351 261.933 71.268 262.171 72.094 262.647C72.92 263.109 73.571 263.767 74.047 264.621C74.537 265.475 74.782 266.455 74.782 267.561C74.782 268.667 74.537 269.654 74.047 270.522C73.571 271.376 72.92 272.041 72.094 272.517C71.268 272.979 70.351 273.21 69.343 273.21ZM69.343 272.748C70.379 272.748 71.156 272.37 71.674 271.614C72.206 270.858 72.472 269.857 72.472 268.611V266.511C72.472 265.265 72.206 264.271 71.674 263.529C71.156 262.773 70.379 262.395 69.343 262.395C68.307 262.395 67.523 262.773 66.991 263.529C66.473 264.271 66.214 265.265 66.214 266.511V268.611C66.214 269.857 66.473 270.858 66.991 271.614C67.523 272.37 68.307 272.748 69.343 272.748ZM81.2662 272.58L82.7362 272.37V262.752L81.2662 262.542V262.122H84.8362V264.054C85.3402 263.396 85.9072 262.878 86.5372 262.5C87.1812 262.122 87.8742 261.933 88.6162 261.933C89.4702 261.933 90.1632 262.122 90.6952 262.5C91.2412 262.864 91.5842 263.417 91.7242 264.159C92.2282 263.473 92.8022 262.934 93.4462 262.542C94.0902 262.136 94.7972 261.933 95.5672 261.933C96.5612 261.933 97.3312 262.185 97.8772 262.689C98.4372 263.179 98.7172 263.928 98.7172 264.936V272.37L100.187 272.58V273H95.3572V272.58L96.6172 272.37V264.978C96.6172 264.236 96.4842 263.669 96.2182 263.277C95.9522 262.885 95.5182 262.689 94.9162 262.689C94.3422 262.689 93.7822 262.885 93.2362 263.277C92.7042 263.669 92.2212 264.173 91.7872 264.789V272.37L93.0472 272.58V273H88.4062V272.58L89.6662 272.37V264.978C89.6662 264.236 89.5332 263.669 89.2672 263.277C89.0012 262.885 88.5672 262.689 87.9652 262.689C87.3912 262.689 86.8312 262.885 86.2852 263.277C85.7532 263.669 85.2702 264.173 84.8362 264.789V272.37L86.0962 272.58V273H81.2662V272.58ZM104.603 273.21C103.707 273.21 102.972 272.979 102.398 272.517C101.824 272.041 101.537 271.341 101.537 270.417C101.537 269.101 102.09 268.17 103.196 267.624C104.302 267.064 105.583 266.784 107.039 266.784H108.446V265.167C108.446 264.439 108.362 263.879 108.194 263.487C108.04 263.081 107.795 262.801 107.459 262.647C107.123 262.479 106.668 262.395 106.094 262.395C105.436 262.395 104.946 262.528 104.624 262.794C104.302 263.046 104.141 263.389 104.141 263.823C104.141 264.229 104.337 264.495 104.729 264.621C104.729 264.971 104.596 265.279 104.33 265.545C104.064 265.811 103.749 265.944 103.385 265.944C102.993 265.944 102.678 265.839 102.44 265.629C102.202 265.405 102.083 265.069 102.083 264.621C102.083 263.809 102.489 263.158 103.301 262.668C104.113 262.178 105.128 261.933 106.346 261.933C109.146 261.933 110.546 263.151 110.546 265.587V271.593C110.546 271.901 110.609 272.139 110.735 272.307C110.875 272.461 111.071 272.538 111.323 272.538C111.561 272.538 111.75 272.461 111.89 272.307C112.03 272.139 112.1 271.915 112.1 271.635H112.541C112.541 272.125 112.38 272.51 112.058 272.79C111.75 273.07 111.316 273.21 110.756 273.21C110.112 273.21 109.566 273.028 109.118 272.664C108.684 272.286 108.46 271.705 108.446 270.921C108.11 271.635 107.592 272.195 106.892 272.601C106.206 273.007 105.443 273.21 104.603 273.21ZM105.758 272.286C106.136 272.286 106.521 272.174 106.913 271.95C107.319 271.726 107.662 271.404 107.942 270.984C108.222 270.55 108.39 270.032 108.446 269.43V267.246H107.039C105.891 267.246 105.03 267.505 104.456 268.023C103.896 268.527 103.616 269.241 103.616 270.165C103.616 270.935 103.798 271.481 104.162 271.803C104.526 272.125 105.058 272.286 105.758 272.286ZM113.053 272.58L114.523 272.37V262.752L113.053 262.542V262.122H116.623V263.739C117.505 262.535 118.499 261.933 119.605 261.933C120.137 261.933 120.606 262.073 121.012 262.353C121.418 262.619 121.621 263.004 121.621 263.508C121.621 263.872 121.502 264.18 121.264 264.432C121.026 264.67 120.711 264.789 120.319 264.789C119.871 264.789 119.507 264.614 119.227 264.264C119.381 264.068 119.458 263.858 119.458 263.634C119.458 263.396 119.374 263.207 119.206 263.067C119.052 262.913 118.842 262.836 118.576 262.836C118.282 262.836 117.981 262.976 117.673 263.256C117.365 263.522 117.015 263.942 116.623 264.516V272.37L118.303 272.58V273H113.053V272.58ZM122.196 273V272.58L123.666 272.37V256.83L122.196 256.62V256.2H125.766V266.973L130.575 263.025L128.748 262.542V262.122H132.696V262.542L131.352 263.025L127.866 265.881L132.78 272.391L133.914 272.58V273H129V272.58L130.26 272.37L126.312 267.162L125.766 267.624V272.37L127.026 272.58V273H122.196ZM139.462 273.21C138.426 273.21 137.488 272.979 136.648 272.517C135.808 272.041 135.143 271.376 134.653 270.522C134.163 269.668 133.918 268.681 133.918 267.561C133.918 266.441 134.156 265.461 134.632 264.621C135.122 263.767 135.773 263.109 136.585 262.647C137.411 262.171 138.328 261.933 139.336 261.933C140.218 261.933 141.009 262.129 141.709 262.521C142.409 262.913 142.955 263.459 143.347 264.159C143.739 264.845 143.942 265.636 143.956 266.532H136.228V268.611C136.228 269.843 136.501 270.844 137.047 271.614C137.607 272.37 138.412 272.748 139.462 272.748C140.428 272.748 141.282 272.475 142.024 271.929C142.766 271.383 143.221 270.676 143.389 269.808H143.872C143.676 270.844 143.179 271.67 142.381 272.286C141.583 272.902 140.61 273.21 139.462 273.21ZM141.646 266.007C141.646 264.789 141.457 263.886 141.079 263.298C140.701 262.696 140.113 262.395 139.315 262.395C138.377 262.395 137.649 262.724 137.131 263.382C136.613 264.04 136.319 264.915 136.249 266.007H141.646ZM149.7 273.21C148.776 273.21 148.034 272.979 147.474 272.517C146.928 272.055 146.655 271.32 146.655 270.312V262.752L145.164 262.542V262.122H146.655V260.379L148.755 259.854V262.122H151.485V262.542L148.755 262.752V270.27C148.755 271.754 149.287 272.496 150.351 272.496C150.575 272.496 150.785 272.461 150.981 272.391C151.191 272.321 151.352 272.251 151.464 272.181C151.59 272.111 151.667 272.062 151.695 272.034L151.968 272.37C151.338 272.93 150.582 273.21 149.7 273.21ZM156.696 273.21C155.548 273.21 154.589 272.965 153.819 272.475C153.049 271.985 152.664 271.348 152.664 270.564C152.664 270.158 152.769 269.843 152.979 269.619C153.203 269.381 153.497 269.262 153.861 269.262C154.141 269.262 154.379 269.332 154.575 269.472C154.771 269.612 154.911 269.808 154.995 270.06C154.687 270.396 154.533 270.753 154.533 271.131C154.533 271.565 154.729 271.943 155.121 272.265C155.513 272.587 156.038 272.748 156.696 272.748C157.578 272.748 158.299 272.552 158.859 272.16C159.419 271.754 159.699 271.215 159.699 270.543C159.699 270.151 159.58 269.857 159.342 269.661C159.104 269.465 158.642 269.241 157.956 268.989L154.785 267.834C153.539 267.386 152.916 266.553 152.916 265.335C152.916 264.341 153.259 263.529 153.945 262.899C154.631 262.255 155.576 261.933 156.78 261.933C157.774 261.933 158.621 262.164 159.321 262.626C160.035 263.074 160.392 263.718 160.392 264.558C160.392 264.894 160.301 265.167 160.119 265.377C159.937 265.573 159.699 265.671 159.405 265.671C159.111 265.671 158.866 265.594 158.67 265.44C158.488 265.272 158.397 265.048 158.397 264.768C158.579 264.628 158.705 264.481 158.775 264.327C158.845 264.159 158.88 263.963 158.88 263.739C158.88 263.347 158.705 263.025 158.355 262.773C158.019 262.521 157.494 262.395 156.78 262.395C156.164 262.395 155.632 262.493 155.184 262.689C154.75 262.871 154.421 263.116 154.197 263.424C153.973 263.732 153.861 264.047 153.861 264.369C153.861 264.705 153.98 264.971 154.218 265.167C154.47 265.363 154.925 265.58 155.583 265.818L158.523 266.868C159.209 267.12 159.727 267.47 160.077 267.918C160.427 268.366 160.602 268.947 160.602 269.661C160.602 270.683 160.28 271.53 159.636 272.202C158.992 272.874 158.012 273.21 156.696 273.21Z" fill="url(#paint4_linear_4262_2152)"/>
<path d="M150.229 105.686C149.837 105.686 149.501 105.553 149.221 105.287C148.941 105.007 148.801 104.671 148.801 104.279C148.801 103.887 148.934 103.558 149.2 103.292C149.48 103.026 149.823 102.893 150.229 102.893C150.607 102.893 150.929 103.026 151.195 103.292C151.461 103.558 151.594 103.887 151.594 104.279C151.594 104.671 151.461 105.007 151.195 105.287C150.929 105.553 150.607 105.686 150.229 105.686ZM148.003 119V118.58L149.473 118.37V108.773L148.003 108.563V108.143H151.573V118.37L153.043 118.58V119H148.003ZM154.052 118.58L155.522 118.37V108.752L154.052 108.542V108.122H157.622V110.39C158.14 109.634 158.749 109.039 159.449 108.605C160.149 108.157 160.905 107.933 161.717 107.933C162.725 107.933 163.516 108.185 164.09 108.689C164.678 109.193 164.972 109.942 164.972 110.936V118.37L166.442 118.58V119H161.612V118.58L162.872 118.37V110.978C162.872 110.25 162.725 109.69 162.431 109.298C162.137 108.892 161.682 108.689 161.066 108.689C160.422 108.689 159.799 108.927 159.197 109.403C158.609 109.865 158.084 110.439 157.622 111.125V118.37L158.882 118.58V119H154.052V118.58ZM167.382 118.58L168.852 118.37V108.752L167.382 108.542V108.122H170.952V110.39C171.47 109.634 172.079 109.039 172.779 108.605C173.479 108.157 174.235 107.933 175.047 107.933C176.055 107.933 176.846 108.185 177.42 108.689C178.008 109.193 178.302 109.942 178.302 110.936V118.37L179.772 118.58V119H174.942V118.58L176.202 118.37V110.978C176.202 110.25 176.055 109.69 175.761 109.298C175.467 108.892 175.012 108.689 174.396 108.689C173.752 108.689 173.129 108.927 172.527 109.403C171.939 109.865 171.414 110.439 170.952 111.125V118.37L172.212 118.58V119H167.382V118.58ZM186.488 119.21C185.48 119.21 184.563 118.979 183.737 118.517C182.911 118.041 182.253 117.376 181.763 116.522C181.287 115.654 181.049 114.667 181.049 113.561C181.049 112.455 181.287 111.475 181.763 110.621C182.253 109.767 182.911 109.109 183.737 108.647C184.563 108.171 185.48 107.933 186.488 107.933C187.496 107.933 188.413 108.171 189.239 108.647C190.065 109.109 190.716 109.767 191.192 110.621C191.682 111.475 191.927 112.455 191.927 113.561C191.927 114.667 191.682 115.654 191.192 116.522C190.716 117.376 190.065 118.041 189.239 118.517C188.413 118.979 187.496 119.21 186.488 119.21ZM186.488 118.748C187.524 118.748 188.301 118.37 188.819 117.614C189.351 116.858 189.617 115.857 189.617 114.611V112.511C189.617 111.265 189.351 110.271 188.819 109.529C188.301 108.773 187.524 108.395 186.488 108.395C185.452 108.395 184.668 108.773 184.136 109.529C183.618 110.271 183.359 111.265 183.359 112.511V114.611C183.359 115.857 183.618 116.858 184.136 117.614C184.668 118.37 185.452 118.748 186.488 118.748ZM197.974 119.42L193.48 108.752L192.115 108.542V108.122H197.344V108.542L195.832 108.815L199.003 116.711L201.838 109.088L199.99 108.563V108.143H203.749V108.563L202.426 109.067L198.562 119.42H197.974ZM207.372 119.21C206.476 119.21 205.741 118.979 205.167 118.517C204.593 118.041 204.306 117.341 204.306 116.417C204.306 115.101 204.859 114.17 205.965 113.624C207.071 113.064 208.352 112.784 209.808 112.784H211.215V111.167C211.215 110.439 211.131 109.879 210.963 109.487C210.809 109.081 210.564 108.801 210.228 108.647C209.892 108.479 209.437 108.395 208.863 108.395C208.205 108.395 207.715 108.528 207.393 108.794C207.071 109.046 206.91 109.389 206.91 109.823C206.91 110.229 207.106 110.495 207.498 110.621C207.498 110.971 207.365 111.279 207.099 111.545C206.833 111.811 206.518 111.944 206.154 111.944C205.762 111.944 205.447 111.839 205.209 111.629C204.971 111.405 204.852 111.069 204.852 110.621C204.852 109.809 205.258 109.158 206.07 108.668C206.882 108.178 207.897 107.933 209.115 107.933C211.915 107.933 213.315 109.151 213.315 111.587V117.593C213.315 117.901 213.378 118.139 213.504 118.307C213.644 118.461 213.84 118.538 214.092 118.538C214.33 118.538 214.519 118.461 214.659 118.307C214.799 118.139 214.869 117.915 214.869 117.635H215.31C215.31 118.125 215.149 118.51 214.827 118.79C214.519 119.07 214.085 119.21 213.525 119.21C212.881 119.21 212.335 119.028 211.887 118.664C211.453 118.286 211.229 117.705 211.215 116.921C210.879 117.635 210.361 118.195 209.661 118.601C208.975 119.007 208.212 119.21 207.372 119.21ZM208.527 118.286C208.905 118.286 209.29 118.174 209.682 117.95C210.088 117.726 210.431 117.404 210.711 116.984C210.991 116.55 211.159 116.032 211.215 115.43V113.246H209.808C208.66 113.246 207.799 113.505 207.225 114.023C206.665 114.527 206.385 115.241 206.385 116.165C206.385 116.935 206.567 117.481 206.931 117.803C207.295 118.125 207.827 118.286 208.527 118.286ZM220.169 119.21C219.245 119.21 218.503 118.979 217.943 118.517C217.397 118.055 217.124 117.32 217.124 116.312V108.752L215.633 108.542V108.122H217.124V106.379L219.224 105.854V108.122H221.954V108.542L219.224 108.752V116.27C219.224 117.754 219.756 118.496 220.82 118.496C221.044 118.496 221.254 118.461 221.45 118.391C221.66 118.321 221.821 118.251 221.933 118.181C222.059 118.111 222.136 118.062 222.164 118.034L222.437 118.37C221.807 118.93 221.051 119.21 220.169 119.21ZM225.349 105.686C224.957 105.686 224.621 105.553 224.341 105.287C224.061 105.007 223.921 104.671 223.921 104.279C223.921 103.887 224.054 103.558 224.32 103.292C224.6 103.026 224.943 102.893 225.349 102.893C225.727 102.893 226.049 103.026 226.315 103.292C226.581 103.558 226.714 103.887 226.714 104.279C226.714 104.671 226.581 105.007 226.315 105.287C226.049 105.553 225.727 105.686 225.349 105.686ZM223.123 119V118.58L224.593 118.37V108.773L223.123 108.563V108.143H226.693V118.37L228.163 118.58V119H223.123ZM234.947 119.21C233.939 119.21 233.022 118.979 232.196 118.517C231.37 118.041 230.712 117.376 230.222 116.522C229.746 115.654 229.508 114.667 229.508 113.561C229.508 112.455 229.746 111.475 230.222 110.621C230.712 109.767 231.37 109.109 232.196 108.647C233.022 108.171 233.939 107.933 234.947 107.933C235.955 107.933 236.872 108.171 237.698 108.647C238.524 109.109 239.175 109.767 239.651 110.621C240.141 111.475 240.386 112.455 240.386 113.561C240.386 114.667 240.141 115.654 239.651 116.522C239.175 117.376 238.524 118.041 237.698 118.517C236.872 118.979 235.955 119.21 234.947 119.21ZM234.947 118.748C235.983 118.748 236.76 118.37 237.278 117.614C237.81 116.858 238.076 115.857 238.076 114.611V112.511C238.076 111.265 237.81 110.271 237.278 109.529C236.76 108.773 235.983 108.395 234.947 108.395C233.911 108.395 233.127 108.773 232.595 109.529C232.077 110.271 231.818 111.265 231.818 112.511V114.611C231.818 115.857 232.077 116.858 232.595 117.614C233.127 118.37 233.911 118.748 234.947 118.748ZM241.846 118.58L243.316 118.37V108.752L241.846 108.542V108.122H245.416V110.39C245.934 109.634 246.543 109.039 247.243 108.605C247.943 108.157 248.699 107.933 249.511 107.933C250.519 107.933 251.31 108.185 251.884 108.689C252.472 109.193 252.766 109.942 252.766 110.936V118.37L254.236 118.58V119H249.406V118.58L250.666 118.37V110.978C250.666 110.25 250.519 109.69 250.225 109.298C249.931 108.892 249.476 108.689 248.86 108.689C248.216 108.689 247.593 108.927 246.991 109.403C246.403 109.865 245.878 110.439 245.416 111.125V118.37L246.676 118.58V119H241.846V118.58Z" fill="url(#paint5_linear_4262_2152)"/>
<path d="M215.937 221.329C216.932 215.554 205.987 182.482 198.525 183.006C191.064 183.531 182.606 206.069 180.119 217.637C177.632 229.204 214.942 227.104 215.937 221.329Z" fill="url(#paint6_linear_4262_2152)"/>
<defs>
<linearGradient id="paint0_linear_4262_2152" x1="206" y1="200" x2="198" y2="50" gradientUnits="userSpaceOnUse">
<stop stop-color="#2D394E"/>
<stop offset="1" stop-color="#141C29" stop-opacity="0"/>
</linearGradient>
<linearGradient id="paint1_linear_4262_2152" x1="190" y1="261" x2="40" y2="269" gradientUnits="userSpaceOnUse">
<stop stop-color="#2D394E"/>
<stop offset="1" stop-color="#141C29" stop-opacity="0"/>
</linearGradient>
<linearGradient id="paint2_linear_4262_2152" x1="214" y1="269" x2="364" y2="261" gradientUnits="userSpaceOnUse">
<stop stop-color="#2D394E"/>
<stop offset="1" stop-color="#141C29" stop-opacity="0"/>
</linearGradient>
<linearGradient id="paint3_linear_4262_2152" x1="359" y1="252" x2="225" y2="252" gradientUnits="userSpaceOnUse">
<stop stop-color="#AAC1ED"/>
<stop offset="1" stop-color="#5374B6"/>
</linearGradient>
<linearGradient id="paint4_linear_4262_2152" x1="205" y1="252" x2="13" y2="252" gradientUnits="userSpaceOnUse">
<stop stop-color="#AAC1ED"/>
<stop offset="1" stop-color="#5374B6"/>
</linearGradient>
<linearGradient id="paint5_linear_4262_2152" x1="255" y1="112" x2="142" y2="112" gradientUnits="userSpaceOnUse">
<stop stop-color="#AAC1ED"/>
<stop offset="1" stop-color="#5374B6"/>
</linearGradient>
<linearGradient id="paint6_linear_4262_2152" x1="198.028" y1="243.378" x2="194.153" y2="198.264" gradientUnits="userSpaceOnUse">
<stop stop-color="#AAC1ED"/>
<stop offset="1" stop-color="#5374B6"/>
</linearGradient>
</defs>
</svg>
