<svg width="1320" height="979" viewBox="0 0 1320 979" fill="none" xmlns="http://www.w3.org/2000/svg">
<path d="M46.3534 5.47368C50.6504 1.93498 56.0438 0 61.6104 0H1296C1309.25 0 1320 10.7452 1320 24V955C1320 968.255 1309.25 979 1296 979H24C10.7451 979 0 968.255 0 955V66C0 60.8071 1.68427 55.7543 4.8 51.6L9 46L43.3395 8.27491C44.1122 7.42606 44.9447 6.63374 45.8308 5.90405L46.3534 5.47368Z" fill="white"/>
<path d="M46.6712 5.85964C50.8787 2.39467 56.1598 0.5 61.6104 0.5H1296C1308.98 0.5 1319.5 11.0213 1319.5 24V955C1319.5 967.979 1308.98 978.5 1296 978.5H24C11.0213 978.5 0.5 967.979 0.5 955V66C0.5 60.9153 2.14918 55.9678 5.2 51.9L9.38575 46.319L43.7093 8.61148C44.4658 7.78032 45.2811 7.00451 46.1486 6.29001L46.6712 5.85964Z" stroke="#9674E8" stroke-opacity="0.5"/>
</svg>
