<svg width="36" height="36" viewBox="0 0 36 36" fill="none" xmlns="http://www.w3.org/2000/svg">
<rect width="36" height="36" rx="10" fill="#006699"/>
<path d="M13.859 25.2953V15.5706H10.6296V25.2953H13.859ZM12.245 14.2431C13.3709 14.2431 14.0719 13.4964 14.0719 12.5632C14.0508 11.6087 13.3709 10.8828 12.2664 10.8828C11.1611 10.8828 10.4392 11.6087 10.4392 12.5631C10.4392 13.4963 11.1399 14.243 12.2238 14.243L12.245 14.2431ZM15.6466 25.2953H18.8758V19.8652C18.8758 19.5749 18.8968 19.2839 18.9821 19.0766C19.2155 18.4957 19.7469 17.8943 20.6392 17.8943C21.8075 17.8943 22.2751 18.786 22.2751 20.0934V25.2953H25.5042V19.7195C25.5042 16.7326 23.9112 15.3427 21.7865 15.3427C20.0446 15.3427 19.2796 16.3171 18.8545 16.9808H18.876V15.571H15.6467C15.6889 16.4833 15.6466 25.2953 15.6466 25.2953Z" fill="white"/>
</svg>
