<svg width="36" height="36" viewBox="0 0 36 36" fill="none" xmlns="http://www.w3.org/2000/svg">
<rect width="36" height="36" rx="10" fill="#34AADF"/>
<path d="M10.0153 17.3621C10.0153 17.3621 17.3394 14.2773 19.8795 13.1911C20.8532 12.7566 24.1554 11.3662 24.1554 11.3662C24.1554 11.3662 25.6795 10.758 25.5525 12.2352C25.5101 12.8435 25.1714 14.9724 24.8328 17.2752C24.3247 20.5338 23.7744 24.0965 23.7744 24.0965C23.7744 24.0965 23.6897 25.0959 22.97 25.2696C22.2503 25.4434 21.0649 24.6614 20.8532 24.4876C20.6838 24.3573 17.678 22.4021 16.5773 21.4462C16.2809 21.1855 15.9423 20.6642 16.6196 20.0559C18.1437 18.6221 19.9641 16.8407 21.0649 15.7111C21.5729 15.1897 22.0809 13.9731 19.9641 15.4504C16.9583 17.5793 13.9948 19.5779 13.9948 19.5779C13.9948 19.5779 13.3174 20.0124 12.0474 19.6214C10.7773 19.2304 9.29551 18.709 9.29551 18.709C9.29551 18.709 8.27951 18.0573 10.0153 17.3621Z" fill="white"/>
</svg>
