<svg width="52" height="52" viewBox="0 0 52 52" fill="none" xmlns="http://www.w3.org/2000/svg">
<path d="M10.4229 31.9745C10.664 31.01 11.5306 30.3334 12.5249 30.3334H39.4748C40.469 30.3334 41.3357 31.01 41.5768 31.9745L42.7947 36.8463C43.0682 37.9403 42.2408 39 41.1132 39H10.8865C9.75886 39 8.93144 37.9403 9.20494 36.8463L10.4229 31.9745Z" fill="url(#paint0_linear_4262_2182)"/>
<g filter="url(#filter0_bi_4262_2182)">
<path d="M8.47156 32.7156L6.96984 17.6984C6.78547 15.8547 8.8503 14.6452 10.3683 15.7078L15.9421 19.6095C16.7591 20.1813 17.8609 20.1217 18.6114 19.4651L24.5732 14.2484C25.3901 13.5336 26.6099 13.5336 27.4268 14.2484L33.3886 19.4651C34.1391 20.1217 35.2409 20.1813 36.0579 19.6095L41.6317 15.7078C43.1497 14.6452 45.2145 15.8547 45.0302 17.6984L43.5284 32.7156C43.4177 33.8232 42.4857 34.6667 41.3725 34.6667H10.6275C9.51435 34.6667 8.58232 33.8232 8.47156 32.7156Z" fill="#F1F1F1" fill-opacity="0.1"/>
<path d="M8.47156 32.7156L6.96984 17.6984C6.78547 15.8547 8.8503 14.6452 10.3683 15.7078L15.9421 19.6095C16.7591 20.1813 17.8609 20.1217 18.6114 19.4651L24.5732 14.2484C25.3901 13.5336 26.6099 13.5336 27.4268 14.2484L33.3886 19.4651C34.1391 20.1217 35.2409 20.1813 36.0579 19.6095L41.6317 15.7078C43.1497 14.6452 45.2145 15.8547 45.0302 17.6984L43.5284 32.7156C43.4177 33.8232 42.4857 34.6667 41.3725 34.6667H10.6275C9.51435 34.6667 8.58232 33.8232 8.47156 32.7156Z" fill="url(#paint1_linear_4262_2182)" fill-opacity="0.2"/>
<path d="M8.68715 32.694L7.18543 17.6768C7.0195 16.0175 8.87785 14.929 10.244 15.8853L15.8179 19.787C16.7165 20.416 17.9285 20.3505 18.754 19.6281L24.7159 14.4115C25.4511 13.7682 26.5489 13.7682 27.2841 14.4115L33.246 19.6281C34.0715 20.3505 35.2835 20.416 36.1821 19.787L41.756 15.8853C43.1222 14.929 44.9805 16.0175 44.8146 17.6768L43.3129 32.694C43.2132 33.6909 42.3743 34.45 41.3725 34.45H10.6275C9.62566 34.45 8.78683 33.6909 8.68715 32.694Z" stroke="url(#paint2_linear_4262_2182)" stroke-opacity="0.1" stroke-width="0.433333"/>
</g>
<defs>
<filter id="filter0_bi_4262_2182" x="0.458496" y="7.21228" width="51.083" height="33.9543" filterUnits="userSpaceOnUse" color-interpolation-filters="sRGB">
<feFlood flood-opacity="0" result="BackgroundImageFix"/>
<feGaussianBlur in="BackgroundImageFix" stdDeviation="3.25"/>
<feComposite in2="SourceAlpha" operator="in" result="effect1_backgroundBlur_4262_2182"/>
<feBlend mode="normal" in="SourceGraphic" in2="effect1_backgroundBlur_4262_2182" result="shape"/>
<feColorMatrix in="SourceAlpha" type="matrix" values="0 0 0 0 0 0 0 0 0 0 0 0 0 0 0 0 0 0 127 0" result="hardAlpha"/>
<feOffset dy="1.08333"/>
<feGaussianBlur stdDeviation="2.16667"/>
<feComposite in2="hardAlpha" operator="arithmetic" k2="-1" k3="1"/>
<feColorMatrix type="matrix" values="0 0 0 0 1 0 0 0 0 1 0 0 0 0 1 0 0 0 0.15 0"/>
<feBlend mode="normal" in2="shape" result="effect2_innerShadow_4262_2182"/>
</filter>
<linearGradient id="paint0_linear_4262_2182" x1="25.9998" y1="30.3334" x2="25.9998" y2="39" gradientUnits="userSpaceOnUse">
<stop stop-color="#AAC1ED"/>
<stop offset="1" stop-color="#5374B6"/>
</linearGradient>
<linearGradient id="paint1_linear_4262_2182" x1="6.5" y1="13" x2="46.9524" y2="31.4889" gradientUnits="userSpaceOnUse">
<stop stop-color="#82E8FF"/>
<stop offset="1" stop-color="#379FFF"/>
</linearGradient>
<linearGradient id="paint2_linear_4262_2182" x1="7.71875" y1="13.9848" x2="45.5" y2="13.9848" gradientUnits="userSpaceOnUse">
<stop stop-color="#7EE5FF"/>
<stop offset="1" stop-color="#41A9FF"/>
</linearGradient>
</defs>
</svg>
