<svg width="36" height="36" viewBox="0 0 36 36" fill="none" xmlns="http://www.w3.org/2000/svg">
<path d="M17.6039 31.8432C17.713 31.9497 17.8565 32 18 32C18.1435 32 18.287 31.9497 18.3961 31.8432C18.7922 31.4792 28 22.7432 28 13.7552C28 8.37921 23.5166 4 18 4C12.4834 4 8 8.37921 8 13.7552C8 22.7432 17.2078 31.4792 17.6039 31.8432ZM13.3767 13.7552C13.3767 11.2666 15.4489 9.24505 18 9.24505C20.5511 9.24505 22.6233 11.2666 22.6233 13.7552C22.6233 16.2438 20.5511 18.2654 18 18.2654C15.4489 18.2654 13.3767 16.2438 13.3767 13.7552Z" fill="url(#paint0_linear_435_2666)"/>
<defs>
<linearGradient id="paint0_linear_435_2666" x1="18" y1="12.7733" x2="32.7077" y2="27.2009" gradientUnits="userSpaceOnUse">
<stop stop-color="#3891D6"/>
<stop offset="1" stop-color="#04D2E3"/>
</linearGradient>
</defs>
</svg>
